<svg width="718" height="718" viewBox="0 0 718 718" fill="none" xmlns="http://www.w3.org/2000/svg">
<path d="M203.327 89.3504L359 1.11497L514.673 89.3504L514.687 89.3582L668.938 180.057L670.36 358.992V359.008L668.938 537.943L514.687 628.642L514.673 628.65L359 716.885L203.327 628.65L203.313 628.642L49.0625 537.943L47.64 359.008V358.992L49.0625 180.057L203.313 89.3582L203.327 89.3504Z" fill="white" stroke="#00CC33" stroke-width="1.94"/>
<path d="M234.647 143.598L359 73.115L483.353 143.598L483.367 143.606L606.584 216.057L607.72 358.992V359.008L606.584 501.943L483.367 574.394L483.353 574.402L359 644.885L234.647 574.402L234.633 574.394L111.416 501.943L110.28 359.008V358.992L111.416 216.057L234.633 143.606L234.647 143.598Z" fill="white" stroke="#00CC33" stroke-width="1.94"/>
<path d="M268.577 202.367L359 151.115L449.423 202.367L449.437 202.374L539.034 255.057L539.86 358.992V359.008L539.034 462.943L449.437 515.626L449.423 515.633L359 566.885L268.577 515.633L268.563 515.626L178.966 462.943L178.14 359.008V358.992L178.966 255.057L268.57 202.371L268.577 202.367Z" stroke="#00CC33" stroke-width="1.94"/>
<path d="M122.057 285.528C122.057 291.895 116.895 297.057 110.528 297.057C104.162 297.057 99 291.895 99 285.528C99 279.162 104.162 274 110.528 274C116.895 274 122.057 279.162 122.057 285.528Z" fill="white" stroke="#00CC33" stroke-width="1.96"/>
<path d="M167 602.5C167 607.194 163.194 611 158.5 611C153.806 611 150 607.194 150 602.5C150 597.806 153.806 594 158.5 594C163.194 594 167 597.806 167 602.5Z" fill="white" stroke="#00CC33" stroke-width="1.96"/>
<path d="M629 150.5C629 155.747 624.747 160 619.5 160C614.253 160 610 155.747 610 150.5C610 145.253 614.253 141 619.5 141C624.747 141 629 145.253 629 150.5Z" fill="white" stroke="#00CC33" stroke-width="1.96"/>
<path d="M498.057 493.528C498.057 499.895 492.895 505.057 486.528 505.057C480.162 505.057 475 499.895 475 493.528C475 487.162 480.162 482 486.528 482C492.895 482 498.057 487.162 498.057 493.528Z" fill="white" stroke="#00CC33" stroke-width="1.96"/>
<path d="M358.512 498.385L242.344 469.159V330.605L358.512 359.831V498.385Z" fill="url(#paint0_linear_2607_18)"/>
<path d="M358.703 301L242.471 330.226L358.83 359.831L474.999 330.605L358.703 301Z" fill="url(#paint1_linear_2607_18)"/>
<path d="M358.831 498.385L475 469.159V330.605L358.831 359.831V498.385Z" fill="url(#paint2_linear_2607_18)"/>
<path style="mix-blend-mode:multiply" opacity="0.7" d="M358.512 582.736L242.344 553.509V414.955L358.512 444.182V582.736Z" fill="url(#paint3_linear_2607_18)"/>
<path style="mix-blend-mode:multiply" opacity="0.7" d="M358.703 385.35L242.471 414.576L358.83 444.182L474.999 414.955L358.703 385.35Z" fill="url(#paint4_linear_2607_18)"/>
<path style="mix-blend-mode:multiply" opacity="0.7" d="M358.831 582.736L475 553.509V414.955L358.831 444.182V582.736Z" fill="url(#paint5_linear_2607_18)"/>
<path style="mix-blend-mode:multiply" opacity="0.7" d="M358.512 613.923L242.344 584.696V446.142L358.512 475.369V613.923Z" fill="url(#paint6_linear_2607_18)"/>
<path style="mix-blend-mode:multiply" opacity="0.7" d="M358.703 416.537L242.471 445.763L358.83 475.368L474.999 446.142L358.703 416.537Z" fill="url(#paint7_linear_2607_18)"/>
<path d="M358.831 613.923L475 584.696V446.142L358.831 475.369V613.923Z" fill="url(#paint8_linear_2607_18)"/>
<circle cx="356.001" cy="272" r="57" fill="white"/>
<path fill-rule="evenodd" clip-rule="evenodd" d="M298.312 272.148C298.312 240.303 324.179 214.412 355.977 214.412C387.798 214.412 413.689 240.303 413.689 272.148C413.689 303.921 387.798 329.788 355.977 329.788C324.179 329.788 298.312 303.921 298.312 272.148ZM299.229 272.148C299.229 303.415 324.686 328.872 355.977 328.872C387.292 328.872 412.773 303.415 412.773 272.148C412.773 240.809 387.292 215.328 355.977 215.328C324.686 215.328 299.229 240.809 299.229 272.148Z" fill="#00CC33"/>
<circle cx="356.001" cy="272" r="49" fill="white"/>
<path fill-rule="evenodd" clip-rule="evenodd" d="M307.111 272.148C307.111 245.148 329.025 223.211 355.977 223.211C382.952 223.211 404.89 245.148 404.89 272.148C404.89 299.076 382.952 320.989 355.977 320.989C329.025 320.989 307.111 299.076 307.111 272.148ZM308.027 272.148C308.027 298.57 329.531 320.073 355.977 320.073C382.446 320.073 403.974 298.57 403.974 272.148C403.974 245.654 382.446 224.127 355.977 224.127C329.531 224.127 308.027 245.654 308.027 272.148Z" fill="#00CC33"/>
<path fill-rule="evenodd" clip-rule="evenodd" d="M333.629 257.009C333.533 256.937 333.485 256.816 333.485 256.696V250.645C333.485 250.404 333.702 250.187 333.943 250.187H346.647V241.315C346.647 241.074 346.84 240.857 347.105 240.857H351.444C351.71 240.857 351.903 241.074 351.903 241.315V249.946L355.519 249.897V241.315C355.519 241.074 355.711 240.857 355.977 240.857H360.485C360.726 240.857 360.943 241.074 360.943 241.315V250.235C369.959 251.079 374.611 254.357 375.166 260.239C375.552 264.53 374.178 267.688 371.068 269.689C376.564 271.401 378.975 275.33 378.372 281.671C377.528 291.41 369.308 293.411 361.232 293.965V302.957C361.232 303.198 361.039 303.415 360.774 303.415H355.808C355.567 303.415 355.35 303.198 355.35 302.957V294.086H351.83V302.957C351.83 303.198 351.637 303.415 351.372 303.415H347.105C346.84 303.415 346.647 303.198 346.647 302.957V293.917H333.943C333.822 293.917 333.678 293.869 333.605 293.772C333.509 293.652 333.461 293.531 333.485 293.387L334.642 286.588C334.69 286.371 334.883 286.203 335.1 286.203C337.053 286.227 340.235 286.251 340.717 286.227C340.749 286.211 340.789 286.203 340.837 286.203C342.139 286.203 342.453 285.287 342.501 284.732V269.93C342.501 269.914 342.509 269.898 342.525 269.882C342.509 269.866 342.501 269.85 342.501 269.834V259.227C342.236 257.877 341.319 257.154 339.753 257.154C339.72 257.154 339.68 257.146 339.632 257.13C339.198 257.105 335.944 257.129 333.943 257.154C333.846 257.154 333.702 257.105 333.629 257.009ZM334.401 256.238C338.089 256.189 339.294 256.189 339.753 256.238C342.453 256.238 343.2 258.046 343.417 259.13V269.448L343.634 269.472C343.875 269.496 344.044 269.713 344.044 269.955C344.019 270.196 343.827 270.388 343.586 270.388H343.417V284.756C343.417 284.772 343.417 284.788 343.417 284.805C343.32 285.913 342.573 287.119 340.837 287.119V287.095C340.283 287.191 338.957 287.167 335.486 287.119L334.497 293.001H347.105C347.346 293.001 347.563 293.218 347.563 293.459V302.499H350.914V293.628C350.914 293.363 351.131 293.17 351.372 293.17H355.808C356.073 293.17 356.266 293.363 356.266 293.628V302.499H360.316V293.555C360.316 293.314 360.509 293.097 360.75 293.097C371.984 292.35 376.829 289.023 377.456 281.574C378.059 275.282 375.6 271.714 369.766 270.292C369.597 270.244 369.453 270.075 369.428 269.906C369.404 269.713 369.501 269.521 369.669 269.424C373.117 267.688 374.636 264.627 374.25 260.336C373.744 254.863 369.236 251.85 360.436 251.103C360.195 251.079 360.027 250.886 360.027 250.645V241.773H356.435V250.355C356.435 250.596 356.218 250.789 355.977 250.813L351.469 250.886C351.324 250.886 351.228 250.838 351.131 250.741C351.059 250.669 350.986 250.548 350.986 250.428V241.773H347.563V250.645C347.563 250.91 347.346 251.103 347.105 251.103H334.401V256.238Z" fill="#00CC33"/>
<path fill-rule="evenodd" clip-rule="evenodd" d="M350.625 286.733V274.197C350.625 273.956 350.818 273.739 351.083 273.739C351.445 273.739 351.903 273.739 352.409 273.715C355.977 273.643 362.63 273.498 365.668 276.463C366.729 277.5 367.283 278.85 367.283 280.465C367.283 281.984 366.753 283.286 365.716 284.298C363.064 286.926 357.64 287.215 353.831 287.215C353.204 287.215 352.626 287.215 352.12 287.215C351.718 287.199 351.372 287.191 351.083 287.191C350.818 287.191 350.625 286.998 350.625 286.733ZM351.541 286.275C351.718 286.275 351.911 286.283 352.12 286.299C355.422 286.347 362.269 286.42 365.089 283.647C365.957 282.804 366.367 281.767 366.367 280.465C366.367 279.091 365.933 278.006 365.017 277.114C362.269 274.414 355.856 274.559 352.433 274.631C352.112 274.647 351.814 274.655 351.541 274.655V286.275Z" fill="#00CC33"/>
<path fill-rule="evenodd" clip-rule="evenodd" d="M350.625 268.46V257.154C350.625 256.888 350.818 256.696 351.083 256.696C351.396 256.696 351.806 256.671 352.264 256.671C355.374 256.575 360.557 256.43 363.161 258.962C364.173 259.95 364.679 261.228 364.679 262.819C364.679 264.289 364.197 265.519 363.209 266.483C360.967 268.677 356.652 268.942 353.566 268.942C352.988 268.942 352.481 268.942 352.023 268.942C351.67 268.926 351.356 268.918 351.083 268.918C350.818 268.918 350.625 268.725 350.625 268.46ZM351.541 268.002C351.686 268.018 351.846 268.026 352.023 268.026C354.892 268.074 360.196 268.171 362.582 265.832C363.378 265.037 363.763 264.048 363.763 262.819C363.763 261.469 363.354 260.432 362.534 259.613C360.196 257.346 355.061 257.491 352.288 257.588C352.015 257.588 351.766 257.596 351.541 257.612V268.002Z" fill="#00CC33"/>
<defs>
<linearGradient id="paint0_linear_2607_18" x1="316.03" y1="439.422" x2="347.587" y2="327.511" gradientUnits="userSpaceOnUse">
<stop stop-color="#CDE4D4" stop-opacity="0"/>
<stop offset="1" stop-color="#CDE4D4"/>
</linearGradient>
<linearGradient id="paint1_linear_2607_18" x1="242.485" y1="301.008" x2="475.01" y2="301.008" gradientUnits="userSpaceOnUse">
<stop stop-color="#CDE4D4" stop-opacity="0"/>
<stop offset="1" stop-color="#CDE4D4"/>
</linearGradient>
<linearGradient id="paint2_linear_2607_18" x1="358.824" y1="330.595" x2="475.012" y2="330.595" gradientUnits="userSpaceOnUse">
<stop stop-color="#CDE4D4" stop-opacity="0"/>
<stop offset="1" stop-color="#CDE4D4"/>
</linearGradient>
<linearGradient id="paint3_linear_2607_18" x1="468.114" y1="513.138" x2="468.114" y2="414.95" gradientUnits="userSpaceOnUse">
<stop stop-color="#BBF5CA" stop-opacity="0"/>
<stop offset="0.993" stop-color="#BBF5CA"/>
</linearGradient>
<linearGradient id="paint4_linear_2607_18" x1="694.383" y1="419.777" x2="694.383" y2="385.348" gradientUnits="userSpaceOnUse">
<stop stop-color="#BBF5CA" stop-opacity="0"/>
<stop offset="0.993" stop-color="#76FF99"/>
</linearGradient>
<linearGradient id="paint5_linear_2607_18" x1="584.602" y1="513.138" x2="584.602" y2="414.95" gradientUnits="userSpaceOnUse">
<stop stop-color="#BBF5CA" stop-opacity="0"/>
<stop offset="0.993" stop-color="#76FF99"/>
</linearGradient>
<linearGradient id="paint6_linear_2607_18" x1="468.114" y1="544.324" x2="468.114" y2="446.137" gradientUnits="userSpaceOnUse">
<stop stop-color="#BBF5CA" stop-opacity="0"/>
<stop offset="0.993" stop-color="#76FF99"/>
</linearGradient>
<linearGradient id="paint7_linear_2607_18" x1="694.383" y1="450.964" x2="694.383" y2="416.535" gradientUnits="userSpaceOnUse">
<stop stop-color="#BBF5CA" stop-opacity="0"/>
<stop offset="0.993" stop-color="#76FF99"/>
</linearGradient>
<linearGradient id="paint8_linear_2607_18" x1="249.131" y1="593.414" x2="249.131" y2="446.137" gradientUnits="userSpaceOnUse">
<stop offset="0.001" stop-color="#BBF5CA" stop-opacity="0"/>
<stop offset="0.993" stop-color="#BBF5CA"/>
</linearGradient>
</defs>
</svg>
