<svg xmlns="http://www.w3.org/2000/svg" width="72" height="31" viewBox="0 0 72 31" fill="none">
  <path d="M70.7964 29.9038H92.8513C92.8513 29.9038 93.9263 26.6379 90.0094 24.4936C86.1005 22.3498 84.3174 24.1335 82.8922 22.3498C81.4669 20.5661 86.8091 15.9093 76.1333 11.2617C76.1333 11.2617 75.4166 1.21187 60.8239 0.885112C46.2311 0.558359 50.1481 10.9349 46.2312 13.4474C42.3142 15.9598 41.2307 12.0152 37.3304 14.5195C33.43 17.0234 35.197 22.0569 31.9967 22.7437C28.7965 23.4306 24.4961 19.5278 20.6043 22.0317C16.7125 24.5355 16.6874 26.6798 14.9038 26.6798C13.1202 26.6798 9.57014 25.2476 7.4031 26.6798C5.23606 28.1121 2.76953 29.9038 2.76953 29.9038H66.2869" fill="white"/>
  <path d="M70.7964 29.9038H92.8513C92.8513 29.9038 93.9263 26.6379 90.0094 24.4936C86.1005 22.3498 84.3174 24.1335 82.8922 22.3498C81.4669 20.5661 86.8091 15.9093 76.1333 11.2617C76.1333 11.2617 75.4166 1.21187 60.8239 0.885112C46.2311 0.558359 50.1481 10.9349 46.2312 13.4474C42.3142 15.9598 41.2307 12.0152 37.3304 14.5195C33.43 17.0234 35.197 22.0569 31.9967 22.7437C28.7965 23.4306 24.4961 19.5278 20.6043 22.0317C16.7125 24.5355 16.6874 26.6798 14.9038 26.6798C13.1202 26.6798 9.57014 25.2476 7.4031 26.6798C5.23606 28.1121 2.76953 29.9038 2.76953 29.9038H66.2869" stroke="#33BC5A" stroke-width="1.46" stroke-miterlimit="10"/>
</svg>