<svg xmlns="http://www.w3.org/2000/svg" width="1538" height="649" viewBox="0 0 1538 649" fill="none">
  <path d="M1 642.996V79.5607C1 48.5367 33.4395 1 79.4826 1C125.526 1 420.121 1 486.664 1C512.154 3.50193 562.329 26.3196 562.329 97.5746C562.329 168.83 562.329 429.831 562.329 551.425C565.415 583.617 586.88 648 648.056 648C709.232 648 836.683 648 892.761 648C920.532 646.332 973.658 624.682 973.658 551.425C973.658 478.169 973.658 218.335 973.658 97.5746C975.537 65.3831 996.519 1 1065.42 1C1134.33 1 1405.93 1 1458.11 1C1484.41 2.00077 1537 24.5182 1537 106.582C1537 188.645 1537 498.384 1537 642.996" stroke="#00CC33" stroke-width="2"/>
</svg>