<svg xmlns="http://www.w3.org/2000/svg" width="116" height="43" viewBox="0 0 116 43" fill="none">
  <path d="M23.9804 29.1601C23.9778 28.0996 23.9755 27.0995 24.1007 26.1379C24.3566 24.1871 24.9958 22.3172 25.9788 20.6241C26.9606 18.9418 28.2784 17.4673 29.8363 16.2989L29.8363 16.299L29.8465 16.2911C31.439 15.0642 33.2635 14.1684 35.1992 13.6601L35.202 13.6594C37.1428 13.1438 39.1579 13.03 41.1446 13.3041C45.0522 13.8798 48.0726 15.9445 50.4593 19.1516L51.4004 20.4162L52.1435 19.026C52.6447 18.0883 53.0928 17.1742 53.5294 16.2835C54.5412 14.2191 55.4915 12.2805 56.8987 10.4654C61.1259 5.03104 67.1402 1.94525 73.9189 1.07673C76.3466 0.843913 78.9347 1.15926 81.3424 1.77471L81.3438 1.77506C84.5327 2.58538 87.5244 4.03227 90.139 6.03292L90.1402 6.03383C92.763 8.03449 94.9521 10.5482 96.5842 13.4271L96.5883 13.4342C99.5915 18.6318 100.681 25.2747 99.1662 31.0755L98.6651 32.994L100.506 32.2564C100.597 32.22 100.687 32.1838 100.776 32.1477C101.946 31.6776 103.013 31.249 104.139 31.0375C107.332 30.451 110.526 31.1774 113.216 33.0523L113.216 33.0528C116.283 35.1866 117.905 38.2522 118.767 41.8983L41.2611 42C36.6722 41.9828 32.0851 41.9809 27.4993 41.9789C18.7196 41.9753 9.94479 41.9716 1.17194 41.8605C1.29956 41.1732 1.45811 40.496 1.65529 39.8519C2.82266 36.1041 5.67474 32.6935 9.12453 30.889C13.3765 28.6732 18.0325 29.0735 22.6748 30.5672L23.9811 30.9875V29.6153C23.9811 29.4623 23.9807 29.3106 23.9804 29.1601Z" fill="white" stroke="#00CC33" stroke-width="2"/>
</svg>