<svg xmlns="http://www.w3.org/2000/svg" width="127" height="57" viewBox="0 0 127 57" fill="none">
  <path d="M0.418638 34.6055C0.250751 35.9034 0.254036 37.2527 0.257452 38.656C0.257938 38.8554 0.258427 39.0559 0.258427 39.2575V40.6326L-1.04974 40.2088C-7.19904 38.2168 -13.4255 37.6632 -19.1296 40.6558L0.418638 34.6055ZM0.418638 34.6055C0.761127 31.9756 1.61705 29.4549 2.93302 27.173C4.24775 24.9046 6.01203 22.9175 8.09698 21.3431L8.09703 21.3432L8.10727 21.3353C10.2375 19.6829 12.6779 18.4766 15.2668 17.7922L15.2696 17.7915C17.8663 17.097 20.5615 16.944 23.2175 17.3133C28.4579 18.0901 32.5053 20.8814 35.6902 25.1901L36.6335 26.4662L37.3776 25.0646C38.0254 23.8444 38.6094 22.6451 39.1813 21.4705C40.5206 18.7201 41.7942 16.1046 43.6678 13.6714C49.293 6.39018 57.2936 2.26322 66.292 1.10361C69.5347 0.789759 72.9814 1.2141 76.1777 2.03668L76.1791 2.03704C80.4184 3.12157 84.3962 5.05824 87.8729 7.73657L87.8741 7.73749C91.3617 10.4158 94.2728 13.7813 96.4432 17.6356L96.4473 17.6427C100.441 24.6008 101.893 33.4957 99.8747 41.2769L99.3764 43.1979L101.217 42.4554C101.338 42.4064 101.459 42.3575 101.579 42.3089C103.113 41.6881 104.545 41.1086 106.06 40.8224C110.348 40.0292 114.638 41.0123 118.246 43.5446L118.247 43.5451C122.481 46.5117 124.654 50.8055 125.776 55.8647L23.3268 56C17.2868 55.9772 11.2479 55.9746 5.21011 55.9721C-6.47611 55.9672 -18.1581 55.9623 -29.836 55.8102C-29.6554 54.7591 -29.4229 53.7166 -29.1226 52.7292C-27.5598 47.677 -23.7472 43.0876 -19.1309 40.6564L0.418638 34.6055Z" fill="white" stroke="#00CC33" stroke-width="2"/>
</svg>