<svg xmlns="http://www.w3.org/2000/svg" width="162" height="35" viewBox="0 0 162 35" fill="none">
  <path opacity="0.3" d="M78.102 3.85228C69.3739 8.0624 65.9359 15.5768 64.091 16.7926C61.2417 18.6702 53.3289 12.4125 46.6815 14.602C40.0341 16.7926 41.3005 21.1727 37.819 22.7364C34.3375 24.301 31.8048 20.8587 26.1071 23.0493C20.4095 25.2398 21.3593 28.0552 18.8265 29.307C16.2938 30.5587 13.7621 27.7423 10.2806 29.307C6.7991 30.8717 3 34 3 34H160C160 34 156.202 24.614 149.871 21.4846C143.54 18.3553 139.426 25.8647 132.462 23.9881C132.462 23.9881 121.7 4.90306 97.6426 1.46077C94.2522 0.975875 91.2066 0.894897 88.4696 1.11885" stroke="#00CC33" stroke-width="1.572" stroke-miterlimit="10"/>
</svg>