<svg xmlns="http://www.w3.org/2000/svg" width="78" height="27" viewBox="0 0 78 27" fill="none">
  <path d="M65.6167 20.5383C66.3847 20.2403 67.0491 19.9825 67.7485 19.8556C69.7389 19.5025 71.7281 19.94 73.4033 21.0681L73.4041 21.0686C75.1678 22.2541 76.1681 23.9207 76.7376 25.9367L26.8203 26C23.8355 25.9892 20.8529 25.988 17.8718 25.9868C12.3103 25.9845 6.75396 25.9823 1.19758 25.9176C1.25857 25.6523 1.3281 25.3928 1.40734 25.1426C2.1335 22.8914 3.91757 20.8245 6.08085 19.7315C8.73391 18.3962 11.6617 18.6246 14.6409 19.5506L15.9377 19.9537V18.5956C15.9377 18.4982 15.9375 18.4023 15.9373 18.3078C15.9357 17.6388 15.9344 17.0399 16.0119 16.4647C16.171 15.2937 16.5683 14.1697 17.181 13.1503C17.7924 12.1382 18.615 11.2483 19.5903 10.5417L19.5903 10.5417L19.6006 10.5341C20.5984 9.79146 21.7436 9.24787 22.9603 8.93925L22.963 8.93856C24.182 8.62573 25.4489 8.55627 26.6993 8.72279C29.1418 9.07077 31.0272 10.3129 32.5278 12.2608L33.4575 13.4676L34.195 12.1347C34.4988 11.5857 34.7996 10.994 35.0885 10.4256C35.2847 10.0395 35.4754 9.66427 35.658 9.32045C36.1349 8.4219 36.6304 7.58498 37.25 6.81295C39.9288 3.48616 43.7488 1.58381 48.0825 1.04632C49.6134 0.905244 51.2559 1.09709 52.7938 1.47685L52.7952 1.47718C54.826 1.9757 56.7293 2.86538 58.3909 4.0936L58.3921 4.09449C60.0589 5.32266 61.448 6.86427 62.4827 8.62743L62.4827 8.62744L62.487 8.63459C64.3912 11.8183 65.0759 15.8805 64.1216 19.4102L63.6061 21.3167L65.4479 20.6038C65.5047 20.5818 65.561 20.5599 65.6167 20.5383Z" fill="white" stroke="#00CC33" stroke-width="2"/>
</svg>