<svg width="186" height="27" viewBox="0 0 186 27" fill="none" xmlns="http://www.w3.org/2000/svg">
<path d="M0.461282 26V0.799998H9.35328C11.0813 0.799998 12.6053 1.136 13.9253 1.808C15.2453 2.48 16.2773 3.416 17.0213 4.616C17.7653 5.792 18.1373 7.16 18.1373 8.72C18.1373 10.28 17.7413 11.66 16.9493 12.86C16.1813 14.06 15.1133 15.008 13.7453 15.704C12.3773 16.376 10.8293 16.712 9.10128 16.712H4.63728V26H0.461282ZM14.4293 26L8.52528 15.776L11.7653 13.544L19.1453 26H14.4293ZM4.63728 12.86H9.53328C10.3493 12.86 11.0693 12.68 11.6933 12.32C12.3413 11.96 12.8573 11.468 13.2413 10.844C13.6493 10.22 13.8533 9.512 13.8533 8.72C13.8533 7.52 13.4213 6.536 12.5573 5.768C11.6933 5 10.5773 4.616 9.20928 4.616H4.63728V12.86ZM29.5752 26.432C27.8232 26.432 26.2632 26.036 24.8952 25.244C23.5512 24.428 22.4832 23.312 21.6912 21.896C20.9232 20.48 20.5392 18.848 20.5392 17C20.5392 15.152 20.9352 13.52 21.7272 12.104C22.5192 10.688 23.5992 9.584 24.9672 8.792C26.3592 7.976 27.9432 7.568 29.7192 7.568C31.3272 7.568 32.7792 7.988 34.0752 8.828C35.3712 9.644 36.3912 10.832 37.1352 12.392C37.9032 13.952 38.2872 15.812 38.2872 17.972H24.1392L24.6792 17.468C24.6792 18.572 24.9192 19.532 25.3992 20.348C25.8792 21.14 26.5152 21.752 27.3072 22.184C28.0992 22.616 28.9752 22.832 29.9352 22.832C31.0392 22.832 31.9512 22.592 32.6712 22.112C33.3912 21.608 33.9552 20.96 34.3632 20.168L37.9272 21.68C37.4232 22.64 36.7752 23.48 35.9832 24.2C35.2152 24.92 34.2912 25.472 33.2112 25.856C32.1552 26.24 30.9432 26.432 29.5752 26.432ZM24.9312 15.38L24.3552 14.876H34.5072L33.9672 15.38C33.9672 14.396 33.7512 13.592 33.3192 12.968C32.8872 12.32 32.3352 11.84 31.6632 11.528C31.0152 11.192 30.3312 11.024 29.6112 11.024C28.8912 11.024 28.1712 11.192 27.4512 11.528C26.7312 11.84 26.1312 12.32 25.6512 12.968C25.1712 13.592 24.9312 14.396 24.9312 15.38ZM40.2953 26V8H44.0753L44.3273 11.312V26H40.2953ZM52.4993 26V16.784H56.5313V26H52.4993ZM52.4993 16.784C52.4993 15.344 52.3313 14.24 51.9953 13.472C51.6833 12.68 51.2273 12.128 50.6273 11.816C50.0513 11.504 49.3673 11.348 48.5753 11.348C47.2313 11.324 46.1873 11.768 45.4433 12.68C44.6993 13.592 44.3273 14.9 44.3273 16.604H42.8153C42.8153 14.708 43.0913 13.088 43.6433 11.744C44.1953 10.376 44.9873 9.344 46.0193 8.648C47.0513 7.928 48.2753 7.568 49.6913 7.568C51.1313 7.568 52.3553 7.856 53.3633 8.432C54.3953 9.008 55.1753 9.908 55.7033 11.132C56.2553 12.332 56.5313 13.904 56.5313 15.848V16.784H52.4993ZM67.5636 26.432C65.8116 26.432 64.2516 26.036 62.8836 25.244C61.5396 24.428 60.4716 23.312 59.6796 21.896C58.9116 20.48 58.5276 18.848 58.5276 17C58.5276 15.152 58.9236 13.52 59.7156 12.104C60.5076 10.688 61.5876 9.584 62.9556 8.792C64.3476 7.976 65.9316 7.568 67.7076 7.568C69.3156 7.568 70.7676 7.988 72.0636 8.828C73.3596 9.644 74.3796 10.832 75.1236 12.392C75.8916 13.952 76.2756 15.812 76.2756 17.972H62.1276L62.6676 17.468C62.6676 18.572 62.9076 19.532 63.3876 20.348C63.8676 21.14 64.5036 21.752 65.2956 22.184C66.0876 22.616 66.9636 22.832 67.9236 22.832C69.0276 22.832 69.9396 22.592 70.6596 22.112C71.3796 21.608 71.9436 20.96 72.3516 20.168L75.9156 21.68C75.4116 22.64 74.7636 23.48 73.9716 24.2C73.2036 24.92 72.2796 25.472 71.1996 25.856C70.1436 26.24 68.9316 26.432 67.5636 26.432ZM62.9196 15.38L62.3436 14.876H72.4956L71.9556 15.38C71.9556 14.396 71.7396 13.592 71.3076 12.968C70.8756 12.32 70.3236 11.84 69.6516 11.528C69.0036 11.192 68.3196 11.024 67.5996 11.024C66.8796 11.024 66.1596 11.192 65.4396 11.528C64.7196 11.84 64.1196 12.32 63.6396 12.968C63.1596 13.592 62.9196 14.396 62.9196 15.38ZM94.2838 26L100.296 8H104.364L98.2438 26H94.2838ZM82.2238 26L88.0918 8H91.6558L85.8598 26H82.2238ZM81.8638 26L75.7438 8H79.8118L85.6798 26H81.8638ZM94.2478 26L88.4878 8H92.0518L97.9198 26H94.2478ZM113.055 26.432C111.159 26.432 109.707 25.964 108.699 25.028C107.715 24.068 107.223 22.7 107.223 20.924V2.384H111.219V20.168C111.219 21.008 111.411 21.644 111.795 22.076C112.203 22.508 112.791 22.724 113.559 22.724C113.799 22.724 114.063 22.676 114.351 22.58C114.639 22.484 114.963 22.304 115.323 22.04L116.799 25.1C116.175 25.532 115.551 25.856 114.927 26.072C114.303 26.312 113.679 26.432 113.055 26.432ZM104.235 11.456V8H116.079V11.456H104.235ZM121.608 16.424C121.608 14.48 121.98 12.884 122.724 11.636C123.468 10.388 124.428 9.464 125.604 8.864C126.804 8.24 128.052 7.928 129.348 7.928V11.78C128.244 11.78 127.2 11.936 126.216 12.248C125.256 12.536 124.476 13.016 123.876 13.688C123.276 14.36 122.976 15.248 122.976 16.352L121.608 16.424ZM118.944 26V8H122.976V26H118.944ZM141.922 26L141.742 22.616V16.748C141.742 15.524 141.61 14.504 141.346 13.688C141.106 12.848 140.698 12.212 140.122 11.78C139.57 11.324 138.826 11.096 137.89 11.096C137.026 11.096 136.27 11.276 135.622 11.636C134.974 11.996 134.422 12.56 133.966 13.328L130.438 12.032C130.822 11.24 131.326 10.508 131.95 9.836C132.598 9.14 133.402 8.588 134.362 8.18C135.346 7.772 136.522 7.568 137.89 7.568C139.642 7.568 141.106 7.916 142.282 8.612C143.458 9.284 144.322 10.256 144.874 11.528C145.45 12.8 145.738 14.336 145.738 16.136L145.63 26H141.922ZM136.738 26.432C134.578 26.432 132.898 25.952 131.698 24.992C130.522 24.032 129.934 22.676 129.934 20.924C129.934 19.052 130.558 17.624 131.806 16.64C133.078 15.656 134.842 15.164 137.098 15.164H141.922V18.26H138.394C136.786 18.26 135.658 18.488 135.01 18.944C134.362 19.376 134.038 20 134.038 20.816C134.038 21.512 134.314 22.064 134.866 22.472C135.442 22.856 136.234 23.048 137.242 23.048C138.154 23.048 138.946 22.844 139.618 22.436C140.29 22.028 140.806 21.488 141.166 20.816C141.55 20.144 141.742 19.388 141.742 18.548H142.93C142.93 20.996 142.438 22.928 141.454 24.344C140.47 25.736 138.898 26.432 136.738 26.432ZM161.737 26L161.557 22.652V0.799998H165.553V26H161.737ZM155.869 26.432C154.237 26.432 152.809 26.048 151.585 25.28C150.385 24.488 149.437 23.384 148.741 21.968C148.069 20.552 147.733 18.896 147.733 17C147.733 15.08 148.069 13.424 148.741 12.032C149.437 10.616 150.385 9.524 151.585 8.756C152.809 7.964 154.237 7.568 155.869 7.568C157.381 7.568 158.677 7.964 159.757 8.756C160.861 9.524 161.701 10.616 162.277 12.032C162.853 13.424 163.141 15.08 163.141 17C163.141 18.896 162.853 20.552 162.277 21.968C161.701 23.384 160.861 24.488 159.757 25.28C158.677 26.048 157.381 26.432 155.869 26.432ZM156.877 22.76C157.789 22.76 158.593 22.52 159.289 22.04C160.009 21.536 160.561 20.852 160.945 19.988C161.353 19.124 161.557 18.128 161.557 17C161.557 15.872 161.353 14.876 160.945 14.012C160.561 13.148 160.009 12.476 159.289 11.996C158.593 11.516 157.777 11.276 156.841 11.276C155.881 11.276 155.029 11.516 154.285 11.996C153.541 12.476 152.953 13.148 152.521 14.012C152.113 14.876 151.897 15.872 151.873 17C151.897 18.128 152.113 19.124 152.521 19.988C152.953 20.852 153.541 21.536 154.285 22.04C155.053 22.52 155.917 22.76 156.877 22.76ZM176.959 26.432C175.207 26.432 173.647 26.036 172.279 25.244C170.935 24.428 169.867 23.312 169.075 21.896C168.307 20.48 167.923 18.848 167.923 17C167.923 15.152 168.319 13.52 169.111 12.104C169.903 10.688 170.983 9.584 172.351 8.792C173.743 7.976 175.327 7.568 177.103 7.568C178.711 7.568 180.163 7.988 181.459 8.828C182.755 9.644 183.775 10.832 184.519 12.392C185.287 13.952 185.671 15.812 185.671 17.972H171.523L172.063 17.468C172.063 18.572 172.303 19.532 172.783 20.348C173.263 21.14 173.899 21.752 174.691 22.184C175.483 22.616 176.359 22.832 177.319 22.832C178.423 22.832 179.335 22.592 180.055 22.112C180.775 21.608 181.339 20.96 181.747 20.168L185.311 21.68C184.807 22.64 184.159 23.48 183.367 24.2C182.599 24.92 181.675 25.472 180.595 25.856C179.539 26.24 178.327 26.432 176.959 26.432ZM172.315 15.38L171.739 14.876H181.891L181.351 15.38C181.351 14.396 181.135 13.592 180.703 12.968C180.271 12.32 179.719 11.84 179.047 11.528C178.399 11.192 177.715 11.024 176.995 11.024C176.275 11.024 175.555 11.192 174.835 11.528C174.115 11.84 173.515 12.32 173.035 12.968C172.555 13.592 172.315 14.396 172.315 15.38Z" fill="#083A15"/>
</svg>
