<svg xmlns="http://www.w3.org/2000/svg" width="48" height="48" viewBox="0 0 48 48" fill="none">
  <path d="M42.9701 16.133C42.0811 16.1368 41.2209 16.449 40.5364 17.0162C39.8519 17.5834 39.3854 18.3706 39.2165 19.2434H32.1989V15.8834H38.4005V8.7938C39.3483 8.66021 40.2121 8.17741 40.8225 7.44004C41.433 6.70268 41.746 5.76391 41.7002 4.80776C41.6544 3.85161 41.2532 2.94703 40.5751 2.27134C39.8971 1.59565 38.9911 1.19757 38.0348 1.15514C37.0785 1.11271 36.1408 1.42899 35.4056 2.04197C34.6703 2.65496 34.1906 3.52045 34.0603 4.46879C33.93 5.41712 34.1587 6.37992 34.7014 7.16846C35.2441 7.95699 36.0617 8.51439 36.9941 8.7314V14.4626H31.9973C31.7567 13.8177 31.3073 13.2719 30.7205 12.9122V11.0402C30.7205 9.25794 30.0125 7.54868 28.7522 6.28844C27.492 5.02819 25.7827 4.3202 24.0005 4.3202C22.2182 4.3202 20.5089 5.02819 19.2487 6.28844C17.9885 7.54868 17.2805 9.25794 17.2805 11.0402V12.9122C16.6908 13.2711 16.238 13.8168 15.9941 14.4626H10.9973V8.7314C11.9215 8.51441 12.7315 7.96028 13.2687 7.17747C13.8059 6.39466 14.0315 5.43955 13.9015 4.4991C13.7715 3.55866 13.2951 2.7006 12.5657 2.09291C11.8363 1.48522 10.9063 1.17165 9.95786 1.21359C9.00939 1.25553 8.11073 1.64995 7.43779 2.31965C6.76485 2.98935 6.3661 3.88611 6.31959 4.83436C6.27308 5.78261 6.58216 6.71408 7.18633 7.44642C7.7905 8.17876 8.64625 8.65924 9.58605 8.7938V15.8738H15.8261V19.2338H8.77966C8.60379 18.293 8.08293 17.4518 7.31915 16.875C6.55538 16.2982 5.60374 16.0275 4.65073 16.1158C3.69772 16.2041 2.81203 16.6451 2.16724 17.3524C1.52245 18.0597 1.16504 18.9823 1.16504 19.9394C1.16504 20.8965 1.52245 21.8191 2.16724 22.5264C2.81203 23.2337 3.69772 23.6747 4.65073 23.763C5.60374 23.8513 6.55538 23.5806 7.31915 23.0038C8.08293 22.427 8.60379 21.5858 8.77966 20.645H15.8021V23.4482C15.8033 24.2651 16.1284 25.0482 16.706 25.6258C17.2837 26.2034 18.0668 26.5285 18.8837 26.5298H21.4469V35.7218L20.4869 34.397C20.2541 34.0716 19.9594 33.7955 19.6195 33.5845C19.2797 33.3736 18.9015 33.2319 18.5067 33.1676C18.1118 33.1034 17.7082 33.1179 17.319 33.2102C16.9298 33.3026 16.5627 33.471 16.2389 33.7058C15.5952 34.1784 15.1627 34.8846 15.0344 35.6727C14.906 36.4608 15.092 37.2678 15.5525 37.9202L21.6005 46.4978C21.6643 46.5916 21.7502 46.6683 21.8507 46.721C21.9511 46.7737 22.063 46.8009 22.1765 46.8002H34.4021C34.9137 46.7991 35.4181 46.6798 35.876 46.4517C36.334 46.2236 36.733 45.8927 37.0421 45.485L38.3237 43.7858C38.7547 43.2128 38.9888 42.5156 38.9909 41.7986V35.2658C38.9896 34.5558 38.707 33.8753 38.205 33.3733C37.7029 32.8713 37.0224 32.5887 36.3125 32.5874H35.1701C35.0324 31.9642 34.6862 31.4067 34.1887 31.007C33.6912 30.6073 33.0722 30.3893 32.4341 30.389H30.7589C30.5112 29.9122 30.138 29.5121 29.6794 29.2321C29.2209 28.9521 28.6945 28.8027 28.1573 28.8002H27.0293V26.5394H29.1173C29.9342 26.5381 30.7172 26.2131 31.2949 25.6354C31.8725 25.0578 32.1976 24.2747 32.1989 23.4578V20.6402H39.2165C39.3463 21.36 39.679 22.0277 40.1754 22.5648C40.6718 23.102 41.3113 23.4862 42.0187 23.6722C42.726 23.8582 43.4718 23.8384 44.1683 23.615C44.8647 23.3917 45.4829 22.974 45.9501 22.4113C46.4172 21.8485 46.714 21.164 46.8054 20.4384C46.8968 19.7127 46.779 18.976 46.466 18.315C46.1529 17.654 45.6576 17.0961 45.0383 16.707C44.419 16.3179 43.7014 16.1138 42.9701 16.1186V16.133ZM35.4629 5.0162C35.4629 4.54152 35.6036 4.0775 35.8673 3.68283C36.131 3.28815 36.5059 2.98053 36.9444 2.79888C37.383 2.61723 37.8655 2.56971 38.3311 2.66231C38.7966 2.75491 39.2243 2.98349 39.5599 3.31914C39.8956 3.65478 40.1241 4.08242 40.2167 4.54798C40.3093 5.01353 40.2618 5.49609 40.0802 5.93464C39.8985 6.37318 39.5909 6.74801 39.1962 7.01172C38.8015 7.27544 38.3375 7.4162 37.8629 7.4162C37.2263 7.4162 36.6159 7.16334 36.1658 6.71325C35.7157 6.26316 35.4629 5.65271 35.4629 5.0162ZM7.72366 5.0162C7.72366 4.54152 7.86441 4.0775 8.12813 3.68283C8.39184 3.28815 8.76667 2.98053 9.20521 2.79888C9.64376 2.61723 10.1263 2.56971 10.5919 2.66231C11.0574 2.75491 11.4851 2.98349 11.8207 3.31914C12.1564 3.65478 12.3849 4.08242 12.4775 4.54798C12.5701 5.01353 12.5226 5.49609 12.341 5.93464C12.1593 6.37318 11.8517 6.74801 11.457 7.01172C11.0623 7.27544 10.5983 7.4162 10.1237 7.4162C9.48714 7.4162 8.87669 7.16334 8.4266 6.71325C7.97651 6.26316 7.72366 5.65271 7.72366 5.0162ZM5.03085 22.3586C4.55618 22.3586 4.09216 22.2178 3.69749 21.9541C3.30281 21.6904 2.99519 21.3156 2.81354 20.877C2.63189 20.4385 2.58437 19.9559 2.67697 19.4904C2.76958 19.0248 2.99815 18.5972 3.3338 18.2615C3.66945 17.9259 4.09708 17.6973 4.56264 17.6047C5.02819 17.5121 5.51075 17.5596 5.9493 17.7413C6.38784 17.9229 6.76267 18.2306 7.02638 18.6252C7.2901 19.0199 7.43085 19.4839 7.43085 19.9586C7.43085 20.5951 7.178 21.2056 6.72791 21.6557C6.27782 22.1057 5.66737 22.3586 5.03085 22.3586ZM18.7205 11.0402C18.7205 9.63985 19.2767 8.29686 20.2669 7.30667C21.2571 6.31648 22.6001 5.7602 24.0005 5.7602C25.4008 5.7602 26.7438 6.31648 27.734 7.30667C28.7242 8.29686 29.2805 9.63985 29.2805 11.0402V12.4802H18.7205V11.0402ZM28.1573 30.2402C28.5638 30.2415 28.9533 30.4039 29.2403 30.6918C29.5273 30.9797 29.6885 31.3697 29.6885 31.7762V34.9202H31.0997V32.0402L30.9317 31.8194H32.4341C32.8045 31.8194 33.1598 31.9666 33.4217 32.2285C33.6837 32.4905 33.8309 32.8457 33.8309 33.2162V36.5426H35.2373V33.9986H36.3125C36.6485 33.9986 36.9709 34.1321 37.2085 34.3697C37.4461 34.6074 37.5797 34.9297 37.5797 35.2658V41.7986C37.5793 42.2096 37.4445 42.6091 37.1957 42.9362L35.9141 44.6402C35.7362 44.8728 35.5075 45.0616 35.2454 45.1922C34.9833 45.3228 34.6949 45.3918 34.4021 45.3938H22.5173L16.7045 37.0898C16.4626 36.7406 16.3668 36.3106 16.4377 35.8918C16.5085 35.4729 16.7404 35.0984 17.0837 34.8482C17.2557 34.7216 17.4514 34.6308 17.6592 34.5814C17.867 34.5319 18.0826 34.5247 18.2933 34.5602C18.5048 34.5941 18.7075 34.6697 18.8896 34.7826C19.0717 34.8955 19.2296 35.0434 19.3541 35.2178L21.6005 38.3282C21.6888 38.4487 21.8127 38.5386 21.9548 38.5851C22.0969 38.6315 22.2499 38.6324 22.3925 38.5874C22.5329 38.54 22.6549 38.4496 22.741 38.3289C22.8272 38.2083 22.8732 38.0636 22.8725 37.9154V23.2226C22.8614 23.0345 22.8888 22.8462 22.9532 22.6691C23.0175 22.492 23.1173 22.33 23.2466 22.1929C23.3758 22.0558 23.5317 21.9466 23.7047 21.8719C23.8776 21.7973 24.0641 21.7588 24.2525 21.7588C24.4409 21.7588 24.6273 21.7973 24.8002 21.8719C24.9732 21.9466 25.1291 22.0558 25.2583 22.1929C25.3876 22.33 25.4874 22.492 25.5518 22.6691C25.6161 22.8462 25.6436 23.0345 25.6325 23.2226V32.8802H27.0437V30.2402H28.1573ZM30.7877 23.4674C30.7877 23.9104 30.6117 24.3353 30.2984 24.6485C29.9851 24.9618 29.5603 25.1378 29.1173 25.1378H27.0293V23.2178C26.9994 22.4975 26.6922 21.8167 26.1721 21.3177C25.6519 20.8186 24.9589 20.54 24.2381 20.54C23.5172 20.54 22.8242 20.8186 22.304 21.3177C21.7839 21.8167 21.4767 22.4975 21.4469 23.2178V25.1378H18.8837C18.4406 25.1378 18.0158 24.9618 17.7025 24.6485C17.3892 24.3353 17.2133 23.9104 17.2133 23.4674V15.5474C17.2133 15.1044 17.3892 14.6795 17.7025 14.3662C18.0158 14.053 18.4406 13.877 18.8837 13.877H29.1173C29.5603 13.877 29.9851 14.053 30.2984 14.3662C30.6117 14.6795 30.7877 15.1044 30.7877 15.5474V23.4674ZM42.9701 22.3682C42.4954 22.3682 42.0314 22.2274 41.6367 21.9637C41.242 21.7 40.9344 21.3252 40.7527 20.8866C40.5711 20.4481 40.5236 19.9655 40.6162 19.5C40.7088 19.0344 40.9374 18.6068 41.273 18.2711C41.6086 17.9355 42.0363 17.7069 42.5018 17.6143C42.9674 17.5217 43.45 17.5692 43.8885 17.7509C44.327 17.9325 44.7019 18.2401 44.9656 18.6348C45.2293 19.0295 45.3701 19.4935 45.3701 19.9682C45.3675 20.6031 45.1135 21.211 44.6637 21.659C44.2139 22.1071 43.6049 22.3586 42.9701 22.3586V22.3682Z" fill="#00CC33"/>
</svg>