<svg xmlns="http://www.w3.org/2000/svg" width="9" height="14" viewBox="0 0 9 14" fill="none">
  <g clip-path="url(#clip0_2720_28)">
    <path d="M8.94945 2.94V9.065C8.94945 9.32021 8.86733 9.52985 8.70308 9.69391C8.53883 9.85797 8.32895 9.94 8.07345 9.94C7.81795 9.94 7.60808 9.85797 7.44383 9.69391C7.27958 9.52985 7.19745 9.32021 7.19745 9.065V5.04547L1.69508 10.5689C1.51258 10.733 1.3027 10.815 1.06545 10.815C0.828203 10.815 0.618328 10.733 0.435828 10.5689C0.271578 10.3866 0.189453 10.177 0.189453 9.94C0.189453 9.70302 0.271578 9.49339 0.435828 9.3111L5.96558 3.815H1.94145C1.68595 3.815 1.47608 3.73297 1.31183 3.56891C1.14758 3.40485 1.06545 3.19521 1.06545 2.94C1.06545 2.68479 1.14758 2.47516 1.31183 2.3111C1.47608 2.14703 1.68595 2.065 1.94145 2.065H8.07345C8.32895 2.065 8.53883 2.14703 8.70308 2.3111C8.86733 2.47516 8.94945 2.68479 8.94945 2.94Z" fill="#7064E9"/>
  </g>
  <defs>
    <clipPath id="clip0_2720_28">
      <rect width="8.76" height="14.1" fill="white" transform="matrix(1 0 0 -1 0.189453 13.49)"/>
    </clipPath>
  </defs>
</svg>