<svg xmlns="http://www.w3.org/2000/svg" width="60" height="60" viewBox="0 0 60 60" fill="none">
  <path d="M42.1872 42.1406C42.0241 42.1407 41.8638 42.098 41.7222 42.0169L32.0791 36.5062C31.9692 36.4468 31.8722 36.366 31.7939 36.2686C31.7157 36.1711 31.6577 36.059 31.6234 35.9388C31.5891 35.8187 31.5791 35.6928 31.5942 35.5688C31.6092 35.4447 31.6489 35.3249 31.7109 35.2163C31.7729 35.1078 31.856 35.0128 31.9552 34.9369C32.0545 34.8609 32.1679 34.8056 32.2889 34.7742C32.4099 34.7427 32.5359 34.7357 32.6596 34.7537C32.7833 34.7717 32.9021 34.8142 33.0091 34.8787L42.1872 40.1231L53.4222 33.7031L42.1872 27.2831L29.5272 34.5169C29.4204 34.5779 29.3025 34.6173 29.1804 34.6329C29.0583 34.6484 28.9344 34.6397 28.8156 34.6073C28.6969 34.5749 28.5857 34.5195 28.4884 34.4441C28.3911 34.3688 28.3096 34.275 28.2485 34.1681C28.1874 34.0612 28.148 33.9434 28.1325 33.8213C28.117 33.6992 28.1256 33.5752 28.158 33.4565C28.1904 33.3378 28.2459 33.2266 28.3212 33.1292C28.3966 33.0319 28.4904 32.9504 28.5972 32.8894L41.7222 25.3894C41.8638 25.3083 42.0241 25.2656 42.1872 25.2656C42.3504 25.2656 42.5107 25.3083 42.6522 25.3894L55.7772 32.8894C55.9206 32.9714 56.0398 33.0899 56.1227 33.2327C56.2056 33.3756 56.2492 33.5379 56.2492 33.7031C56.2492 33.8683 56.2056 34.0306 56.1227 34.1735C56.0398 34.3164 55.9206 34.4348 55.7772 34.5169L42.6522 42.0169C42.5107 42.098 42.3504 42.1407 42.1872 42.1406Z" fill="#00CC33"/>
  <path d="M42.1875 58.0781C42.0642 58.0788 41.9419 58.0551 41.8279 58.0082C41.7138 57.9614 41.6101 57.8923 41.5229 57.8051C41.4357 57.7179 41.3667 57.6143 41.3199 57.5002C41.273 57.3861 41.2493 57.2639 41.25 57.1406V41.2031C41.2501 41.0378 41.2938 40.8755 41.3768 40.7326C41.4598 40.5897 41.579 40.4713 41.7225 40.3893L54.8475 32.8893C54.9903 32.8086 55.1516 32.7663 55.3156 32.7666C55.4796 32.7669 55.6407 32.8099 55.7831 32.8912C56.0719 33.0599 56.25 33.3693 56.25 33.7031V49.6406C56.25 49.8058 56.2062 49.9681 56.1233 50.111C56.0403 50.2539 55.921 50.3723 55.7775 50.4543L42.6525 57.9543C42.511 58.0355 42.3507 58.0781 42.1875 58.0781ZM43.125 41.7468V55.5243L54.375 49.0968V35.3193L43.125 41.7468Z" fill="#00CC33"/>
  <path d="M42.1875 58.0783C42.0244 58.0784 41.864 58.0357 41.7225 57.9546L28.5975 50.4546C28.454 50.3726 28.3347 50.2542 28.2518 50.1113C28.1688 49.9684 28.1251 49.8061 28.125 49.6408V33.7033C28.1251 33.5391 28.1682 33.3779 28.2502 33.2356C28.3321 33.0933 28.45 32.9751 28.592 32.8927C28.734 32.8103 28.8952 32.7667 29.0593 32.7661C29.2235 32.7656 29.3849 32.8081 29.5275 32.8896L42.6525 40.3896C42.796 40.4715 42.9153 40.59 42.9982 40.7329C43.0812 40.8758 43.1249 41.0381 43.125 41.2033V57.1408C43.124 57.3891 43.0249 57.627 42.8493 57.8026C42.6737 57.9782 42.4358 58.0773 42.1875 58.0783ZM30 49.0971L41.25 55.5246V41.7471L30 35.3196V49.0971Z" fill="#00CC33"/>
  <path d="M15.9375 58.0781C15.8142 58.0788 15.692 58.0551 15.5779 58.0082C15.4638 57.9614 15.3601 57.8923 15.2729 57.8051C15.1857 57.7179 15.1167 57.6143 15.0699 57.5002C15.023 57.3861 14.9993 57.2639 15 57.1406V41.2031C15.0001 41.0378 15.0438 40.8755 15.1268 40.7326C15.2098 40.5897 15.329 40.4713 15.4725 40.3893L28.5975 32.8893C28.7403 32.8086 28.9016 32.7663 29.0656 32.7666C29.2296 32.7669 29.3907 32.8099 29.5331 32.8912C29.8219 33.0599 30 33.3693 30 33.7031V49.6406C30 49.8058 29.9562 49.9681 29.8733 50.111C29.7903 50.2539 29.671 50.3723 29.5275 50.4543L16.4025 57.9543C16.261 58.0355 16.1007 58.0781 15.9375 58.0781ZM16.875 41.7468V55.5243L28.125 49.0968V35.3193L16.875 41.7468Z" fill="#00CC33"/>
  <path d="M15.9375 58.0781C15.7744 58.0782 15.614 58.0355 15.4725 57.9544L2.3475 50.4544C2.20401 50.3724 2.08474 50.254 2.00176 50.1111C1.91878 49.9681 1.87505 49.8059 1.875 49.6406V33.7031C1.87505 33.5389 1.91822 33.3776 2.00017 33.2354C2.08213 33.0931 2.20001 32.9749 2.34201 32.8925C2.48401 32.8101 2.64516 32.7665 2.80933 32.7659C2.9735 32.7654 3.13494 32.8079 3.2775 32.8894L16.4025 40.3894C16.546 40.4713 16.6653 40.5898 16.7482 40.7327C16.8312 40.8756 16.8749 41.0379 16.875 41.2031V57.1406C16.874 57.3889 16.7749 57.6268 16.5993 57.8024C16.4237 57.978 16.1858 58.0771 15.9375 58.0781ZM3.75 49.0969L15 55.5244V41.7469L3.75 35.3194V49.0969ZM29.0625 18.75C28.8994 18.7501 28.739 18.7074 28.5975 18.6262L15.4725 11.1262C15.3291 11.0442 15.2099 10.9257 15.1271 10.7828C15.0442 10.6399 15.0005 10.4777 15.0005 10.3125C15.0005 10.1473 15.0442 9.98502 15.1271 9.84212C15.2099 9.69923 15.3291 9.58076 15.4725 9.49873L28.5975 1.99873C28.7391 1.91765 28.8994 1.875 29.0625 1.875C29.2256 1.875 29.3859 1.91765 29.5275 1.99873L42.6525 9.49873C42.7959 9.58076 42.9151 9.69923 42.9979 9.84212C43.0808 9.98502 43.1245 10.1473 43.1245 10.3125C43.1245 10.4777 43.0808 10.6399 42.9979 10.7828C42.9151 10.9257 42.7959 11.0442 42.6525 11.1262L29.5275 18.6262C29.386 18.7074 29.2257 18.7501 29.0625 18.75ZM17.8275 10.3125L29.0625 16.7325L40.2975 10.3125L29.0625 3.89248L17.8275 10.3125Z" fill="#00CC33"/>
  <path d="M29.0625 34.6874C28.9392 34.6882 28.817 34.6644 28.7029 34.6176C28.5888 34.5707 28.4851 34.5017 28.3979 34.4145C28.3107 34.3273 28.2417 34.2237 28.1949 34.1096C28.148 33.9955 28.1243 33.8732 28.125 33.7499V17.8124C28.1251 17.6472 28.1688 17.4849 28.2518 17.342C28.3348 17.1991 28.454 17.0806 28.5975 16.9987L41.7225 9.49868C41.8653 9.41793 42.0266 9.37565 42.1906 9.37598C42.3546 9.37631 42.5157 9.41923 42.6581 9.50055C42.9469 9.6693 43.125 9.97868 43.125 10.3124V26.2499C43.125 26.4152 43.0812 26.5775 42.9983 26.7204C42.9153 26.8633 42.796 26.9817 42.6525 27.0637L29.5275 34.5637C29.386 34.6448 29.2257 34.6875 29.0625 34.6874ZM30 18.3562V32.1337L41.25 25.7062V11.9287L30 18.3562Z" fill="#00CC33"/>
  <path d="M29.0625 34.6874C28.8139 34.6874 28.5754 34.5887 28.3996 34.4129C28.2238 34.237 28.125 33.9986 28.125 33.7499V18.3562L16.875 11.9287V21.5624C16.875 21.8111 16.7763 22.0495 16.6005 22.2254C16.4246 22.4012 16.1862 22.4999 15.9375 22.4999C15.6889 22.4999 15.4505 22.4012 15.2746 22.2254C15.0988 22.0495 15 21.8111 15 21.5624V10.3124C14.9984 10.1476 15.0405 9.98527 15.122 9.84201C15.2035 9.69874 15.3216 9.57967 15.4642 9.49694C15.6068 9.41421 15.7688 9.37079 15.9336 9.3711C16.0985 9.3714 16.2603 9.41543 16.4025 9.49869L29.5275 16.9987C29.671 17.0807 29.7903 17.1991 29.8733 17.342C29.9563 17.4849 30 17.6472 30 17.8124V33.7499C30 33.9986 29.9013 34.237 29.7255 34.4129C29.5496 34.5887 29.3112 34.6874 29.0625 34.6874Z" fill="#00CC33"/>
  <path d="M15.9379 42.1406C15.7748 42.1407 15.6145 42.098 15.4729 42.0169L2.34795 34.5169C2.20456 34.4348 2.08539 34.3164 2.00251 34.1735C1.91963 34.0306 1.87598 33.8683 1.87598 33.7031C1.87598 33.5379 1.91963 33.3756 2.00251 33.2327C2.08539 33.0899 2.20456 32.9714 2.34795 32.8894L15.4729 25.3894C15.6145 25.3083 15.7748 25.2656 15.9379 25.2656C16.1011 25.2656 16.2614 25.3083 16.4029 25.3894L25.1048 30.3619C25.2148 30.4213 25.3117 30.5021 25.39 30.5995C25.4683 30.697 25.5263 30.8091 25.5606 30.9293C25.5949 31.0494 25.6048 31.1753 25.5898 31.2993C25.5748 31.4234 25.5351 31.5432 25.4731 31.6517C25.4111 31.7603 25.328 31.8553 25.2287 31.9312C25.1294 32.0072 25.016 32.0625 24.895 32.0939C24.7741 32.1254 24.6481 32.1323 24.5244 32.1144C24.4007 32.0964 24.2818 32.0539 24.1748 31.9894L15.9379 27.2831L4.70295 33.7031L15.9379 40.1231L28.5979 32.8894C28.8138 32.766 29.0697 32.7335 29.3096 32.7989C29.5494 32.8643 29.7534 33.0223 29.8767 33.2381C30 33.4539 30.0326 33.7099 29.9672 33.9497C29.9018 34.1895 29.7438 34.3935 29.5279 34.5169L16.4029 42.0169C16.2614 42.098 16.1011 42.1407 15.9379 42.1406Z" fill="#00CC33"/>
</svg>