<svg xmlns="http://www.w3.org/2000/svg" width="47" height="47" viewBox="0 0 47 47" fill="none">
  <circle cx="23.5" cy="23.5" r="23.5" fill="#F0FFF4"/>
  <rect x="14.3898" y="19.5388" width="16.3325" height="13.0435" rx="1" fill="#AEE4BD"/>
  <path d="M14.3898 22.0223H30.7114V24.8867H14.3898V22.0223Z" fill="white"/>
  <path d="M17.3128 15.1599L16.9814 19.0264L29.8642 19.3059C30.5814 19.5295 30.7218 20.2531 30.7023 20.5869V29.0885H31.248C32.3394 29.0885 32.8332 28.2811 32.9436 27.8773L33.6452 18.2578C33.8168 16.4876 33.2489 16.014 32.9436 15.9984L19.3982 14.4612C17.917 14.2189 17.3907 14.8261 17.3128 15.1599Z" fill="#8FC9A0"/>
  <path d="M33.6029 16.0371C33.3443 15.6718 32.9822 15.4486 32.5832 15.4088L18.5288 14.0064C18.1298 13.9665 17.7418 14.1148 17.436 14.4238C17.1316 14.7316 16.9451 15.1621 16.9108 15.6367L16.628 18.807H15.499C14.6724 18.807 14 19.6106 14 20.5984V31.1124C14 32.1002 14.6724 32.9038 15.499 32.9038H29.6022C30.4288 32.9038 31.1012 32.1002 31.1012 31.1124V29.4069L31.6017 29.4568C31.6439 29.461 31.6859 29.4631 31.7275 29.4631C32.4981 29.4631 33.1549 28.7546 33.2202 27.8207L33.9523 17.3431C33.9856 16.8662 33.8615 16.4024 33.6029 16.0371ZM30.3216 31.1124C30.3216 31.5865 29.9989 31.9721 29.6022 31.9721H15.499C15.1023 31.9721 14.7796 31.5865 14.7796 31.1124V20.5984C14.7796 20.1243 15.1023 19.7387 15.499 19.7387H29.6022C29.9989 19.7387 30.3216 20.1243 30.3216 20.5984V31.1124ZM33.1754 17.2655L32.4433 27.7431C32.4103 28.2155 32.0618 28.5679 31.6666 28.5283L31.1012 28.4719V20.5984C31.1012 19.6106 30.4288 18.807 29.6022 18.807H17.412L17.6864 15.7306C17.6867 15.7271 17.687 15.7236 17.6872 15.72C17.7202 15.2476 18.0686 14.8952 18.464 14.9348L32.5183 16.3373C32.7098 16.3564 32.8837 16.4635 33.0077 16.6388C33.1318 16.8141 33.1914 17.0367 33.1754 17.2655Z" fill="#77B589"/>
  <path d="M28.6903 26.7375H24.9388C24.7235 26.7375 24.549 26.9461 24.549 27.2034V30.1283C24.549 30.3856 24.7235 30.5942 24.9388 30.5942H28.6903C28.9056 30.5942 29.0801 30.3856 29.0801 30.1283V27.2034C29.0801 26.9461 28.9056 26.7375 28.6903 26.7375ZM28.3005 29.6625H25.3286V27.6692H28.3005V29.6625Z" fill="#77B589"/>
  <rect x="24.8779" y="27" width="4.1838" height="3" rx="1.5" fill="#77B589"/>
</svg>