<svg xmlns="http://www.w3.org/2000/svg" width="55" height="55" viewBox="0 0 55 55" fill="none">
  <g clip-path="url(#clip0_2585_2124)">
    <path d="M9.00677 46.6089C9.60005 46.6089 10.081 46.1279 10.081 45.5347C10.081 44.9414 9.60005 44.4604 9.00677 44.4604C8.4135 44.4604 7.93256 44.9414 7.93256 45.5347C7.93256 46.1279 8.4135 46.6089 9.00677 46.6089Z" fill="#00CC33"/>
    <path d="M13.2424 36.5048C13.4642 37.0475 14.1026 37.3161 14.6459 37.0939L29.3486 31.0839C29.8989 30.859 30.1626 30.2305 29.9377 29.6803C29.7127 29.1301 29.0848 28.8665 28.534 29.0912L13.8315 35.1013C13.2811 35.3261 13.0174 35.9545 13.2424 36.5048ZM24.6956 29.3397C26.3458 27.6895 26.4854 25.144 25.0068 23.6655C23.528 22.1868 20.9827 22.3263 19.3325 23.9767C18.5544 24.7548 18.0828 25.7567 18.0047 26.7978C17.9221 27.8995 18.2831 28.9128 19.0212 29.6509C19.7716 30.4012 20.824 30.7461 21.8744 30.6674C22.9154 30.5894 23.9173 30.1179 24.6956 29.3397ZM20.5434 28.1286C20.2556 27.8408 20.1164 27.4253 20.1513 26.9586C20.1908 26.4312 20.4406 25.9127 20.8546 25.4988C21.3227 25.0307 21.9136 24.7863 22.4527 24.7863C22.8474 24.7863 23.2142 24.9175 23.4845 25.1876C24.1238 25.8268 23.9841 27.0066 23.1733 27.8174C23.1733 27.9232 22.8204 28.1157 22.7432 28.1654C22.4808 28.3341 22.1848 28.4534 21.876 28.5018C21.4021 28.576 20.8916 28.4768 20.5434 28.1286ZM18.1216 36.9273C16.4715 38.5775 16.3318 41.123 17.8105 42.6016C18.4966 43.2877 19.4124 43.6253 20.3619 43.6253C21.4585 43.6253 22.6002 43.1748 23.4847 42.2904C24.2629 41.5122 24.7345 40.5102 24.8125 39.4691C24.8951 38.3674 24.534 37.3541 23.7959 36.616C23.0578 35.8779 22.0453 35.5172 20.9428 35.5994C19.9017 35.6775 18.8997 36.1491 18.1216 36.9273ZM21.2436 37.7409C22.1247 37.7409 22.7307 38.4409 22.6657 39.3083C22.6262 39.8358 22.3764 40.3542 21.9624 40.7682C21.1515 41.579 19.9719 41.7187 19.3325 41.0794C18.6933 40.4401 18.8329 39.2603 19.6437 38.4495C20.0652 38.0282 20.6401 37.7409 21.2436 37.7409Z" fill="#00CC33"/>
    <path d="M53.9236 21.0902C52.021 21.0902 49.9732 20.0087 49.9732 17.6344V8.67874C49.9732 4.14607 46.2856 0.458496 41.7529 0.458496C37.2204 0.458496 33.5328 4.14607 33.5328 8.67874V10.6503L24.8429 10.0567C24.6896 10.0462 24.5357 10.0687 24.3918 10.1226C24.2478 10.1766 24.1171 10.2607 24.0085 10.3695L1.29464 33.0831C-0.431628 34.8094 -0.431628 37.6183 1.29464 39.3447L4.81529 42.8653C5.23563 43.2857 5.91711 43.2857 6.33745 42.8653C6.7578 42.445 6.7578 41.7635 6.33745 41.3432L2.81681 37.8226C1.92983 36.9356 1.92983 35.4924 2.81681 34.6054L25.1842 12.2379L33.5325 12.8081V16.8025C33.0561 16.9653 32.6235 17.2352 32.2679 17.5915C30.9772 18.8823 30.9772 20.9825 32.2679 22.2733C32.9133 22.9187 33.7611 23.2413 34.6087 23.2413C35.4566 23.2413 36.3043 22.9186 36.9497 22.2733C38.2404 20.9825 38.2404 18.8823 36.9497 17.5915C36.5941 17.2353 36.1615 16.9654 35.6852 16.8025V12.9551L40.9288 13.3132L42.2956 29.3648L19.9361 51.7244C19.049 52.6114 17.6059 52.6113 16.7189 51.7244L13.1814 48.1869C12.7611 47.7666 12.0795 47.7666 11.6591 48.1869C11.2388 48.6072 11.2388 49.2888 11.6591 49.7092L15.1966 53.2467C16.0598 54.1098 17.1936 54.5413 18.3273 54.5413C19.4611 54.5413 20.5949 54.1097 21.4582 53.2466L44.1719 30.5331C44.2827 30.4222 44.368 30.2885 44.4218 30.1412C44.4755 29.994 44.4965 29.8368 44.4832 29.6806L42.9956 12.2109C42.9738 11.9548 42.861 11.715 42.6778 11.5348C42.4945 11.3546 42.2529 11.2459 41.9965 11.2284L35.6853 10.7973V8.67874C35.6853 5.33309 38.4073 2.61112 41.7529 2.61112C45.0986 2.61112 47.8204 5.33309 47.8204 8.67874V17.6344C47.8204 20.8842 50.3872 23.2429 53.9236 23.2429C54.518 23.2429 55 22.761 55 22.1665C55 21.5721 54.5181 21.0902 53.9236 21.0902ZM35.4276 20.751C34.9763 21.2024 34.2417 21.2025 33.7903 20.751C33.3389 20.2995 33.3389 19.5651 33.7903 19.1137C33.8977 19.0061 34.0254 18.9208 34.1659 18.8627C34.3064 18.8046 34.457 18.7748 34.6091 18.7751C34.9054 18.7751 35.202 18.8879 35.4277 19.1136C35.879 19.5651 35.879 20.2996 35.4276 20.751Z" fill="#00CC33"/>
  </g>
  <defs>
    <clipPath id="clip0_2585_2124">
      <rect width="55" height="55" fill="white"/>
    </clipPath>
  </defs>
</svg>