<svg xmlns="http://www.w3.org/2000/svg" width="15" height="15" viewBox="0 0 15 15" fill="none">
  <g clip-path="url(#clip0_2683_55)">
    <mask id="mask0_2683_55" style="mask-type:luminance" maskUnits="userSpaceOnUse" x="0" y="0" width="15" height="15">
      <path d="M14.7202 0.77002H0.720215V14.77H14.7202V0.77002Z" fill="white"/>
    </mask>
    <g mask="url(#mask0_2683_55)">
      <path d="M14.5613 7.3847L14.56 7.38333L12.9194 5.74271C12.7058 5.52912 12.3596 5.52912 12.146 5.74271C11.9325 5.95629 11.9325 6.30254 12.146 6.5161L12.853 7.22315H5.64209C5.34005 7.22315 5.09521 7.46799 5.09521 7.77003C5.09521 8.07207 5.34005 8.3169 5.64209 8.3169H12.8531L12.146 9.02396C11.9325 9.23754 11.9325 9.58379 12.146 9.79735C12.2528 9.90412 12.3928 9.95753 12.5327 9.95753C12.6727 9.95753 12.8126 9.90412 12.9194 9.79735L14.5601 8.15672L14.5613 8.15536C14.7734 7.94172 14.7721 7.59689 14.5613 7.3847Z" fill="#CCCEEF"/>
      <path d="M7.61084 14.77H3.45459C1.94682 14.77 0.720215 13.5434 0.720215 12.0356V3.5044C0.720215 1.99666 1.94682 0.77002 3.45459 0.77002H7.61084C9.1186 0.77002 10.3452 1.99666 10.3452 3.5044V5.58252C10.3452 5.88456 10.1004 6.1294 9.79834 6.1294C9.49631 6.1294 9.25146 5.88456 9.25146 5.58252V3.5044C9.25146 2.59975 8.51548 1.86377 7.61084 1.86377H3.45459C2.54994 1.86377 1.81396 2.59975 1.81396 3.5044V12.0356C1.81396 12.9403 2.54994 13.6762 3.45459 13.6762H7.61084C8.51548 13.6762 9.25146 12.9403 9.25146 12.0356V9.95752C9.25146 9.65548 9.49631 9.41064 9.79834 9.41064C10.1004 9.41064 10.3452 9.65548 10.3452 9.95752V12.0356C10.3452 13.5434 9.1186 14.77 7.61084 14.77Z" fill="#CCCEEF"/>
    </g>
  </g>
  <defs>
    <clipPath id="clip0_2683_55">
      <rect width="14" height="14" fill="white" transform="translate(0.720215 0.77002)"/>
    </clipPath>
  </defs>
</svg>