<svg width="61" height="61" viewBox="0 0 61 61" fill="none" xmlns="http://www.w3.org/2000/svg">
<g clip-path="url(#clip0_2720_68)">
<g clip-path="url(#clip1_2720_68)">
<g clip-path="url(#clip2_2720_68)">
<g clip-path="url(#clip3_2720_68)">
<path d="M60.3398 30.84C60.3398 14.5476 47.1322 1.34003 30.8398 1.34003C14.5474 1.34003 1.33984 14.5476 1.33984 30.84C1.33984 47.1324 14.5474 60.34 30.8398 60.34C47.1322 60.34 60.3398 47.1324 60.3398 30.84Z" fill="url(#paint0_linear_2720_68)" stroke="url(#paint1_linear_2720_68)"/>
<mask id="mask0_2720_68" style="mask-type:alpha" maskUnits="userSpaceOnUse" x="0" y="0" width="61" height="61">
<path d="M60.8398 30.84C60.8398 14.2715 47.4084 0.840027 30.8398 0.840027C14.2713 0.840027 0.839844 14.2715 0.839844 30.84C0.839844 47.4086 14.2713 60.84 30.8398 60.84C47.4084 60.84 60.8398 47.4086 60.8398 30.84Z" fill="url(#paint2_linear_2720_68)"/>
</mask>
<g mask="url(#mask0_2720_68)">
<g filter="url(#filter0_f_2720_68)">
<path d="M30.8717 39.84H30.5676C21.3291 39.84 13.8398 47.3293 13.8398 56.5678C13.8398 65.8063 21.3291 73.2956 30.5676 73.2956H30.8717C40.1103 73.2956 47.5995 65.8063 47.5995 56.5678C47.5995 47.3293 40.1103 39.84 30.8717 39.84Z" fill="url(#paint3_linear_2720_68)"/>
</g>
<path d="M39.2601 24.8737L40.876 23.2578L39.2859 21.6672L37.5573 23.3958C35.9781 22.2767 34.1353 21.587 32.2094 21.3942V19.089H34.4584V16.84H27.7114V19.089H29.9604V21.3942C28.0345 21.587 26.1917 22.2767 24.6126 23.3958L22.8839 21.6672L21.2939 23.2578L22.9098 24.8737C21.4014 26.4707 20.3939 28.4746 20.0115 30.6378C19.6292 32.801 19.8888 35.0288 20.7584 37.0461C21.6279 39.0634 23.0692 40.7818 24.9044 41.9892C26.7396 43.1966 28.8882 43.84 31.0849 43.84C33.2817 43.84 35.4303 43.1966 37.2655 41.9892C39.1006 40.7818 40.542 39.0634 41.4115 37.0461C42.281 35.0288 42.5407 32.801 42.1583 30.6378C41.776 28.4746 40.7684 26.4707 39.2601 24.8737ZM31.0849 41.579C29.3057 41.579 27.5664 41.0514 26.087 40.0629C24.6076 39.0744 23.4546 37.6695 22.7737 36.0257C22.0928 34.3819 21.9147 32.5731 22.2618 30.828C22.6089 29.0829 23.4657 27.48 24.7238 26.2219C25.9819 24.9638 27.5848 24.107 29.3299 23.7599C31.075 23.4128 32.8837 23.5909 34.5276 24.2718C36.1714 24.9527 37.5764 26.1057 38.5648 27.5851C39.5533 29.0645 40.0809 30.8038 40.0809 32.583C40.0783 34.9681 39.1296 37.2547 37.4431 38.9412C35.7566 40.6277 33.47 41.5764 31.0849 41.579Z" fill="url(#paint4_linear_2720_68)"/>
<path d="M31.085 25.8361V32.5831H24.3379C24.3379 33.9175 24.7337 35.222 25.475 36.3315C26.2164 37.4411 27.2701 38.3059 28.503 38.8165C29.7358 39.3272 31.0924 39.4608 32.4012 39.2005C33.71 38.9401 34.9122 38.2976 35.8558 37.354C36.7994 36.4104 37.442 35.2082 37.7023 33.8994C37.9627 32.5906 37.8291 31.234 37.3184 30.0011C36.8077 28.7683 35.9429 27.7145 34.8334 26.9732C33.7239 26.2318 32.4194 25.8361 31.085 25.8361Z" fill="url(#paint5_linear_2720_68)"/>
</g>
</g>
</g>
</g>
</g>
<defs>
<filter id="filter0_f_2720_68" x="-0.272336" y="25.7278" width="61.9841" height="61.68" filterUnits="userSpaceOnUse" color-interpolation-filters="sRGB">
<feFlood flood-opacity="0" result="BackgroundImageFix"/>
<feBlend mode="normal" in="SourceGraphic" in2="BackgroundImageFix" result="shape"/>
<feGaussianBlur stdDeviation="7.05609" result="effect1_foregroundBlur_2720_68"/>
</filter>
<linearGradient id="paint0_linear_2720_68" x1="-3.36015" y1="-5.45997" x2="65.0398" y2="64.14" gradientUnits="userSpaceOnUse">
<stop stop-color="#171720"/>
<stop offset="1" stop-color="#242341"/>
</linearGradient>
<linearGradient id="paint1_linear_2720_68" x1="30.8398" y1="0.840027" x2="30.8398" y2="60.84" gradientUnits="userSpaceOnUse">
<stop stop-color="#7064E9" stop-opacity="0.4"/>
<stop offset="1" stop-color="#7064E9" stop-opacity="0"/>
</linearGradient>
<linearGradient id="paint2_linear_2720_68" x1="-3.36015" y1="-5.45997" x2="65.0398" y2="64.14" gradientUnits="userSpaceOnUse">
<stop stop-color="#171720"/>
<stop offset="1" stop-color="#242341"/>
</linearGradient>
<linearGradient id="paint3_linear_2720_68" x1="30.4819" y1="39.84" x2="30.4819" y2="73.2956" gradientUnits="userSpaceOnUse">
<stop stop-color="#10C0D5" stop-opacity="0"/>
<stop offset="1" stop-color="#FADB6A"/>
</linearGradient>
<linearGradient id="paint4_linear_2720_68" x1="31.0849" y1="16.84" x2="31.0849" y2="43.84" gradientUnits="userSpaceOnUse">
<stop stop-color="#FFDC67"/>
<stop offset="1" stop-color="#06BFDA"/>
</linearGradient>
<linearGradient id="paint5_linear_2720_68" x1="31.085" y1="25.8361" x2="31.085" y2="39.3301" gradientUnits="userSpaceOnUse">
<stop stop-color="#FFDC67"/>
<stop offset="1" stop-color="#06BFDA"/>
</linearGradient>
<clipPath id="clip0_2720_68">
<rect x="0.839844" y="0.840027" width="60" height="60" rx="30" fill="white"/>
</clipPath>
<clipPath id="clip1_2720_68">
<rect width="60" height="60" fill="white" transform="translate(0.839844 0.840027)"/>
</clipPath>
<clipPath id="clip2_2720_68">
<rect width="60" height="60" fill="white" transform="translate(0.839844 0.840027)"/>
</clipPath>
<clipPath id="clip3_2720_68">
<rect width="60" height="60" fill="white" transform="translate(0.839844 0.840027)"/>
</clipPath>
</defs>
</svg>
