<svg xmlns="http://www.w3.org/2000/svg" width="62" height="62" viewBox="0 0 62 62" fill="none">
  <path d="M24.2192 13.5625V12.5453C24.8078 12.4258 25.331 12.0918 25.6872 11.6083C26.0434 11.1247 26.2073 10.526 26.1469 9.92848C26.0865 9.33092 25.8063 8.7771 25.3606 8.37454C24.9149 7.97198 24.3355 7.7494 23.7349 7.75H22.7661C22.4949 7.75 22.2817 7.53688 22.2817 7.26562C22.2817 6.99437 22.4949 6.78125 22.7661 6.78125H23.7349C24.0061 6.78125 24.2192 6.99437 24.2192 7.26562H26.1567C26.1568 6.70731 25.9641 6.1661 25.611 5.73359C25.2579 5.30109 24.7663 5.00385 24.2192 4.89219V3.875H22.2817V4.89219C21.6931 5.0117 21.17 5.34566 20.8137 5.82922C20.4575 6.31279 20.2937 6.91146 20.3541 7.50902C20.4144 8.10658 20.6947 8.6604 21.1404 9.06296C21.5861 9.46552 22.1655 9.6881 22.7661 9.6875H23.7349C24.0061 9.6875 24.2192 9.90063 24.2192 10.1719C24.2192 10.4431 24.0061 10.6562 23.7349 10.6562H22.7661C22.4949 10.6562 22.2817 10.4431 22.2817 10.1719H20.3442C20.3441 10.7302 20.5369 11.2714 20.89 11.7039C21.243 12.1364 21.7347 12.4336 22.2817 12.5453V13.5625H24.2192Z" fill="#00CC33"/>
  <path d="M8.70907 24.5773C9.90064 25.3135 11.2666 25.546 12.5356 25.546C14.1922 25.546 15.6744 25.1391 16.4203 24.897C19.656 27.1348 21.5741 29.1982 22.2813 31.1745V37.2291C21.6727 36.9522 21.0124 36.8069 20.3438 36.8029C17.67 36.8029 15.5 38.9729 15.5 41.6466V41.7435C14.4059 41.9668 13.4226 42.5613 12.7165 43.4263C12.0104 44.2913 11.6248 45.3738 11.625 46.4904C11.625 46.9166 11.7025 47.3332 11.8091 47.7401C11.2666 47.837 10.7531 48.0888 10.3269 48.5054C9.80376 49.0285 9.52283 49.7163 9.52283 50.4526C9.52283 51.4795 10.0847 52.4095 10.9953 52.8938L22.9981 59.2488C23.0756 59.2973 23.1725 59.3263 23.2597 59.3457L31.5813 61.012C31.6394 61.0216 31.7072 61.0313 31.775 61.0313C31.8525 61.0313 31.93 61.0313 32.0075 61.0023L40.1547 58.997C41.0072 58.7935 41.8791 58.687 42.7413 58.687H47.4785C47.4785 59.2008 47.6826 59.6936 48.0459 60.057C48.4093 60.4203 48.9021 60.6245 49.416 60.6245H56.1972C56.73 60.6245 57.166 60.1885 57.166 59.6557V46.3645C57.166 45.8316 56.73 45.3957 56.1972 45.3957H49.416C48.3503 45.3957 47.4785 46.2676 47.4785 47.3332H45.8994C44.5528 47.3332 43.216 47.0813 41.9469 46.5873L37.9653 45.0179C37.897 44.9896 37.8254 44.97 37.7522 44.9598L35.8535 44.6885V44.5626C35.8535 41.7629 33.4606 39.4573 30.6125 39.7382C30.2365 38.8707 29.6155 38.1318 28.8256 37.6121C28.0358 37.0924 27.1114 36.8146 26.166 36.8126C25.4878 36.8126 24.8388 36.9676 24.2285 37.2388V30.2348C24.6547 29.1691 26.7666 26.6891 29.5081 24.6451C30.2928 24.9163 31.8235 25.3716 33.5091 25.3716C34.6716 25.3716 35.8922 25.1585 36.9869 24.5288C40.3097 22.6204 40.9297 17.7573 40.9588 17.5538C41.0072 17.1276 40.7747 16.7207 40.3775 16.5463C40.1838 16.4688 35.6791 14.5507 32.3466 16.4591C29.5469 18.0673 28.6653 21.7679 28.4425 23.0176C26.9001 24.1545 25.4841 25.4536 24.2188 26.8926V16.4107C28.0356 15.936 31 12.6713 31 8.72852C31 4.45633 27.5222 0.978516 23.25 0.978516C18.9778 0.978516 15.5 4.45633 15.5 8.72852C15.5 12.6713 18.4644 15.936 22.2813 16.4107V27.4835C21.1381 26.1079 19.5397 24.7129 17.4763 23.2888C17.2825 21.981 16.4785 18.2029 13.6788 16.4785C10.3366 14.4248 5.64783 16.2557 5.45408 16.3332C5.05689 16.4882 4.80501 16.8951 4.84376 17.3213C4.86314 17.5345 5.3572 22.5332 8.69939 24.587L8.70907 24.5773ZM49.4063 47.3332H55.2188V58.687H49.4063V47.3332ZM33.3153 18.1351C35.1463 17.0888 37.6747 17.6798 38.8953 18.0673C38.5756 19.501 37.7231 21.8648 36.0181 22.8432C34.7878 23.5504 33.2378 23.502 31.9784 23.2888C33.2184 22.4848 34.3035 21.4482 35.2238 20.2082C33.6738 20.3632 32.211 20.7701 30.8741 21.4288C31.3197 20.2276 32.0656 18.8423 33.3056 18.1254L33.3153 18.1351ZM37.355 46.8585L41.2397 48.3891C42.7413 48.9704 44.3106 49.2707 45.8994 49.2707H47.4785V56.7495H42.7413C41.7338 56.7495 40.7069 56.8754 39.6994 57.1176L31.7653 59.0745L23.7925 57.476L11.9156 51.1888C11.7813 51.1184 11.6688 51.0125 11.5903 50.8828C11.5117 50.753 11.4701 50.6043 11.47 50.4526C11.47 50.2298 11.5475 50.036 11.7025 49.881C11.8108 49.773 11.9467 49.6969 12.0954 49.661C12.244 49.6251 12.3997 49.6309 12.5453 49.6776L23.9766 53.4848C24.0735 53.5138 24.18 53.5332 24.2866 53.5332H29.2853C29.3919 53.5332 29.4888 53.5138 29.5953 53.4848L34.5844 51.8185C34.9913 51.6829 35.2625 51.2954 35.2431 50.8691C35.2335 50.4429 34.9428 50.0748 34.5263 49.9585L27.4156 48.021C26.8538 47.866 26.4566 47.3526 26.4566 46.7713C26.4566 46.6841 26.4663 46.597 26.4856 46.5098C26.6213 45.8413 27.2413 45.3957 27.9291 45.4926L37.355 46.8391V46.8585ZM17.4375 8.71883C17.4375 5.51227 20.0435 2.90633 23.25 2.90633C26.4566 2.90633 29.0625 5.51227 29.0625 8.71883C29.0625 11.9254 26.4566 14.5313 23.25 14.5313C20.0435 14.5313 17.4375 11.9254 17.4375 8.71883ZM22.5235 39.7576C22.8916 40.1838 23.6181 40.1838 23.9863 39.7576C24.5385 39.1182 25.3328 38.7501 26.166 38.7501C27.5319 38.7501 28.7235 39.7188 29.0044 41.0557C29.0625 41.3173 29.2175 41.5498 29.45 41.6854C29.6825 41.821 29.9538 41.8598 30.2153 41.7823C30.5156 41.6951 30.7675 41.6563 31 41.6563C32.55 41.6563 33.8094 42.877 33.8869 44.4076L28.181 43.5938C26.4856 43.3516 24.8969 44.4851 24.5675 46.161C24.5288 46.3645 24.4997 46.5873 24.4997 46.7907C24.4997 48.2341 25.4781 49.5129 26.8828 49.9004L30.9128 50.9951L29.111 51.5957H24.4222L14.0856 48.1566C13.7466 47.6723 13.5431 47.091 13.5431 46.4904C13.5431 44.892 14.8509 43.5841 16.43 43.5841H16.5947C16.895 43.5841 17.1856 43.4388 17.3697 43.1966C17.5538 42.9545 17.6119 42.6445 17.5247 42.3441C17.4569 42.0923 17.4181 41.8501 17.4181 41.6273C17.4181 40.0288 18.726 38.721 20.3244 38.721C21.1478 38.721 21.9422 39.0891 22.5041 39.7285L22.5235 39.7576ZM12.6713 18.1254C13.95 18.9101 14.6863 20.3826 15.1028 21.6516C13.6981 20.8766 12.1578 20.3535 10.511 20.092C11.4894 21.4579 12.6713 22.5816 14.0081 23.4923C12.681 23.6957 11.0244 23.7248 9.72626 22.9304C7.86626 21.7873 7.14939 19.1813 6.89751 17.8929C8.15689 17.5248 10.8113 16.9823 12.6713 18.1254Z" fill="#00CC33"/>
  <path d="M51.3438 54.25H53.2812V56.1875H51.3438V54.25Z" fill="#00CC33"/>
</svg>