<svg xmlns="http://www.w3.org/2000/svg" width="60" height="60" viewBox="0 0 60 60" fill="none">
  <g clip-path="url(#clip0_2585_2098)">
    <path d="M32.4574 43.2015H32.4949C32.5301 43.2015 32.5641 43.2003 32.5981 43.1992M32.5981 43.1992C37.1215 43.0761 38.7352 36.7983 34.2481 35.2151C33.6528 35.0054 33.1031 34.8026 32.5981 34.5999C31.3875 34.1135 30.4336 33.6331 29.7293 33.0835C27.9937 31.7229 28.6289 28.2377 31.1824 27.4713C31.6887 27.3201 32.1621 27.2498 32.5981 27.2381C34.541 27.1842 35.7434 28.2717 35.7668 28.294M32.5981 43.1992V25.001" stroke="#00CC33" stroke-width="2" stroke-miterlimit="10" stroke-linecap="round" stroke-linejoin="round"/>
    <path d="M22.9722 22.5725C25.6429 20.5463 28.9804 19.3428 32.598 19.3428C41.3895 19.3428 48.5181 26.4503 48.5181 35.2183C48.5181 38.9039 47.2583 42.2976 45.1454 44.9918M16.8362 37.4601C16.7319 36.7277 16.678 35.9788 16.678 35.2183C16.678 31.4612 17.9881 28.0053 20.1796 25.2854M33.7057 49.4556C33.6026 49.6945 33.4796 49.9132 33.3367 50.1057C32.2228 51.5814 30.261 51.545 28.3026 50.2748L21.0275 45.5489M1.09753 56.2377H10.3044C11.129 56.2377 11.804 55.5677 11.804 54.7453V37.5664C11.804 36.744 11.129 36.074 10.3044 36.074H1.09753" stroke="#00CC33" stroke-width="2" stroke-miterlimit="10" stroke-linecap="round" stroke-linejoin="round"/>
    <path d="M42.0954 53.4425L33.2137 57.5745C28.5719 59.7331 26.3242 59.7859 21.3144 56.7519C16.4066 53.7776 15.7608 53.3628 11.8046 53.3628V39.3048L15.5745 37.8517C15.986 37.6933 16.4077 37.5625 16.8366 37.4603C20.8902 36.4818 25.1676 38.0755 28.3832 40.1838L31.0422 41.9275C33.7891 43.7252 34.5837 47.3768 33.7059 49.4557L45.1458 44.992L48.2197 43.792C53.1111 41.8842 54.9557 47.4588 50.5236 49.5225L45.6263 51.8007M32.5989 19.343V13.4C34.8367 10.3588 36.8483 7.81515 43.8939 6.67432" stroke="#00CC33" stroke-width="2" stroke-miterlimit="10" stroke-linecap="round" stroke-linejoin="round"/>
    <path d="M32.5984 13.3999C30.3607 10.3588 28.3491 7.81507 21.3035 6.67425M58.9023 9.65903C54.2008 -3.77568 33.1038 -0.114363 34.8461 9.42032C35.6674 13.9539 39.6075 17.5156 47.4179 11.7915C50.1809 9.76521 53.2632 7.20827 58.9023 9.65903Z" stroke="#00CC33" stroke-width="2" stroke-miterlimit="10" stroke-linecap="round" stroke-linejoin="round"/>
    <path d="M6.2948 9.65903C10.993 -3.77568 32.0901 -0.114363 30.351 9.42032C29.5263 13.9539 25.5896 17.5156 17.7793 11.7915C15.0162 9.76521 11.9306 7.20827 6.2948 9.65903Z" stroke="#00CC33" stroke-width="2" stroke-miterlimit="10" stroke-linecap="round" stroke-linejoin="round"/>
  </g>
  <defs>
    <clipPath id="clip0_2585_2098">
      <rect width="60" height="60" fill="white"/>
    </clipPath>
  </defs>
</svg>