<svg width="78" height="78" viewBox="0 0 78 78" fill="none" xmlns="http://www.w3.org/2000/svg">
<circle cx="39" cy="39" r="38.03" fill="white" stroke="#77E195" stroke-width="1.94"/>
<g clip-path="url(#clip0_2585_1810)">
<path d="M35.7187 38.9999H37.503L36.3953 43.4342C36.3591 43.5794 36.3736 43.7325 36.4364 43.8683C36.4992 44.0041 36.6065 44.1143 36.7405 44.1808C36.8745 44.2473 37.0272 44.266 37.1733 44.2338C37.3194 44.2016 37.4501 44.1205 37.5437 44.0038L42.7937 37.4413C42.8708 37.3447 42.919 37.2284 42.9328 37.1056C42.9467 36.9828 42.9257 36.8586 42.8722 36.7473C42.8186 36.6359 42.7348 36.5419 42.6303 36.476C42.5257 36.4102 42.4048 36.3751 42.2812 36.3749H40.4969L41.6046 31.9406C41.6411 31.7953 41.6268 31.6419 41.564 31.5059C41.5013 31.3698 41.3938 31.2593 41.2596 31.1928C41.1254 31.1262 40.9724 31.1076 40.8261 31.1401C40.6798 31.1725 40.5491 31.254 40.4555 31.371L35.2055 37.9335C35.1285 38.0302 35.0802 38.1466 35.0664 38.2694C35.0525 38.3923 35.0736 38.5165 35.1272 38.6279C35.1808 38.7393 35.2648 38.8333 35.3694 38.8991C35.474 38.9649 35.5951 38.9998 35.7187 38.9999ZM39.603 34.5394L39.0196 36.8724C38.9952 36.9691 38.9933 37.0701 39.0139 37.1678C39.0345 37.2654 39.0771 37.357 39.1385 37.4356C39.1999 37.5143 39.2785 37.5778 39.3682 37.6215C39.4579 37.6651 39.5564 37.6877 39.6562 37.6874H40.9155L38.3969 40.8355L38.9803 38.5025C39.0047 38.4058 39.0066 38.3047 38.986 38.2071C38.9654 38.1095 38.9228 38.0179 38.8614 37.9392C38.8 37.8606 38.7214 37.797 38.6317 37.7534C38.542 37.7098 38.4435 37.6872 38.3437 37.6874H37.0844L39.603 34.5394Z" fill="#00CC33"/>
<path d="M58.6875 44.9062C58.1708 44.9044 57.664 45.0475 57.2244 45.3191C56.7849 45.5908 56.4304 45.9802 56.201 46.4432L56.0625 46.7201C55.8125 47.2202 55.3098 47.5312 54.75 47.5312C54.1902 47.5312 53.6875 47.2202 53.4375 46.7201L53.299 46.4438C53.1149 46.074 52.85 45.7503 52.5238 45.4966C52.1977 45.243 51.8187 45.0659 51.4149 44.9784C51.8293 44.1156 52.1526 43.2118 52.3796 42.2819H53.4388C56.6951 42.2819 59.3444 39.632 59.3444 36.3757C59.3444 36.2016 59.2753 36.0347 59.1522 35.9116C59.0291 35.7885 58.8622 35.7194 58.6882 35.7194H52.3704C52.0491 34.411 51.5365 33.1572 50.8493 31.9985L51.7089 31.1388C54.0111 28.836 54.0111 25.0895 51.7083 22.7867C51.6476 22.7253 51.5753 22.6766 51.4956 22.6433C51.4159 22.61 51.3305 22.5929 51.2441 22.5928C51.1578 22.5927 51.0723 22.6098 50.9926 22.6429C50.9129 22.6761 50.8405 22.7247 50.7797 22.786L46.2588 27.3069C45.0301 26.5408 43.6875 25.9747 42.2812 25.6296V24.5618C42.2806 21.3055 39.6313 18.6562 36.375 18.6562C36.201 18.6562 36.034 18.7254 35.911 18.8485C35.7879 18.9715 35.7188 19.1385 35.7188 19.3125V25.6302C34.3614 25.9637 33.0632 26.503 31.8692 27.2295L31.1375 26.4978C28.8367 24.1963 25.0901 24.195 22.7854 26.4978C22.663 26.6214 22.5945 26.7883 22.5946 26.9622C22.5947 27.1361 22.6635 27.3029 22.786 27.4264L27.2295 31.8698C26.5026 33.0637 25.9633 34.362 25.6302 35.7194H24.5618C21.3055 35.7194 18.6562 38.3687 18.6562 41.625C18.6562 41.799 18.7254 41.966 18.8485 42.089C18.9715 42.2121 19.1385 42.2812 19.3125 42.2812H25.621C25.8475 43.2112 26.1706 44.115 26.5851 44.9778C26.1813 45.0653 25.8024 45.2424 25.4762 45.4961C25.1501 45.7497 24.8852 46.0734 24.701 46.4432L24.5625 46.7201C24.3125 47.2202 23.8098 47.5312 23.25 47.5312C22.6902 47.5312 22.1875 47.2202 21.9375 46.7201L21.799 46.4438C21.5698 45.9807 21.2153 45.5911 20.7757 45.3193C20.3362 45.0475 19.8293 44.9044 19.3125 44.9062C19.1385 44.9062 18.9715 44.9754 18.8485 45.0985C18.7254 45.2215 18.6562 45.3885 18.6562 45.5625V58.6875C18.6562 58.8615 18.7254 59.0285 18.8485 59.1515C18.9715 59.2746 19.1385 59.3438 19.3125 59.3438H58.6875C58.8615 59.3438 59.0285 59.2746 59.1515 59.1515C59.2746 59.0285 59.3438 58.8615 59.3438 58.6875V45.5625C59.3438 45.3885 59.2746 45.2215 59.1515 45.0985C59.0285 44.9754 58.8615 44.9062 58.6875 44.9062ZM57.9847 37.0312C57.6657 39.254 55.7482 40.9681 53.4382 40.9688H52.6362C52.7301 40.3191 52.7812 39.6615 52.7812 39C52.7812 38.33 52.7169 37.6763 52.6237 37.0312H57.9847ZM51.2102 24.2114C52.5568 26.0089 52.4131 28.5768 50.7803 30.2102L50.1103 30.8809C49.3305 29.8167 48.4028 28.8691 47.3554 28.0669L51.2102 24.2114ZM37.0312 20.0153C39.254 20.3343 40.9681 22.2518 40.9688 24.5612V25.3756C40.3237 25.2831 39.67 25.2188 39 25.2188C38.33 25.2188 37.6763 25.2831 37.0312 25.3762V20.0153ZM24.2114 26.9952C26.0089 25.6486 28.5774 25.7936 30.2102 27.4257L30.7627 27.9783C29.7073 28.7693 28.7699 29.7066 27.9789 30.7621L24.2114 26.9952ZM20.0153 40.9688C20.3343 38.746 22.2518 37.0319 24.5618 37.0312H25.3762C25.2831 37.6763 25.2188 38.33 25.2188 39C25.2188 39.6615 25.2699 40.3191 25.3638 40.9688H20.0153ZM39 26.5312C45.8755 26.5312 51.4688 32.1245 51.4688 39C51.4688 41.1308 50.9195 43.2223 49.8878 45.0697C49.2079 45.3061 48.6473 45.799 48.326 46.4432L48.1875 46.7201C48.0664 46.9644 47.8792 47.1699 47.6472 47.3133C47.4152 47.4567 47.1477 47.5322 46.875 47.5312C46.6794 47.5312 46.4963 47.4814 46.3231 47.4105C48.7355 45.3033 50.1562 42.2222 50.1562 39C50.1562 32.8483 45.1517 27.8438 39 27.8438C32.8483 27.8438 27.8438 32.8483 27.8438 39C27.8438 42.2215 29.2645 45.3033 31.6769 47.4105C31.5026 47.4865 31.3151 47.5275 31.125 47.5312C30.8523 47.5322 30.5848 47.4567 30.3528 47.3133C30.1208 47.1699 29.9336 46.9644 29.8125 46.7201L29.674 46.4438C29.3527 45.7995 28.7922 45.3064 28.1122 45.0697C27.0765 43.2142 26.5323 41.1249 26.5312 39C26.5312 32.1245 32.1245 26.5312 39 26.5312ZM32.5773 46.4406C30.4018 44.5676 29.1562 41.9013 29.1562 39C29.1562 33.5722 33.5722 29.1562 39 29.1562C44.4278 29.1562 48.8438 33.5722 48.8438 39C48.8438 41.9019 47.5982 44.5676 45.4221 46.4406C45.1926 45.9783 44.8382 45.5895 44.3991 45.3183C43.9599 45.0472 43.4536 44.9044 42.9375 44.9062C42.4208 44.9044 41.914 45.0475 41.4744 45.3191C41.0349 45.5908 40.6804 45.9802 40.451 46.4432L40.3125 46.7201C40.0625 47.2202 39.5598 47.5312 39 47.5312C38.4402 47.5312 37.9375 47.2202 37.6875 46.7201L37.549 46.4438C37.3198 45.9807 36.9653 45.5911 36.5257 45.3193C36.0862 45.0475 35.5793 44.9044 35.0625 44.9062C34.5463 44.9045 34.04 45.0473 33.6008 45.3185C33.1615 45.5896 32.807 45.9783 32.5773 46.4406ZM20.625 47.0299L20.7635 47.3062C21.2373 48.2551 22.1902 48.8438 23.25 48.8438C24.3098 48.8438 25.2627 48.2551 25.7365 47.3068L25.875 47.0299C26.125 46.5298 26.6277 46.2188 27.1875 46.2188C27.7473 46.2188 28.25 46.5298 28.5 47.0299L28.6385 47.3062C29.1123 48.2551 30.0652 48.8438 31.125 48.8438C32.1848 48.8438 33.1377 48.2551 33.6115 47.3068L33.75 47.0299C34 46.5298 34.5027 46.2188 35.0625 46.2188C35.6223 46.2188 36.125 46.5298 36.375 47.0299L36.5135 47.3062C36.9873 48.2551 37.9402 48.8438 39 48.8438C40.0598 48.8438 41.0127 48.2551 41.4865 47.3068L41.625 47.0299C41.875 46.5298 42.3777 46.2188 42.9375 46.2188C43.4973 46.2188 44 46.5298 44.25 47.0299L44.3885 47.3062C44.8623 48.2551 45.8152 48.8438 46.875 48.8438C47.9348 48.8438 48.8877 48.2551 49.3615 47.3068L49.5 47.0299C49.75 46.5298 50.2527 46.2188 50.8125 46.2188C51.3723 46.2188 51.875 46.5298 52.125 47.0299L52.2635 47.3062C52.7373 48.2551 53.6902 48.8438 54.75 48.8438C55.8098 48.8438 56.7627 48.2551 57.2365 47.3068L57.375 47.0299C57.5163 46.7451 57.7467 46.5142 58.0312 46.3723V51.5521C57.6383 51.6456 57.2708 51.8242 56.9545 52.0754C56.6382 52.3266 56.381 52.6441 56.201 53.0057L56.0625 53.2826C55.8125 53.7827 55.3098 54.0938 54.75 54.0938C54.1902 54.0938 53.6875 53.7827 53.4375 53.2826L53.299 53.0063C52.8252 52.0574 51.8723 51.4688 50.8125 51.4688C49.7527 51.4688 48.7998 52.0574 48.326 53.0057L48.1875 53.2826C47.9375 53.7827 47.4348 54.0938 46.875 54.0938C46.3152 54.0938 45.8125 53.7827 45.5625 53.2826L45.424 53.0063C44.9502 52.0574 43.9973 51.4688 42.9375 51.4688C41.8777 51.4688 40.9248 52.0574 40.451 53.0057L40.3125 53.2826C40.0625 53.7827 39.5598 54.0938 39 54.0938C38.4402 54.0938 37.9375 53.7827 37.6875 53.2826L37.549 53.0063C37.0752 52.0574 36.1223 51.4688 35.0625 51.4688C34.0027 51.4688 33.0498 52.0574 32.576 53.0057L32.4375 53.2826C32.1875 53.7827 31.6848 54.0938 31.125 54.0938C30.5652 54.0938 30.0625 53.7827 29.8125 53.2826L29.674 53.0063C29.2002 52.0574 28.2473 51.4688 27.1875 51.4688C26.1277 51.4688 25.1748 52.0574 24.701 53.0057L24.5625 53.2826C24.3125 53.7827 23.8098 54.0938 23.25 54.0938C22.6902 54.0938 22.1875 53.7827 21.9375 53.2826L21.799 53.0063C21.6192 52.6446 21.362 52.3267 21.0457 52.0753C20.7294 51.8239 20.3618 51.6451 19.9688 51.5514V46.3717C20.2477 46.5108 20.4793 46.7385 20.625 47.0299ZM19.9688 58.0312V52.9479C20.245 53.0871 20.48 53.3023 20.625 53.5924L20.7635 53.8687C21.2373 54.8176 22.1902 55.4062 23.25 55.4062C24.3098 55.4062 25.2627 54.8176 25.7365 53.8693L25.875 53.5924C26.125 53.0923 26.6277 52.7812 27.1875 52.7812C27.7473 52.7812 28.25 53.0923 28.5 53.5924L28.6385 53.8687C29.1123 54.8176 30.0652 55.4062 31.125 55.4062C32.1848 55.4062 33.1377 54.8176 33.6115 53.8693L33.75 53.5924C34 53.0923 34.5027 52.7812 35.0625 52.7812C35.6223 52.7812 36.125 53.0923 36.375 53.5924L36.5135 53.8687C36.9873 54.8176 37.9402 55.4062 39 55.4062C40.0598 55.4062 41.0127 54.8176 41.4865 53.8693L41.625 53.5924C41.875 53.0923 42.3777 52.7812 42.9375 52.7812C43.4973 52.7812 44 53.0923 44.25 53.5924L44.3885 53.8687C44.8623 54.8176 45.8152 55.4062 46.875 55.4062C47.9348 55.4062 48.8877 54.8176 49.3615 53.8693L49.5 53.5924C49.75 53.0923 50.2527 52.7812 50.8125 52.7812C51.3723 52.7812 51.875 53.0923 52.125 53.5924L52.2635 53.8687C52.7373 54.8176 53.6902 55.4062 54.75 55.4062C55.8098 55.4062 56.7627 54.8176 57.2365 53.8693L57.375 53.5924C57.52 53.303 57.755 53.0871 58.0312 52.9479V58.0312H19.9688Z" fill="#00CC33"/>
</g>
<defs>
<clipPath id="clip0_2585_1810">
<rect width="42" height="42" fill="white" transform="translate(18 18)"/>
</clipPath>
</defs>
</svg>
