<svg xmlns="http://www.w3.org/2000/svg" width="48" height="48" viewBox="0 0 48 48" fill="none">
  <g clip-path="url(#clip0_2585_2031)">
    <path d="M27.6039 39.2925C27.2056 39.1795 26.7907 39.4113 26.6779 39.8098C25.4565 44.1229 23.86 45.9837 22.8958 45.8885C21.7121 45.7712 20.4518 42.7494 20.2978 37.7729C21.507 38.0865 22.7511 38.2449 24.0003 38.2441C27.9362 38.2441 31.6373 36.7111 34.4204 33.9278C37.2036 31.1446 38.7367 27.4438 38.7367 23.5076C38.7367 22.6969 38.6698 21.9016 38.5433 21.1261C40.2101 20.127 41.6745 19.0624 42.8334 17.9962C45.0895 15.9206 45.943 14.0737 45.3014 12.6552C44.4449 10.762 41.2047 10.3713 36.4117 11.5833C36.3162 11.6074 36.2264 11.6501 36.1474 11.709C36.0684 11.7678 36.0018 11.8416 35.9514 11.9262C35.8495 12.0971 35.8196 12.3014 35.8684 12.4942C35.9171 12.6871 36.0405 12.8527 36.2113 12.9545C36.3822 13.0564 36.5865 13.0863 36.7794 13.0375C41.125 11.9387 43.5349 12.3895 43.9347 13.2734C44.4249 14.3572 42.438 16.9599 38.2048 19.5816C36.482 13.3557 30.7668 8.77105 24.0002 8.77105C20.4639 8.77105 17.2149 10.0236 14.6724 12.1076C12.9715 11.162 11.3151 10.4242 9.81047 9.95315C6.88472 9.03702 4.85869 9.22133 3.95101 10.4863C2.73976 12.1745 4.02151 15.1759 7.46757 18.7209C7.53738 18.793 7.62098 18.8502 7.71338 18.8892C7.80578 18.9283 7.9051 18.9483 8.00541 18.9482C8.20067 18.9484 8.38828 18.8722 8.52807 18.7359C8.67068 18.5973 8.75238 18.4077 8.75519 18.2088C8.758 18.0099 8.6817 17.8181 8.54307 17.6754C5.41866 14.4612 4.60416 12.149 5.16976 11.3608C5.86379 10.3938 9.11466 10.8143 13.5056 13.1732C10.8841 15.8349 9.26363 19.4854 9.26363 23.5076C9.26363 29.8003 13.2288 35.1835 18.7914 37.2924C18.8231 39.2356 19.0125 41.0366 19.3564 42.5734C20.0259 45.5651 21.1986 47.2277 22.7478 47.3812C22.8234 47.3887 22.8987 47.3925 22.974 47.3925C24.9578 47.3925 26.8232 44.8015 28.121 40.2185C28.1478 40.1238 28.1557 40.0247 28.1442 39.9268C28.1328 39.829 28.1021 39.7344 28.0541 39.6484C28.0061 39.5624 27.9416 39.4868 27.8643 39.4257C27.787 39.3646 27.6984 39.3194 27.6037 39.2926L27.6039 39.2925ZM23.401 34.3246C23.0005 34.1777 22.8136 33.9696 22.7753 33.8361C22.7371 33.703 22.8275 33.5388 22.9182 33.4162C23.7301 32.5726 24.8544 33.053 26.4706 33.8803C26.616 33.9547 26.7593 34.0281 26.9001 34.0984C28.0563 34.6755 28.7289 34.3927 29.2201 34.1865C29.5943 34.0293 29.9518 33.8801 31.0926 34.6887C29.528 35.6855 27.7747 36.3374 25.9276 36.6052C25.3026 35.5879 24.1599 34.6029 23.401 34.3246ZM34.3751 15.2972C33.8094 16.3467 33.5295 17.8235 33.6677 18.6179C33.7407 19.0383 33.654 19.3041 33.5575 19.4041C33.4613 19.5037 33.2738 19.5076 33.1224 19.4901C31.9857 19.2085 31.8397 17.9946 31.7482 16.1816C31.7399 16.0185 31.7318 15.8576 31.7223 15.7007C31.644 14.4111 31.0629 13.9697 30.6385 13.6474C30.3159 13.4023 30.0086 13.1674 30.1365 11.7822C31.7786 12.6461 33.2223 13.8432 34.3751 15.2971V15.2972ZM11.4308 19.3576C13.2353 18.5035 14.9414 18.0658 16.0376 18.1821C16.6108 18.2431 17.1467 18.5726 17.3407 18.9833C17.4613 19.2387 17.4304 19.499 17.246 19.7791C17.1125 19.982 16.9063 20.2041 16.6881 20.4393C16.1307 21.04 15.4369 21.7877 15.2073 22.956C15.061 23.7002 14.9203 23.8587 14.6788 23.9168C14.552 23.9472 14.3173 23.9665 13.9173 23.8854C13.226 23.7453 12.5953 23.9162 12.1877 24.3545C11.7625 24.8117 11.6365 25.4956 11.8421 26.2311C11.9995 26.7934 12.5232 27.2007 13.0658 27.5573C13.2732 27.6936 13.525 27.8304 13.7917 27.9753C14.6067 28.418 15.7232 29.0243 15.7231 29.7568C15.7231 30.0052 15.6829 30.1174 15.6656 30.1541C15.475 30.2022 14.9817 30.032 14.1992 29.6485C13.3389 29.2272 12.6103 29.0373 11.9928 29.0739C11.2047 27.3808 10.7636 25.4948 10.7636 23.5074C10.7626 22.0973 10.9878 20.6962 11.4307 19.3575L11.4308 19.3576ZM12.912 30.728C13.093 30.7922 13.3 30.8784 13.5393 30.9956C14.1101 31.2752 14.8871 31.6559 15.6128 31.6558C15.9134 31.6558 16.2054 31.5904 16.4702 31.4254C16.9696 31.1139 17.2229 30.5526 17.2231 29.757C17.2233 28.1321 15.589 27.2445 14.5076 26.657C14.2694 26.5277 14.0444 26.4054 13.8894 26.3036C13.4207 25.9955 13.3066 25.8489 13.2818 25.8087C13.2094 25.5362 13.2599 25.4042 13.2861 25.376C13.3137 25.3461 13.4252 25.316 13.6193 25.3554C14.1639 25.466 14.6251 25.4723 15.0293 25.3752C16.3216 25.0648 16.5631 23.8358 16.6792 23.2452C16.8265 22.4953 17.2934 21.9922 17.7877 21.4596C18.0381 21.1897 18.2969 20.9107 18.499 20.6037C18.9743 19.8815 19.0447 19.0785 18.6969 18.3426C18.2782 17.4561 17.2965 16.8076 16.1964 16.6905C14.9377 16.5566 13.4901 16.9257 12.2728 17.3751C12.9436 16.0982 13.8174 14.9387 14.8601 13.942C15.7482 14.473 16.6733 15.0775 17.6255 15.7608C18.4519 16.3531 19.255 16.9774 20.0329 17.6321C19.6964 18.3584 19.7053 19.2316 20.1351 19.9759C20.6057 20.791 21.4624 21.2472 22.3422 21.2472C22.7735 21.2472 23.2103 21.1376 23.6098 20.907C24.8244 20.2057 25.2421 18.647 24.5409 17.4323C23.8397 16.2176 22.2807 15.8 21.0662 16.5013C21.0567 16.5067 21.0478 16.5127 21.0384 16.5183C20.2187 15.8264 19.3719 15.1672 18.5002 14.5422C17.7073 13.9732 16.8943 13.4327 16.0628 12.9218C18.2758 11.2582 21.0249 10.2711 24.0004 10.2711C25.6558 10.2711 27.2408 10.5775 28.7027 11.1351C28.3808 13.5864 28.9538 14.2515 29.7313 14.8421C30.0453 15.0805 30.1885 15.1895 30.2251 15.7917C30.2344 15.9438 30.2423 16.0995 30.2502 16.2575C30.3389 18.0147 30.4605 20.4214 32.8212 20.9604C32.8426 20.9653 32.8642 20.9692 32.8858 20.9722C33.0091 20.9895 33.1334 20.9983 33.2578 20.9986C33.9457 20.9986 34.3817 20.7102 34.6368 20.4459C35.106 19.9599 35.2914 19.2 35.1457 18.3611C35.0948 18.0689 35.1756 17.3985 35.3804 16.7548C36.0511 17.8799 36.55 19.0989 36.8605 20.3714C35.9549 20.8762 34.9668 21.3762 33.8965 21.8604C32.9703 22.2799 32.0282 22.6632 31.0723 23.0096C30.6116 22.3551 29.8508 21.9261 28.9914 21.9261C27.5889 21.9261 26.4478 23.0672 26.4478 24.4698C26.4478 25.8724 27.5889 27.0134 28.9914 27.0134C30.394 27.0134 31.5352 25.8724 31.5352 24.4698C31.5352 24.4589 31.5345 24.4481 31.5343 24.4372C32.5433 24.0732 33.5376 23.6695 34.5147 23.227C35.4057 22.8244 36.282 22.39 37.142 21.9246C37.2051 22.4499 37.2368 22.9785 37.2369 23.5076C37.2369 27.0432 35.86 30.3671 33.36 32.8672C33.0436 33.1835 32.7117 33.4839 32.3655 33.7672C30.4026 32.2618 29.5398 32.4255 28.6394 32.8036C28.2759 32.9562 28.1101 33.026 27.5702 32.7564C27.4312 32.6867 27.2925 32.6163 27.1542 32.5452C25.588 31.7435 23.4431 30.6453 21.7959 32.4203C21.781 32.4364 21.7668 32.4531 21.7534 32.4704C21.1918 33.1931 21.2152 33.837 21.3335 34.2499C21.5198 34.8992 22.0852 35.4397 22.8847 35.733C23.1637 35.8353 23.7053 36.2417 24.1609 36.7422C24.1074 36.7429 24.0539 36.7442 24.0004 36.7442C22.7434 36.7449 21.4927 36.566 20.2863 36.213C20.3018 35.1763 20.3629 34.0705 20.4788 32.9015C20.5792 31.8899 20.7189 30.8826 20.8977 29.8819C21.0437 29.8689 21.1882 29.8435 21.3298 29.8059C21.9862 29.63 22.5347 29.2092 22.8744 28.6207C23.2141 28.0324 23.3044 27.3469 23.1285 26.6906C22.9527 26.0344 22.5318 25.4857 21.9433 25.1461C21.3549 24.8062 20.6693 24.716 20.0132 24.8919C19.3569 25.0677 18.8083 25.4886 18.4686 26.077C18.1289 26.6655 18.0386 27.351 18.2145 28.0072C18.3903 28.6635 18.8112 29.2121 19.3997 29.5518C19.4096 29.5575 19.42 29.5624 19.4301 29.568C19.2401 30.6236 19.092 31.6862 18.9861 32.7535C18.8896 33.7263 18.8279 34.7023 18.8013 35.6796C16.3843 34.6432 14.3362 32.9074 12.9121 30.728H12.912ZM21.816 17.8002C21.9741 17.7087 22.1535 17.6605 22.3361 17.6606C22.6972 17.6606 23.0487 17.8478 23.2418 18.1822C23.5294 18.6806 23.358 19.3202 22.8597 19.6079C22.3614 19.8957 21.7218 19.7243 21.434 19.2259C21.1464 18.7275 21.3177 18.0879 21.816 17.8002ZM30.0349 24.4697C30.0349 25.0451 29.5667 25.5133 28.9912 25.5133C28.4156 25.5133 27.9475 25.0451 27.9475 24.4697C27.9475 23.8942 28.4157 23.4261 28.9912 23.4261C29.5666 23.4261 30.0349 23.8942 30.0349 24.4697ZM20.1496 28.2527C19.6512 27.965 19.4799 27.3254 19.7676 26.8269C19.8358 26.708 19.927 26.6038 20.0358 26.5203C20.1445 26.4369 20.2688 26.3758 20.4013 26.3406C20.5337 26.3048 20.6718 26.2956 20.8077 26.3135C20.9437 26.3314 21.0747 26.3761 21.1932 26.445C21.3122 26.5132 21.4164 26.6043 21.4999 26.7131C21.5833 26.8219 21.6444 26.9461 21.6796 27.0786C21.7518 27.348 21.7147 27.6292 21.5753 27.8706C21.2874 28.3688 20.6478 28.5404 20.1496 28.2527ZM15.6149 6.11427C14.5384 7.23111 14.0013 8.8198 14.2672 10.4327C14.2995 10.6289 14.4085 10.8043 14.5702 10.9202C14.7319 11.0361 14.9329 11.0831 15.1292 11.0508C15.2264 11.0348 15.3195 10.9998 15.4031 10.9478C15.4868 10.8958 15.5594 10.8278 15.6168 10.7478C15.6742 10.6677 15.7153 10.5772 15.7376 10.4812C15.76 10.3853 15.7633 10.2859 15.7473 10.1887C15.4713 8.51418 16.4262 6.87561 18.0182 6.29268C19.61 5.70974 21.3971 6.34424 22.2679 7.80111C22.3699 7.97187 22.5356 8.09509 22.7285 8.14368C22.9214 8.19227 23.1257 8.16223 23.2965 8.06019C23.4672 7.95815 23.5904 7.79246 23.639 7.59956C23.6876 7.40666 23.6576 7.20237 23.5555 7.03161C22.7172 5.62883 21.2818 4.76268 19.7392 4.6048C19.9902 3.96224 20.0181 3.22958 19.7628 2.53236C19.4935 1.79718 18.9541 1.21077 18.2439 0.881334C17.5336 0.551803 16.7377 0.518615 16.0025 0.787771C14.4848 1.34352 13.7022 3.03036 14.258 4.54799C14.5133 5.2454 15.0084 5.78577 15.6152 6.11418L15.6149 6.11427ZM16.5181 2.19636C16.676 2.13829 16.8428 2.10849 17.011 2.10833C17.2162 2.10833 17.4207 2.15305 17.6125 2.24202C17.7833 2.3207 17.9368 2.43246 18.0641 2.57083C18.1913 2.70921 18.2899 2.87145 18.3541 3.04818C18.6254 3.78918 18.2432 4.61277 17.5022 4.88408C17.3258 4.94919 17.1383 4.97867 16.9504 4.97083C16.7625 4.963 16.5781 4.91799 16.4078 4.83843C16.237 4.75977 16.0836 4.64803 15.9563 4.50967C15.829 4.3713 15.7304 4.20907 15.6663 4.03236C15.3949 3.29136 15.7771 2.46768 16.5181 2.19636ZM24.7042 8.06015C24.7887 8.11068 24.8824 8.14406 24.9798 8.15839C25.0773 8.17271 25.1766 8.1677 25.2721 8.14364C25.3676 8.11958 25.4575 8.07693 25.5365 8.01815C25.6155 7.95936 25.6822 7.88558 25.7327 7.80102C26.6033 6.34396 28.3907 5.70974 29.9824 6.29258C31.5742 6.87552 32.5292 8.51399 32.2532 10.1886C32.2208 10.3849 32.2678 10.586 32.3837 10.7477C32.4996 10.9093 32.675 11.0183 32.8713 11.0507C33.0676 11.083 33.2687 11.0361 33.4303 10.9202C33.592 10.8042 33.701 10.6289 33.7333 10.4326C33.9992 8.81971 33.4621 7.23102 32.3856 6.11418C32.9924 5.78568 33.4875 5.2453 33.7429 4.54799C34.2985 3.03036 33.5159 1.34343 31.9983 0.787771C31.2629 0.518428 30.467 0.551709 29.7568 0.881334C29.0467 1.21086 28.5072 1.79718 28.2381 2.53236C27.9828 3.22958 28.0105 3.96233 28.2617 4.6049C26.719 4.76286 25.2835 5.62893 24.4453 7.03171C24.3948 7.11626 24.3614 7.20993 24.3471 7.30737C24.3328 7.40482 24.3378 7.50413 24.3619 7.59964C24.3859 7.69515 24.4286 7.78498 24.4873 7.86401C24.5461 7.94304 24.6199 8.00972 24.7044 8.06024L24.7042 8.06015ZM29.6464 3.04808C29.7105 2.87136 29.8091 2.70912 29.9364 2.57074C30.0636 2.43237 30.2171 2.3206 30.3878 2.24193C30.5762 2.15409 30.7815 2.10846 30.9893 2.10824C31.1554 2.10824 31.3218 2.13749 31.4823 2.19627C32.2233 2.46758 32.6054 3.29127 32.3342 4.03227C32.27 4.20899 32.1714 4.37123 32.0441 4.50959C31.9168 4.64795 31.7633 4.75969 31.5925 4.83833C31.4222 4.91795 31.2378 4.96298 31.0499 4.97082C30.8621 4.97865 30.6746 4.94914 30.4982 4.88399C29.7572 4.61258 29.3751 3.78908 29.6464 3.04808ZM45.2908 24.55C44.5594 24.4228 43.8433 24.5802 43.2555 24.9413C42.8264 23.4511 41.7192 22.192 40.19 21.6159C40.0978 21.5812 39.9997 21.565 39.9013 21.5682C39.8028 21.5714 39.706 21.5939 39.6162 21.6345C39.5265 21.6751 39.4457 21.733 39.3783 21.8049C39.311 21.8768 39.2584 21.9612 39.2237 22.0534C39.189 22.1455 39.1727 22.2436 39.1759 22.3421C39.1791 22.4405 39.2017 22.5374 39.2423 22.6271C39.2829 22.7168 39.3408 22.7977 39.4127 22.865C39.4845 22.9324 39.569 22.9849 39.6611 23.0196C41.2494 23.618 42.1909 25.2643 41.8999 26.9343C41.6088 28.6042 40.1657 29.8348 38.4686 29.8604C38.2708 29.8635 38.0823 29.9447 37.944 30.0861C37.8058 30.2276 37.729 30.418 37.7305 30.6158C37.7319 30.8136 37.8115 31.0029 37.9518 31.1423C38.0921 31.2817 38.2819 31.3601 38.4797 31.3603H38.4911C40.1245 31.3357 41.5919 30.5262 42.5001 29.2699C42.9465 29.8287 43.5731 30.2014 44.2839 30.3253C44.4535 30.3548 44.6222 30.3691 44.7888 30.3691C46.186 30.3691 47.427 29.3637 47.675 27.941C47.9525 26.3488 46.8831 24.8277 45.2908 24.55ZM46.1974 27.6834C46.0619 28.4608 45.3199 28.9832 44.5417 28.8475C44.1651 28.7818 43.8366 28.5735 43.6167 28.2607C43.3969 27.948 43.3119 27.5684 43.3776 27.1918C43.4987 26.4971 44.1045 26.0062 44.7867 26.0062C44.868 26.0062 44.9504 26.0132 45.0332 26.0276C45.8106 26.1632 46.3329 26.906 46.1974 27.6834ZM38.2404 36.6479C38.8743 35.2333 38.8417 33.5577 38.0463 32.1308C37.9486 31.9587 37.7868 31.8322 37.5963 31.7788C37.4057 31.7255 37.2017 31.7496 37.0289 31.8459C36.856 31.9423 36.7282 32.1031 36.6734 32.2932C36.6186 32.4834 36.6411 32.6875 36.7361 32.8611C37.5624 34.3436 37.2183 36.2087 35.9177 37.2958C34.617 38.3828 32.7204 38.3907 31.408 37.3144C31.2542 37.1882 31.0566 37.1283 30.8587 37.1479C30.6607 37.1674 30.4787 37.2648 30.3525 37.4186C30.2264 37.5724 30.1665 37.77 30.186 37.968C30.2056 38.1659 30.303 38.348 30.4568 38.4741C31.3853 39.2358 32.5191 39.616 33.6524 39.616C34.0608 39.616 34.469 39.5656 34.8677 39.4669C34.8477 40.1819 35.0855 40.871 35.5482 41.4246C36.1272 42.1174 36.9605 42.4748 37.7997 42.4748C38.4861 42.4757 39.1508 42.2347 39.677 41.794C40.9171 40.7575 41.0828 38.9053 40.0463 37.6652C39.5835 37.1116 38.9475 36.7552 38.2403 36.648L38.2404 36.6479ZM38.7152 40.6429C38.1097 41.1489 37.2053 41.068 36.6993 40.4626C36.5783 40.3187 36.4871 40.1522 36.4309 39.9728C36.3747 39.7934 36.3547 39.6046 36.3719 39.4174C36.3881 39.23 36.4414 39.0478 36.5285 38.8811C36.6157 38.7145 36.735 38.5668 36.8797 38.4467C37.1359 38.2312 37.4601 38.1132 37.7949 38.1135C37.8381 38.1135 37.8815 38.1155 37.925 38.1193C38.1123 38.1355 38.2945 38.1888 38.4611 38.2759C38.6277 38.363 38.7754 38.4824 38.8956 38.627C39.4016 39.2324 39.3207 40.1368 38.7153 40.6429H38.7152ZM16.5922 37.3143C15.2799 38.3907 13.3834 38.3827 12.0826 37.2957C10.7819 36.2086 10.4378 34.3436 11.2642 32.8611C11.3121 32.7751 11.3427 32.6805 11.3541 32.5827C11.3654 32.4848 11.3574 32.3857 11.3305 32.291C11.3036 32.1962 11.2583 32.1077 11.1972 32.0305C11.1361 31.9533 11.0603 31.8888 10.9743 31.8409C10.8883 31.7929 10.7936 31.7624 10.6958 31.751C10.598 31.7396 10.4989 31.7476 10.4041 31.7745C10.3094 31.8014 10.2209 31.8467 10.1436 31.9078C10.0664 31.969 10.002 32.0447 9.95401 32.1307C9.15863 33.5577 9.12591 35.2332 9.75985 36.6478C9.0526 36.755 8.4166 37.1114 7.95385 37.665C6.91744 38.905 7.0831 40.7572 8.32304 41.7938C8.84925 42.2345 9.51394 42.4755 10.2003 42.4746C11.0394 42.4746 11.8729 42.1172 12.4518 41.4245C12.9279 40.8548 13.1497 40.156 13.1308 39.4664C13.5288 39.5654 13.9374 39.6156 14.3476 39.6158C15.4809 39.6158 16.6149 39.2355 17.5433 38.474C17.6971 38.3478 17.7944 38.1657 17.814 37.9678C17.8335 37.7698 17.7737 37.5722 17.6475 37.4184C17.5214 37.2646 17.3393 37.1672 17.1413 37.1477C16.9434 37.1281 16.7458 37.188 16.592 37.3142L16.5922 37.3143ZM11.301 40.4626C10.7951 41.068 9.89091 41.149 9.2851 40.6429C8.67976 40.1367 8.59885 39.2324 9.10491 38.627C9.2251 38.4824 9.37277 38.3631 9.53937 38.2759C9.70597 38.1888 9.8882 38.1355 10.0755 38.1193C10.2627 38.1021 10.4515 38.1222 10.6309 38.1784C10.8103 38.2346 10.9768 38.3258 11.1207 38.4467C11.7263 38.9527 11.8071 39.857 11.301 40.4626ZM9.50916 31.3603H9.5206C9.71842 31.3601 9.90815 31.2817 10.0485 31.1423C10.1888 31.0029 10.2684 30.8136 10.2698 30.6158C10.2713 30.418 10.1945 30.2276 10.0563 30.0861C9.91801 29.9447 9.72946 29.8635 9.53166 29.8604C7.8346 29.8348 6.3916 28.6042 6.10041 26.9343C5.80941 25.2643 6.75085 23.6179 8.33916 23.0196C8.52257 22.9475 8.67024 22.8061 8.75023 22.626C8.83022 22.4459 8.83611 22.2415 8.76663 22.0571C8.69715 21.8727 8.55788 21.723 8.37893 21.6405C8.19997 21.5579 7.99572 21.5491 7.81032 21.6159C6.28163 22.1918 5.17482 23.4501 4.74526 24.9396C4.13607 24.5647 3.4201 24.4261 2.70948 24.5501C1.9381 24.6845 1.26544 25.1113 0.815069 25.7518C0.364788 26.3923 0.190881 27.1698 0.325319 27.941C0.459757 28.7123 0.886507 29.3851 1.52691 29.8355C2.02623 30.1866 2.6086 30.3696 3.20663 30.3695C3.37747 30.3695 3.54798 30.3547 3.71626 30.3252C4.42707 30.2013 5.05369 29.8287 5.50013 29.2698C6.40829 30.526 7.87566 31.3356 9.50907 31.3602L9.50916 31.3603ZM4.38366 28.2608C4.27592 28.4149 4.1387 28.5461 3.97994 28.6468C3.82118 28.7475 3.64402 28.8157 3.45873 28.8475C3.2736 28.8803 3.08381 28.8761 2.90034 28.8351C2.71686 28.794 2.54336 28.717 2.38988 28.6084C2.23577 28.5007 2.10455 28.3634 2.00382 28.2047C1.9031 28.0459 1.83488 27.8687 1.8031 27.6834C1.73748 27.3067 1.82241 26.9272 2.04226 26.6145C2.15 26.4604 2.28722 26.3292 2.44598 26.2285C2.60474 26.1278 2.7819 26.0596 2.96719 26.0278C3.15231 25.995 3.34211 25.9992 3.52559 26.0402C3.70906 26.0813 3.88256 26.1584 4.03604 26.267C4.34879 26.4868 4.55719 26.8153 4.62282 27.1919C4.68844 27.5685 4.60351 27.9481 4.38366 28.2608Z" fill="#00CC33"/>
  </g>
  <defs>
    <clipPath id="clip0_2585_2031">
      <rect width="48" height="48" fill="white"/>
    </clipPath>
  </defs>
</svg>