<svg xmlns="http://www.w3.org/2000/svg" width="49" height="49" viewBox="0 0 49 49" fill="none">
  <path d="M47.0691 14.1558L24.866 2.10328C24.7538 2.04224 24.6281 2.01025 24.5004 2.01025C24.3727 2.01025 24.247 2.04224 24.1348 2.10328L1.93091 14.1558C1.80991 14.2216 1.70892 14.3189 1.63858 14.4373C1.56824 14.5558 1.53116 14.691 1.53125 14.8287V19.0795C1.53125 19.2825 1.61191 19.4773 1.7555 19.6209C1.89908 19.7644 2.09382 19.8451 2.29688 19.8451H4.30588V22.9819C4.30588 23.1849 4.38654 23.3797 4.53012 23.5233C4.6737 23.6668 4.86844 23.7475 5.0715 23.7475H5.93206V35.114H5.0715C4.86844 35.114 4.6737 35.1946 4.53012 35.3382C4.38654 35.4818 4.30588 35.6765 4.30588 35.8796V39.0164H2.29688C2.09382 39.0164 1.89908 39.097 1.7555 39.2406C1.61191 39.3842 1.53125 39.5789 1.53125 39.782V46.2247C1.53125 46.4278 1.61191 46.6225 1.7555 46.7661C1.89908 46.9097 2.09382 46.9903 2.29688 46.9903H46.7031C46.9062 46.9903 47.1009 46.9097 47.2445 46.7661C47.3881 46.6225 47.4688 46.4278 47.4688 46.2247V39.782C47.4688 39.5789 47.3881 39.3842 47.2445 39.2406C47.1009 39.097 46.9062 39.0164 46.7031 39.0164H44.6941V35.8796C44.6941 35.6765 44.6135 35.4818 44.4699 35.3382C44.3263 35.1946 44.1316 35.114 43.9285 35.114H43.0679V23.7475H43.9285C44.1316 23.7475 44.3263 23.6668 44.4699 23.5233C44.6135 23.3797 44.6941 23.1849 44.6941 22.9819V19.8451H46.7031C46.9062 19.8451 47.1009 19.7644 47.2445 19.6209C47.3881 19.4773 47.4688 19.2825 47.4688 19.0795V14.8287C47.4688 14.691 47.4318 14.5558 47.3614 14.4373C47.2911 14.3189 47.1901 14.2216 47.0691 14.1558ZM5.83712 19.8451H12.6397V22.2163H5.83712V19.8451ZM19.5678 19.8451V22.9819C19.5678 23.1849 19.6485 23.3797 19.7921 23.5233C19.9357 23.6668 20.1304 23.7475 20.3335 23.7475H21.1933V35.114H20.3335C20.1304 35.114 19.9357 35.1946 19.7921 35.3382C19.6485 35.4818 19.5678 35.6765 19.5678 35.8796V39.0164H14.171V35.8796C14.171 35.6765 14.0903 35.4818 13.9467 35.3382C13.8031 35.1946 13.6084 35.114 13.4053 35.114H12.5455V23.7475H13.4053C13.6084 23.7475 13.8031 23.6668 13.9467 23.5233C14.0903 23.3797 14.171 23.1849 14.171 22.9819V19.8451H19.5678ZM34.8298 19.8451V22.9819C34.8298 23.1849 34.9105 23.3797 35.0541 23.5233C35.1976 23.6668 35.3924 23.7475 35.5954 23.7475H36.4552V35.114H35.5954C35.3924 35.114 35.1976 35.1946 35.0541 35.3382C34.9105 35.4818 34.8298 35.6765 34.8298 35.8796V39.0164H29.4329V35.8796C29.4329 35.6765 29.3523 35.4818 29.2087 35.3382C29.0651 35.1946 28.8704 35.114 28.6673 35.114H27.8075V23.7475H28.6673C28.8704 23.7475 29.0651 23.6668 29.2087 23.5233C29.3523 23.3797 29.4329 23.1849 29.4329 22.9819V19.8451H34.8298ZM22.7245 23.7475H26.2762V35.114H22.7245V23.7475ZM21.9589 36.6452H27.9017V39.0164H21.0991V36.6452H21.9589ZM27.9017 22.2163H21.0991V19.8451H27.9017V22.2163ZM7.46408 23.7475H11.015V35.114H7.46408V23.7475ZM5.83789 36.6452H12.6405V39.0164H5.83712L5.83789 36.6452ZM45.9383 45.4591H3.0625V40.5476H45.9375L45.9383 45.4591ZM43.1636 39.0164H36.3611V36.6452H43.1636V39.0164ZM41.5375 35.114H37.9865V23.7475H41.5375V35.114ZM43.1636 22.2163H36.3611V19.8451H43.1636V22.2163ZM45.9383 18.3139H3.0625V15.2843L24.5 3.64755L45.9375 15.2843L45.9383 18.3139Z" fill="#00CC33"/>
  <path d="M20.3296 11.8144C20.3296 14.1143 22.2001 15.9848 24.5 15.9848C26.7999 15.9848 28.6704 14.1143 28.6704 11.8144C28.6704 9.51446 26.7999 7.64404 24.5 7.64404C22.2001 7.64404 20.3296 9.51446 20.3296 11.8144ZM27.1399 11.8144C27.1399 13.2691 25.9555 14.4535 24.5008 14.4535C23.0461 14.4535 21.8617 13.2691 21.8617 11.8144C21.8617 10.3597 23.0461 9.17529 24.5008 9.17529C25.9555 9.17529 27.1399 10.3597 27.1399 11.8144ZM30.8355 14.6457H35.9844C36.1874 14.6457 36.3822 14.565 36.5258 14.4214C36.6693 14.2779 36.75 14.0831 36.75 13.8801C36.75 13.677 36.6693 13.4823 36.5258 13.3387C36.3822 13.1951 36.1874 13.1144 35.9844 13.1144H30.8355C30.6325 13.1144 30.4378 13.1951 30.2942 13.3387C30.1506 13.4823 30.0699 13.677 30.0699 13.8801C30.0699 14.0831 30.1506 14.2779 30.2942 14.4214C30.4378 14.565 30.6325 14.6457 30.8355 14.6457ZM18.1645 13.1144H13.0156C12.8126 13.1144 12.6178 13.1951 12.4742 13.3387C12.3307 13.4823 12.25 13.677 12.25 13.8801C12.25 14.0831 12.3307 14.2779 12.4742 14.4214C12.6178 14.565 12.8126 14.6457 13.0156 14.6457H18.1645C18.3675 14.6457 18.5622 14.565 18.7058 14.4214C18.8494 14.2779 18.9301 14.0831 18.9301 13.8801C18.9301 13.677 18.8494 13.4823 18.7058 13.3387C18.5622 13.1951 18.3675 13.1144 18.1645 13.1144Z" fill="#00CC33"/>
</svg>