<svg xmlns="http://www.w3.org/2000/svg" width="42" height="42" viewBox="0 0 42 42" fill="none">
  <g clip-path="url(#clip0_2585_2041)">
    <path d="M41.2169 23.8224H36.9055V18.6645C36.848 16.1826 35.2985 13.9813 32.9821 13.0895V12.5321C32.9859 12.4735 32.9859 12.4146 32.9821 12.3557C32.9858 11.548 32.8302 10.7475 32.5243 10C32.2185 9.25248 31.7682 8.57259 31.1994 7.99919C30.6305 7.42576 29.9542 6.97005 29.2091 6.65812C28.464 6.34619 27.6648 6.18416 26.857 6.18128H23.7453V0.705645C23.7453 0.518496 23.671 0.339013 23.5386 0.206679C23.4063 0.0743446 23.2268 0 23.0397 0L13.993 0C13.8059 0 13.6264 0.0743446 13.4941 0.206679C13.3617 0.339013 13.2874 0.518496 13.2874 0.705645V6.18128H6.1676C2.77582 6.18128 0.025131 8.92879 0.0214263 12.3206C0.0110871 12.3694 0.0110871 12.4199 0.0214263 12.4688V35.6702C0.0145355 35.7312 0.0145355 35.7928 0.0214263 35.8538C0.0231096 36.5215 0.135111 37.1843 0.352903 37.8154C0.409158 37.9851 0.472726 38.1523 0.543427 38.3164C0.613992 38.4787 0.635426 38.507 0.684733 38.6058C0.733952 38.7047 0.748064 38.7398 0.783523 38.8036C1.30865 39.773 2.0865 40.582 3.03448 41.1448C3.98245 41.7076 5.06515 42.0031 6.1676 42H30.7804C34.1174 42.0083 36.8438 39.3383 36.9055 36.002V32.1069H41.2169C41.4041 32.1069 41.5835 32.0325 41.7159 31.9002C41.8482 31.7678 41.9226 31.5884 41.9226 31.4012V24.5281C41.9226 24.3409 41.8482 24.1614 41.7159 24.0291C41.5835 23.8967 41.4041 23.8224 41.2169 23.8224ZM26.857 7.59257C29.4666 7.6043 31.5746 9.72503 31.5707 12.3347C31.5652 12.4004 31.5652 12.4664 31.5707 12.5321V12.7723C31.3066 12.7357 31.0402 12.7169 30.7735 12.7158H23.9568L26.0738 10.2812C26.1619 10.1787 26.2187 10.0531 26.2374 9.91921C26.2562 9.78538 26.2361 9.64897 26.1796 9.52621C26.1229 9.40375 26.0323 9.30011 25.9186 9.22757C25.8048 9.15503 25.6726 9.11664 25.5376 9.11694H23.7453V7.59248L26.857 7.59257ZM14.6987 1.41129H22.3339V9.75907C22.3339 9.94622 22.4083 10.1257 22.5406 10.258C22.6729 10.3904 22.8524 10.4647 23.0396 10.4647H23.9778L22.0937 12.6523H18.6503C18.5964 12.6451 18.5418 12.6451 18.488 12.6523H14.9107L13.0477 10.4789H13.9931C14.1803 10.4789 14.3597 10.4046 14.4921 10.2722C14.6244 10.1399 14.6988 9.96042 14.6988 9.77327L14.6987 1.41129ZM6.16742 7.59257H13.2874V9.05352H11.5163C11.3813 9.05318 11.2491 9.09155 11.1352 9.16409C11.0214 9.23663 10.9308 9.3403 10.8741 9.46279C10.8176 9.58555 10.7975 9.72196 10.8163 9.85579C10.835 9.98963 10.8918 10.1153 10.9799 10.2177L13.0544 12.6382H6.1676C5.30616 12.6345 4.46216 12.3951 3.72702 11.946C2.99188 11.4969 2.39363 10.8553 1.99706 10.0906C2.40097 9.33564 3.00225 8.70454 3.73675 8.2646C4.47126 7.82467 5.31142 7.59239 6.1676 7.59257H6.16742ZM35.4941 35.981C35.4403 38.5445 33.3445 40.5932 30.7803 40.5887H6.16751C5.39441 40.5879 4.63329 40.3977 3.95064 40.0348C3.268 39.6719 2.68461 39.1474 2.25144 38.5071V38.4647C2.18115 38.3655 2.11751 38.2618 2.06092 38.1542L1.93381 37.8651C1.93514 37.8393 1.93514 37.8131 1.93381 37.7872C1.68689 37.2237 1.55264 36.6172 1.53865 36.0021V12.4264C1.542 12.3912 1.542 12.3558 1.53865 12.3206V11.8407C2.10267 12.5261 2.80858 13.0809 3.60772 13.4672C4.40687 13.8534 5.28025 14.0617 6.16768 14.0779H30.7805C33.3381 14.0692 35.433 16.1076 35.4943 18.6646V23.8225H30.9217C30.7346 23.8225 30.5551 23.8968 30.4228 24.0292C30.2904 24.1615 30.2161 24.341 30.2161 24.5281V31.4364C30.2161 31.6236 30.2904 31.803 30.4228 31.9354C30.5551 32.0677 30.7346 32.142 30.9217 32.142H35.4943L35.4941 35.981ZM40.5113 30.6956H31.6273V25.2337H40.5113V30.6956Z" fill="#00CC33"/>
    <path d="M21.318 26.4475C20.9286 26.1674 20.5098 25.9308 20.069 25.7419C19.6806 25.5796 19.3209 25.4173 18.9822 25.255C18.7255 25.147 18.4874 24.9993 18.2765 24.8175C18.2328 24.7844 18.199 24.7399 18.1791 24.6888C18.1591 24.6376 18.1537 24.582 18.1636 24.528V24.3939C18.476 24.2424 18.8349 24.2172 19.1655 24.3237C19.3289 24.3669 19.4893 24.4212 19.6454 24.486C19.7444 24.5229 19.8388 24.5701 19.9277 24.6269C19.9841 24.6269 20.0265 24.6975 20.0123 24.6766C20.0838 24.746 20.1692 24.7994 20.2629 24.8335C20.3565 24.8675 20.4563 24.8813 20.5557 24.874C20.6555 24.8656 20.7525 24.8362 20.8401 24.7875C20.9276 24.7388 21.0039 24.6721 21.0637 24.5917L22.2634 23.1167C22.3652 22.9802 22.4142 22.8113 22.4012 22.6415C22.3882 22.4716 22.3142 22.3122 22.1928 22.1927C21.7176 21.7172 21.141 21.3553 20.5061 21.1342L20.1746 20.9998V19.3629C20.1746 19.1757 20.1003 18.9962 19.968 18.8639C19.8356 18.7316 19.6561 18.6572 19.469 18.6572H17.5637C17.3765 18.6572 17.197 18.7316 17.0647 18.8639C16.9324 18.9962 16.858 19.1757 16.858 19.3629V21.1059C16.5436 21.2311 16.247 21.3971 15.976 21.5997C15.5531 21.9142 15.2059 22.3192 14.9598 22.7853C14.6757 23.3391 14.535 23.9553 14.5506 24.5776C14.5277 25.226 14.6839 25.8681 15.0022 26.4334C15.2686 26.8877 15.6238 27.2837 16.0465 27.5977C16.4415 27.8887 16.8734 28.126 17.3308 28.3033C17.726 28.4656 18.0929 28.6138 18.4247 28.7691C18.6766 28.8745 18.9138 29.0121 19.1304 29.1784C19.1837 29.217 19.211 29.2825 19.2009 29.3477C19.2058 29.3966 19.1955 29.4459 19.1715 29.4888C19.1474 29.5317 19.1108 29.5663 19.0666 29.5878C18.8858 29.6904 18.6845 29.7519 18.4771 29.7678C18.2698 29.7836 18.0615 29.7535 17.8672 29.6795C17.6597 29.622 17.4569 29.5488 17.2605 29.4607C17.1247 29.3981 16.9927 29.3275 16.8653 29.2491L16.8016 29.2068C16.7357 29.1336 16.6552 29.0751 16.5653 29.035C16.4753 28.9948 16.378 28.974 16.2796 28.9738C16.1377 28.9837 16.0001 29.0264 15.8776 29.0987C15.7552 29.171 15.6512 29.2707 15.5739 29.3901L15.2211 29.8135C15.0658 29.9899 14.9176 30.1804 14.7625 30.3709C14.6615 30.5104 14.5506 30.6425 14.4307 30.7661C14.3027 30.8924 14.2278 31.0629 14.2212 31.2426C14.2147 31.4223 14.2771 31.5977 14.3956 31.733C14.8978 32.2808 15.5281 32.6955 16.23 32.9397C16.4346 33.0099 16.6465 33.0736 16.858 33.1302V33.9699C16.858 34.1571 16.9324 34.3365 17.0647 34.4689C17.197 34.6012 17.3765 34.6755 17.5637 34.6755H19.4691C19.6562 34.6755 19.8357 34.6012 19.968 34.4689C20.1004 34.3365 20.1747 34.1571 20.1747 33.9699V33.0523C20.7002 32.8741 21.1814 32.5855 21.586 32.2057C21.9789 31.8382 22.2896 31.3916 22.4976 30.8954C22.7056 30.3992 22.8061 29.8645 22.7927 29.3267C22.8272 28.7134 22.6903 28.1025 22.3975 27.5626C22.115 27.1231 21.7481 26.7441 21.318 26.4475ZM20.6123 31.1824C20.2422 31.512 19.7877 31.7319 19.2996 31.8174C19.1378 31.8505 18.9927 31.9392 18.8896 32.0681C18.7865 32.197 18.7318 32.358 18.7351 32.5231V33.2852H18.2411V32.5795C18.243 32.4093 18.1834 32.2442 18.0731 32.1145C17.9629 31.9848 17.8095 31.8994 17.6412 31.8739C17.3146 31.8239 16.9933 31.7437 16.6815 31.6341C16.3972 31.5321 16.1269 31.3945 15.8771 31.2248L16.2654 30.7448L16.3712 30.6249C16.46 30.6752 16.552 30.72 16.6464 30.759C16.8996 30.8775 17.1614 30.9766 17.4297 31.0553C17.8291 31.191 18.2538 31.2355 18.6727 31.1854C19.0915 31.1354 19.4938 30.9921 19.85 30.7662C20.0761 30.6085 20.2591 30.3968 20.3823 30.1503C20.5056 29.9038 20.5652 29.6303 20.5557 29.3549C20.5698 29.11 20.5268 28.8652 20.4301 28.6398C20.3333 28.4145 20.1855 28.2147 19.9982 28.0562C19.6874 27.824 19.3513 27.6276 18.9963 27.4708C18.6504 27.3155 18.2907 27.1532 17.8458 26.9839C17.5029 26.8529 17.18 26.6748 16.8862 26.4547C16.6008 26.2523 16.3605 25.9928 16.1806 25.6926C15.999 25.345 15.9137 24.9552 15.9336 24.5636C15.9202 24.1755 16.0027 23.7902 16.1737 23.4416C16.3256 23.1653 16.5348 22.9247 16.7874 22.7359C17.0407 22.5507 17.3251 22.4121 17.6271 22.3267H17.7259C17.8785 22.284 18.0123 22.1912 18.1058 22.0632C18.1992 21.9351 18.2469 21.7794 18.241 21.621V20.0685H18.7351V21.5431C18.7321 21.7092 18.7877 21.8711 18.8923 22.0001C18.9969 22.1292 19.1436 22.2173 19.3067 22.2488C19.5466 22.2974 19.7822 22.3632 20.0123 22.4465C20.2601 22.5342 20.4969 22.6501 20.718 22.7921L20.358 23.2794L20.2804 23.2156C20.0712 23.1274 19.8567 23.052 19.6383 22.99C18.9708 22.7943 18.2546 22.8521 17.6271 23.1523C17.361 23.2687 17.1357 23.4617 16.9799 23.7067C16.8241 23.9518 16.7448 24.2377 16.7523 24.528C16.7468 24.7758 16.7958 25.0218 16.8957 25.2486C16.9957 25.4754 17.1442 25.6776 17.3307 25.8408C17.6366 26.112 17.9816 26.3356 18.3541 26.5041C18.6997 26.6664 19.0597 26.8355 19.4901 27.0119C19.8347 27.1575 20.1614 27.3423 20.4638 27.5625C20.7296 27.7535 20.9571 27.9929 21.1342 28.2681C21.3059 28.5784 21.3889 28.9299 21.3741 29.2842C21.3956 29.6348 21.3411 29.9859 21.2144 30.3135C21.0878 30.6411 20.8919 30.9375 20.6402 31.1824H20.6123Z" fill="#00CC33"/>
  </g>
  <defs>
    <clipPath id="clip0_2585_2041">
      <rect width="42" height="42" fill="white"/>
    </clipPath>
  </defs>
</svg>