<svg width="17" height="16" viewBox="0 0 17 16" fill="none" xmlns="http://www.w3.org/2000/svg">
<path d="M0.292188 0.194946H16.0422V15.9449H0.292188V0.194946ZM13.3703 3.95667V3.78088H10.4523L8.34297 8.94885L5.9875 3.74573H2.92891V3.95667L3.91328 5.11682C3.98359 5.22229 4.05391 5.36292 4.01875 5.46838V10.1442C4.05391 10.3199 4.01875 10.4957 3.87813 10.6012L2.78828 11.9723V12.1481H5.95234V11.9723L4.82734 10.6012C4.72188 10.4957 4.65156 10.3199 4.68672 10.1442V6.1012L7.42891 12.1481H7.74531L10.1359 6.1012V10.9176C10.1359 11.0582 10.1359 11.0582 10.0656 11.1637L9.18672 11.9723V12.1481H13.3352V11.9723L12.5266 11.1637C12.4563 11.1285 12.4211 11.0231 12.4211 10.9528V4.9762C12.4211 4.90588 12.4563 4.80042 12.5266 4.76526L13.3703 3.95667Z" fill="#00CC33"/>
</svg>
