<svg width="17" height="17" viewBox="0 0 17 17" fill="none" xmlns="http://www.w3.org/2000/svg">
<path d="M0.892285 0.324951H16.6423V16.075H0.892285V0.324951ZM13.9704 4.08667V3.91089H11.0524L8.94307 9.07886L6.5876 3.87573H3.529V4.08667L4.51338 5.24683C4.58369 5.35229 4.654 5.49292 4.61885 5.59839V10.2742C4.654 10.45 4.61885 10.6257 4.47822 10.7312L3.38838 12.1023V12.2781H6.55244V12.1023L5.42744 10.7312C5.32197 10.6257 5.25166 10.45 5.28682 10.2742V6.2312L8.029 12.2781H8.34541L10.736 6.2312V11.0476C10.736 11.1882 10.736 11.1882 10.6657 11.2937L9.78682 12.1023V12.2781H13.9353V12.1023L13.1267 11.2937C13.0563 11.2585 13.0212 11.1531 13.0212 11.0828V5.1062C13.0212 5.03589 13.0563 4.93042 13.1267 4.89526L13.9704 4.08667Z" fill="white"/>
</svg>
