<svg xmlns="http://www.w3.org/2000/svg" width="17" height="16" viewBox="0 0 17 16" fill="none">
  <g clip-path="url(#clip0_2720_125)">
    <path d="M8.41531 0.0501022C6.92094 0.0708444 5.58223 0.433833 4.39918 1.13907C3.19538 1.8443 2.24064 2.79844 1.53496 4.00149C0.829284 5.18379 0.466068 6.52166 0.445312 8.0151C0.466068 9.50854 0.829284 10.8464 1.53496 12.0287C2.24064 13.2318 3.19538 14.1859 4.39918 14.8911C5.58223 15.5964 6.92094 15.9594 8.41531 15.9801C9.90969 15.9594 11.2484 15.5964 12.4314 14.8911C13.6352 14.1859 14.59 13.2318 15.2957 12.0287C16.0013 10.8464 16.3646 9.50854 16.3853 8.0151C16.3646 6.52166 16.0013 5.18379 15.2957 4.00149C14.59 2.79844 13.6352 1.8443 12.4314 1.13907C11.2484 0.433833 9.90969 0.0708444 8.41531 0.0501022ZM8.41531 12.4954C8.12474 12.4954 7.88605 12.4021 7.69926 12.2154C7.51246 12.0287 7.41906 11.7902 7.41906 11.4998C7.46057 10.8983 7.79266 10.5664 8.41531 10.5042C8.68513 10.5042 8.91344 10.5975 9.10023 10.7842C9.30779 10.9709 9.41156 11.2094 9.41156 11.4998C9.41156 11.7902 9.30779 12.0287 9.10023 12.2154C8.91344 12.4021 8.68513 12.4954 8.41531 12.4954ZM10.5635 8.07733L9.1625 8.9485V9.01073C9.12099 9.46706 8.87193 9.71596 8.41531 9.75745C7.9587 9.71596 7.70964 9.46706 7.66812 9.01073V8.51291C7.66812 8.24327 7.79266 8.02547 8.04172 7.85954L9.81629 6.80168C10.0446 6.67723 10.1587 6.48018 10.1587 6.21053C10.1172 5.79569 9.87855 5.56752 9.4427 5.52604H7.85492C7.41906 5.56752 7.19076 5.79569 7.17 6.21053C7.12849 6.66686 6.87943 6.91577 6.42281 6.95725C5.9662 6.91577 5.71714 6.66686 5.67562 6.21053C5.69638 5.58827 5.90393 5.06971 6.29828 4.65487C6.71339 4.26077 7.22189 4.05334 7.82379 4.0326H9.41156C10.055 4.05334 10.5842 4.26077 10.9993 4.65487C11.4144 5.06971 11.6324 5.58827 11.6531 6.21053C11.6324 6.99874 11.2692 7.621 10.5635 8.07733Z" fill="#7376AA"/>
  </g>
  <defs>
    <clipPath id="clip0_2720_125">
      <rect width="16.01" height="15.93" fill="white" transform="matrix(1 0 0 -1 0.410156 15.9801)"/>
    </clipPath>
  </defs>
</svg>