<svg xmlns="http://www.w3.org/2000/svg" width="33" height="33" viewBox="0 0 33 33" fill="none">
  <g clip-path="url(#clip0_2585_2543)">
    <path d="M11.5868 20.8777C12.8148 20.8777 13.8103 19.8822 13.8103 18.6542C13.8103 17.4262 12.8148 16.4307 11.5868 16.4307C10.3588 16.4307 9.36334 17.4262 9.36334 18.6542C9.36334 19.8822 10.3588 20.8777 11.5868 20.8777Z" fill="white"/>
    <path d="M33 16.8555C33 14.1081 30.8372 11.8731 28.1786 11.8731C27.2457 11.8731 26.3797 12.1554 25.6424 12.6282C23.3551 11.2999 20.4706 10.4747 17.3205 10.3618L19.1361 5.14923L22.897 6.04972C22.8845 6.17417 22.8604 6.2934 22.8604 6.421C22.8618 7.41793 23.2585 8.37362 23.9635 9.07846C24.6686 9.78331 25.6244 10.1798 26.6213 10.1809C28.6921 10.1809 30.3822 8.49494 30.3822 6.421C30.3822 4.34706 28.6932 2.66113 26.6213 2.66113C25.269 2.66113 24.0935 3.38278 23.4314 4.45478L18.0536 3.16837L15.5436 10.3723C12.4081 10.5333 9.55394 11.4077 7.30953 12.7715C7.3545 12.7401 7.3932 12.7045 7.43817 12.6731C6.66519 12.1523 5.75459 11.8734 4.82248 11.872C2.16286 11.872 0.00106587 14.106 0.00106587 16.8545C-0.00184121 17.718 0.219453 18.5675 0.6433 19.3199C1.06715 20.0723 1.67903 20.7017 2.41909 21.1467C3.00896 26.284 9.13246 30.3388 16.5894 30.3388C24.0945 30.3388 30.2494 26.2296 30.7702 21.0452C31.4593 20.5856 32.0236 19.9624 32.4128 19.2312C32.8019 18.5 33.0037 17.6838 33 16.8555ZM26.6192 4.3366C27.7686 4.3366 28.7047 5.27264 28.7047 6.42309C28.6875 6.96503 28.4602 7.47902 28.0707 7.85631C27.6813 8.23359 27.1604 8.44455 26.6182 8.44455C26.076 8.44455 25.555 8.23359 25.1656 7.85631C24.7762 7.47902 24.5489 6.96503 24.5317 6.42309C24.5317 5.2716 25.4688 4.3366 26.6192 4.3366ZM4.82143 13.5464C5.20108 13.5464 5.55876 13.6291 5.89553 13.7587C4.07573 15.2177 2.85312 17.048 2.48498 19.0686C1.95806 18.4518 1.66941 17.6667 1.6713 16.8555C1.6713 15.0316 3.08531 13.5464 4.82143 13.5464ZM16.5873 28.6675C9.66271 28.6675 4.03076 24.9317 4.03076 20.3393C4.03076 15.7459 9.66271 12.0111 16.5873 12.0111C23.5109 12.0111 29.1418 15.7469 29.1418 20.3393C29.1418 24.9306 23.5109 28.6675 16.5873 28.6675ZM30.6489 18.8866C30.2379 16.9204 29.0184 15.1414 27.2269 13.719C27.5325 13.6095 27.854 13.5512 28.1786 13.5464C29.9137 13.5464 31.3266 15.0305 31.3266 16.8555C31.3249 17.5878 31.0873 18.3 30.6489 18.8866Z" fill="white"/>
    <path d="M21.1483 20.8777C22.3763 20.8777 23.3718 19.8822 23.3718 18.6542C23.3718 17.4262 22.3763 16.4307 21.1483 16.4307C19.9203 16.4307 18.9248 17.4262 18.9248 18.6542C18.9248 19.8822 19.9203 20.8777 21.1483 20.8777Z" fill="white"/>
    <path d="M20.7907 23.5968C16.0801 26.7061 12.2795 23.7767 12.11 23.6439C12.0245 23.575 11.9262 23.5236 11.8208 23.4927C11.7153 23.4619 11.6049 23.452 11.4957 23.4638C11.3865 23.4756 11.2807 23.5088 11.1843 23.5615C11.0879 23.6142 11.0028 23.6854 10.934 23.7709C10.8651 23.8565 10.8137 23.9548 10.7828 24.0602C10.752 24.1656 10.7421 24.2761 10.7539 24.3853C10.7657 24.4945 10.7989 24.6003 10.8516 24.6967C10.9043 24.7931 10.9755 24.8781 11.061 24.947C11.0924 24.9731 13.2636 26.68 16.4169 26.68C17.9846 26.68 19.7971 26.2564 21.711 24.9941C21.8923 24.8703 22.0177 24.6803 22.0601 24.4649C22.1026 24.2495 22.0587 24.0261 21.938 23.8428C21.8172 23.6595 21.6293 23.531 21.4147 23.485C21.2001 23.439 20.9759 23.4791 20.7907 23.5968Z" fill="white"/>
  </g>
  <defs>
    <clipPath id="clip0_2585_2543">
      <rect width="33" height="33" fill="white"/>
    </clipPath>
  </defs>
</svg>