<svg xmlns="http://www.w3.org/2000/svg" width="51" height="51" viewBox="0 0 51 51" fill="none">
  <g clip-path="url(#clip0_2585_2108)">
    <path d="M12.5733 7.43753V6.57422C12.5733 5.80404 13.1976 5.17969 13.9678 5.17969H36.6345C37.4047 5.17969 38.029 5.80404 38.029 6.57422V25.1569C38.029 25.9271 37.4047 26.5515 36.6345 26.5515H13.9678C13.1976 26.5515 12.5733 25.9271 12.5733 25.1569V10.9239M25.5016 5.17969C25.5016 5.17969 23.8722 0.74707 19.3898 0.74707C14.9074 0.74707 16.3128 5.17969 19.9597 5.17969H25.5016Z" stroke="#00CC33" stroke-width="1.7" stroke-miterlimit="10" stroke-linecap="round" stroke-linejoin="round"/>
    <path d="M23.3086 26.3854V5.17969H27.6914V26.3854M23.1758 18.0704H12.5729V13.6876H23.1536M27.8021 13.6876H38.0287V18.0704H27.8021M6.90064 32.8717L5.11295 31.9371C3.65327 31.1739 1.85104 31.7415 1.08744 33.2045C0.323929 34.6675 0.888216 36.4723 2.34779 37.2354L12.8089 42.7043M38.0418 48.1333L40.8279 47.7219H46.9272V35.9363L41.0592 35.9362C37.9269 30.4347 31.9862 33.0572 30.273 34.0721C29.6755 34.426 28.9463 34.4762 28.3137 34.1902L22.5122 31.5678C21.15 30.952 19.5462 31.5592 18.9328 32.923C18.3202 34.2849 18.9273 35.8852 20.2888 36.4974L26.8571 39.4507M25.4988 5.17969C25.4988 5.17969 27.1281 0.74707 31.6105 0.74707C36.093 0.74707 34.6876 5.17969 31.0407 5.17969H25.4988Z" stroke="#00CC33" stroke-width="1.7" stroke-miterlimit="10" stroke-linecap="round" stroke-linejoin="round"/>
    <path d="M43.2451 43.0061C42.6234 38.9719 39.1323 36.6356 34.5372 36.9914C29.4599 37.3845 22.103 42.3939 22.103 42.3939L10.3813 33.1777C9.08533 32.1587 7.20958 32.3843 6.19137 33.6812C5.17327 34.9782 5.39848 36.8557 6.6944 37.8746L21.626 49.6147C21.9448 49.8653 22.3113 50.0483 22.7031 50.1525C23.095 50.2567 23.504 50.2799 23.9051 50.2207L34.5856 48.6434M49.6458 49.6885H47.5335C47.4538 49.6885 47.3749 49.6728 47.3013 49.6423C47.2277 49.6118 47.1608 49.5671 47.1044 49.5108C47.0481 49.4545 47.0034 49.3876 46.9729 49.314C46.9424 49.2404 46.9267 49.1615 46.9267 49.0818V35.936H49.6458C49.7254 35.936 49.8043 35.9517 49.8779 35.9822C49.9516 36.0127 50.0184 36.0574 50.0748 36.1137C50.1311 36.1701 50.1758 36.237 50.2063 36.3106C50.2368 36.3842 50.2525 36.4631 50.2525 36.5428V49.0818C50.2525 49.1615 50.2368 49.2404 50.2063 49.314C50.1758 49.3876 50.1311 49.4545 50.0748 49.5108C50.0184 49.5671 49.9516 49.6118 49.8779 49.6423C49.8043 49.6728 49.7254 49.6885 49.6458 49.6885Z" stroke="#00CC33" stroke-width="1.7" stroke-miterlimit="10" stroke-linecap="round" stroke-linejoin="round"/>
  </g>
  <defs>
    <clipPath id="clip0_2585_2108">
      <rect width="51" height="51" fill="white"/>
    </clipPath>
  </defs>
</svg>