<svg xmlns="http://www.w3.org/2000/svg" width="27" height="27" viewBox="0 0 27 27" fill="none">
  <g clip-path="url(#clip0_2585_2538)">
    <path d="M26.4713 2.21209C26.2576 2.01655 25.9957 1.88143 25.7126 1.82058C25.4294 1.75974 25.1351 1.77538 24.86 1.86589L1.11962 9.69172C0.472617 9.90498 0.0338675 10.4825 0.00185769 11.163C-0.0300993 11.8434 0.352489 12.4596 0.976547 12.7328L6.84773 15.3016L8.61913 23.5173C8.69269 23.8586 8.86593 24.1626 9.2329 24.2561C9.6041 24.3507 9.86635 24.1478 10.1433 23.9404L14.5002 20.678L19.5938 24.8461C19.8905 25.089 20.2531 25.2157 20.6228 25.2157C20.8019 25.2155 20.9798 25.186 21.1494 25.1283C21.6855 24.9465 22.0829 24.509 22.2125 23.958L26.9568 3.78695C27.0229 3.50498 27.0128 3.21049 26.9275 2.93372C26.8422 2.65695 26.6847 2.40787 26.4713 2.21209ZM10.5228 16.7735C10.5199 16.7804 10.5171 16.7881 10.5144 16.7974L9.53228 20.2287L8.43625 15.1454L15.9729 10.958L10.7036 16.4676C10.621 16.5546 10.5592 16.6592 10.5228 16.7735ZM10.8346 21.4418L11.2806 19.8833L11.7073 18.3925L13.2361 19.6436L10.8346 21.4418ZM25.4131 3.42382L20.6689 23.5948C20.6665 23.6048 20.6633 23.6187 20.6401 23.6265C20.6171 23.6343 20.606 23.6254 20.5981 23.6189L15.0245 19.058L15.0241 19.0576L12.4417 16.9444L20.7381 8.26974C20.8692 8.13263 20.9468 7.95306 20.9568 7.76362C20.9668 7.57417 20.9086 7.38742 20.7926 7.23725C20.6767 7.08707 20.5108 6.98343 20.325 6.94516C20.1392 6.9069 19.9458 6.93653 19.7799 7.02869L7.49541 13.854L1.61221 11.2799C1.59428 11.2721 1.58442 11.2677 1.58584 11.2374C1.58726 11.2072 1.59749 11.2038 1.61606 11.1977L25.3564 3.37188C25.3679 3.36813 25.3809 3.36381 25.4 3.38121C25.4191 3.39872 25.4159 3.41201 25.4131 3.42382Z" fill="white"/>
  </g>
  <defs>
    <clipPath id="clip0_2585_2538">
      <rect width="27" height="27" fill="white"/>
    </clipPath>
  </defs>
</svg>