<svg width="18" height="18" viewBox="0 0 18 18" fill="none" xmlns="http://www.w3.org/2000/svg">
<path d="M8.77128 0.481201C13.5877 0.481201 17.49 4.38354 17.49 9.19995C17.49 14.0164 13.5877 17.9187 8.77128 17.9187C3.95487 17.9187 0.0525274 14.0164 0.0525274 9.19995C0.0525274 4.38354 3.95487 0.481201 8.77128 0.481201ZM13.0252 6.45776C13.1658 5.89526 12.8142 5.64917 12.4275 5.78979L4.02518 9.02417C3.46268 9.23511 3.46268 9.58667 3.91971 9.72729L6.06425 10.3953L11.0564 7.2312C11.3025 7.09058 11.5135 7.19604 11.3377 7.33667L7.29471 10.9929L7.15409 13.2078C7.36503 13.2078 7.4705 13.1023 7.57596 12.9968L8.63065 11.9773L10.8103 13.5945C11.2322 13.8054 11.5135 13.7 11.6189 13.2078L13.0252 6.45776Z" fill="white"/>
</svg>
