<svg width="18" height="18" viewBox="0 0 18 18" fill="none" xmlns="http://www.w3.org/2000/svg">
<path d="M9.15116 0.351196C13.9676 0.351196 17.8699 4.25354 17.8699 9.06995C17.8699 13.8864 13.9676 17.7887 9.15116 17.7887C4.33475 17.7887 0.43241 13.8864 0.43241 9.06995C0.43241 4.25354 4.33475 0.351196 9.15116 0.351196ZM13.4051 6.32776C13.5457 5.76526 13.1941 5.51917 12.8074 5.65979L4.40507 8.89417C3.84257 9.1051 3.84257 9.45667 4.2996 9.59729L6.44413 10.2653L11.4363 7.1012C11.6824 6.96057 11.8933 7.06604 11.7176 7.20667L7.6746 10.8629L7.53397 13.0778C7.74491 13.0778 7.85038 12.9723 7.95585 12.8668L9.01054 11.8473L11.1902 13.4645C11.6121 13.6754 11.8933 13.5699 11.9988 13.0778L13.4051 6.32776Z" fill="#00CC33"/>
</svg>
