<svg width="78" height="78" viewBox="0 0 78 78" fill="none" xmlns="http://www.w3.org/2000/svg">
<circle cx="39" cy="39" r="38.03" fill="white" stroke="#77E195" stroke-width="1.94"/>
<path d="M25.1916 33.6108C25.226 33.6108 25.2604 33.608 25.2944 33.6026L34.8645 32.0864C34.9717 32.0694 35.0731 32.026 35.1595 31.9602C35.2459 31.8944 35.3146 31.8082 35.3595 31.7093L39.3614 22.8849C39.4104 22.777 39.4292 22.6579 39.4158 22.5401C39.4025 22.4224 39.3575 22.3105 39.2857 22.2162C39.2139 22.122 39.118 22.0489 39.008 22.0048C38.898 21.9607 38.7782 21.9472 38.6611 21.9658L29.091 23.482C28.9838 23.4989 28.8824 23.5423 28.796 23.6081C28.7096 23.6739 28.6409 23.7601 28.5961 23.8591L24.5941 32.6835C24.5488 32.7834 24.5292 32.8931 24.5373 33.0026C24.5453 33.112 24.5807 33.2177 24.6401 33.31C24.6996 33.4022 24.7812 33.4781 24.8775 33.5306C24.9739 33.5832 25.0819 33.6107 25.1916 33.6108ZM29.9845 30.1279L32.3953 31.1488L27.6598 31.899L29.9845 30.1279ZM30.3916 28.1677L29.9285 24.6782L36.2957 23.6694L30.3916 28.1677ZM29.1891 29.0839L26.8645 30.855L28.8447 26.4886L29.1891 29.0839ZM34.4285 30.5844L31.1869 29.2118L37.091 24.7133L34.4285 30.5844ZM25.6342 20.0734C26.3384 19.5362 27.0794 19.049 27.8517 18.6155L27.2106 17.4702C26.3845 17.9339 25.5919 18.4549 24.8387 19.0295C23.1434 20.321 21.6651 21.87 20.5635 23.5088L21.6527 24.2409C22.675 22.7201 24.0518 21.279 25.6342 20.0734Z" fill="#77E195" stroke="#77E195" stroke-width="0.2"/>
<path d="M59.582 38.7615C59.1897 35.8802 57.7506 32.8372 55.5297 30.1933C52.6577 26.7742 48.9453 24.5709 45.5474 24.2541C45.3564 23.7933 45.1066 23.359 44.8044 22.9621L42.4181 19.83C41.002 17.9713 38.5662 17.0935 35.559 17.3579C32.6623 17.6128 29.5545 18.9056 26.8079 20.9983C24.0612 23.0909 21.9898 25.7442 20.9753 28.4693C19.922 31.2983 20.1219 33.8799 21.538 35.7386L22.9099 37.539C22.6368 37.9129 22.41 38.3184 22.2343 38.7468L20.7435 42.3912C19.8587 44.5539 20.3363 47.0989 22.0881 49.5572C23.7757 51.9252 26.4652 53.9494 29.661 55.2568C31.9932 56.2108 34.4001 56.7037 36.6438 56.7036C37.4527 56.7059 38.2603 56.6375 39.0574 56.4992C42.0299 55.9736 44.1543 54.4931 45.0391 52.3303L46.4402 48.9054C46.6896 49.0022 46.9394 49.0907 47.1896 49.1708C48.1798 49.4985 49.2147 49.6712 50.2577 49.683C51.875 49.683 53.3027 49.2048 54.424 48.2629L57.4389 45.7304C59.2282 44.2274 59.9893 41.7526 59.582 38.7615ZM40.8854 43.3511L42.8947 41.6634C43.7781 42.6541 44.7602 43.5522 45.8259 44.3436L43.8456 46.0069C42.7642 45.2334 41.7714 44.3427 40.8854 43.3512V43.3511ZM40.0417 42.3458C39.768 41.9961 39.5079 41.6387 39.2616 41.2736C39.233 41.2239 39.2028 41.1751 39.1711 41.1273L39.1653 41.1311C38.6802 40.4005 38.2503 39.6348 37.8791 38.8403C38.442 38.4929 38.9939 38.1135 39.5347 37.7024C39.6757 37.5949 39.8148 37.4859 39.9519 37.3753C40.5396 38.5373 41.2427 39.6372 42.0507 40.6583L40.0417 42.3458ZM38.203 43.0827C38.0712 43.4049 37.8169 43.6615 37.4959 43.7961C37.1749 43.9308 36.8136 43.9324 36.4914 43.8006L36.4913 43.8006L33.4543 42.5582L34.2663 40.5735C35.1151 40.2764 35.9403 39.9158 36.7349 39.4947C37.1433 40.359 37.6175 41.1906 38.1534 41.9822C38.241 42.1511 38.2908 42.337 38.2993 42.527C38.3079 42.717 38.275 42.9066 38.203 43.0827ZM36.7078 45.7225C36.8082 45.9619 36.8353 46.2256 36.7858 46.4805C36.7363 46.7353 36.6123 46.9697 36.4296 47.1541C36.2468 47.3384 36.0135 47.4645 35.7591 47.5162C35.5047 47.568 35.2407 47.5432 35.0004 47.4449L31.9635 46.2025L32.9574 43.7729L35.9943 45.0153C36.1541 45.0801 36.2994 45.176 36.4219 45.2974C36.5444 45.4188 36.6415 45.5633 36.7078 45.7225V45.7225ZM27.3681 38.2569C27.4383 38.2569 27.5091 38.2558 27.5801 38.2544L28.9398 40.0392C27.2098 39.8804 25.8309 39.2074 24.9683 38.0752L24.8546 37.9259C25.673 38.1522 26.519 38.2636 27.3681 38.2569ZM30.6685 40.0353C30.6426 40.0375 30.6172 40.0392 30.5914 40.0412L29.1307 38.1242C30.0752 37.9827 31.0039 37.7513 31.9043 37.433L33.4512 39.4633C32.5474 39.7552 31.6142 39.947 30.6685 40.0352V40.0353ZM36.6201 34.9597L38.2104 37.0471C37.1286 37.8202 35.9647 38.4715 34.7399 38.9891L33.1726 36.932C34.3859 36.3935 35.541 35.7326 36.6201 34.9597ZM39.2544 36.2517L37.6641 34.1643C38.6957 33.3291 39.6395 32.3907 40.4807 31.364L42.048 33.4211C41.2238 34.4645 40.2869 35.4138 39.2544 36.2516V36.2517ZM42.8472 32.3044L41.3004 30.2742C41.8462 29.4905 42.3158 28.6565 42.7028 27.7835L44.1635 29.7005C44.1546 29.7249 44.1463 29.749 44.1372 29.7734C43.8012 30.6617 43.3686 31.5105 42.8472 32.3044ZM44.5999 28.1077L43.2403 26.3233C43.5095 25.4434 43.6465 24.5284 43.6468 23.6083L43.7605 23.7574C44.623 24.8895 44.906 26.3976 44.5999 28.1077ZM22.2052 28.9273C23.1343 26.4317 25.0514 23.9866 27.6032 22.0424C30.1549 20.0982 33.0212 18.8989 35.6739 18.6654C35.9859 18.638 36.2896 18.6243 36.5853 18.6244C38.6993 18.6244 40.3796 19.3204 41.3741 20.6255C42.5075 22.1131 42.6413 24.2496 41.7509 26.6414C40.8218 29.1371 38.9047 31.5822 36.353 33.5265C33.8011 35.4706 30.9348 36.6699 28.2822 36.9034C25.7401 37.127 23.7164 36.4312 22.5827 34.9442L22.582 34.9432C21.4485 33.4556 21.3148 31.3191 22.2052 28.9274V28.9273ZM23.9243 38.8707C25.1751 40.5125 27.2213 41.389 29.7543 41.389C30.089 41.389 30.432 41.3736 30.7835 41.3428C31.4143 41.2859 32.0403 41.185 32.6571 41.0407L30.7486 45.7056L29.5339 45.2086L29.0368 46.4234L30.2517 46.9204L29.7547 48.1352L30.9695 48.6321L31.4665 47.4173L32.6812 47.9143L32.1842 49.1291L33.399 49.6261L33.896 48.4112L34.5034 48.6598C34.9839 48.8563 35.512 48.906 36.0207 48.8025C36.5294 48.6989 36.9961 48.4469 37.3616 48.0782C37.7271 47.7095 37.975 47.2406 38.0741 46.731C38.1731 46.2214 38.1188 45.6938 37.918 45.215C37.8963 45.1636 37.8729 45.1129 37.8479 45.0629C38.1906 44.9445 38.5049 44.7563 38.771 44.51C39.0371 44.2638 39.2492 43.965 39.3937 43.6325C39.4126 43.6549 39.4307 43.6778 39.4496 43.7002C41.1456 45.7193 43.1494 47.3287 45.2356 48.3707C44.4801 50.0038 42.7439 51.1338 40.3198 51.5624C37.6975 52.0261 34.618 51.6125 31.6488 50.3978C28.6796 49.183 26.1932 47.3198 24.6478 45.1512C23.1666 43.0728 22.7409 40.9749 23.449 39.2439C23.5345 39.0366 23.6357 38.8361 23.7517 38.6442L23.9243 38.8707ZM30.5484 51.3544L29.5548 53.7831C28.3401 53.2422 27.1888 52.5689 26.122 51.7753L27.1012 49.3818C28.1802 50.1548 29.3353 50.8158 30.5484 51.3544H30.5484ZM31.7636 51.8503C33.0063 52.3167 34.2933 52.6551 35.6046 52.8604L34.6254 55.2541C33.3082 55.0723 32.0151 54.7457 30.7696 54.2801L31.7636 51.8503ZM21.9583 42.8881L22.0292 42.7146C22.2686 43.603 22.6385 44.451 23.127 45.2307L22.2776 47.3071C21.5378 45.7352 21.4194 44.2055 21.9583 42.8881ZM23.157 48.7954C23.1419 48.7743 23.1276 48.7531 23.1127 48.7319L24.0253 46.5013C24.6258 47.2438 25.2959 47.9272 26.0265 48.5422L25.0602 50.9045C24.3505 50.2733 23.7123 49.566 23.157 48.7954ZM35.9931 55.3772L36.9598 53.0144C37.3553 53.0436 37.7475 53.0593 38.1346 53.0593C38.697 53.0597 39.259 53.0271 39.8176 52.9615L38.905 55.1924C38.8795 55.1971 38.8545 55.2022 38.8289 55.2067C37.8927 55.3672 36.9418 55.4244 35.9931 55.3773V55.3772ZM40.4993 54.7615L41.3488 52.6851C42.2437 52.4713 43.1019 52.1257 43.8953 51.6597L43.8243 51.8333C43.2854 53.1506 42.1287 54.1587 40.4993 54.7615ZM44.999 46.7522L46.9534 45.1106C47.7621 45.6185 48.6175 46.0479 49.508 46.3929L47.6625 47.9431C47.6378 47.9354 47.6133 47.9283 47.5885 47.9203C46.6852 47.6269 45.8168 47.2352 44.999 46.7522ZM53.5798 47.2579C52.49 48.1734 50.9971 48.5278 49.2743 48.3032L50.9921 46.8603C51.7379 47.048 52.5036 47.1454 53.2727 47.1505C53.4252 47.1505 53.5754 47.1448 53.7245 47.1364L53.5798 47.2579ZM56.5948 44.7255C55.1627 45.9283 53.0349 46.1635 50.6035 45.3879C48.0665 44.5785 45.5331 42.7798 43.4697 40.3234C42.4822 39.1561 41.6459 37.869 40.9805 36.4924C43.008 34.6301 44.5395 32.4547 45.3673 30.2313C45.982 28.5803 46.169 27.014 45.9374 25.626C48.8309 26.0821 52.0568 28.0994 54.5247 31.0375C56.588 33.4939 57.9223 36.2999 58.2815 38.9385C58.6259 41.4673 58.0268 43.5225 56.5948 44.7255Z" fill="#77E195" stroke="#77E195" stroke-width="0.2"/>
<path d="M53.3455 33.8893C52.7909 33.8413 52.2354 33.9707 51.759 34.2589C51.2827 34.547 50.9102 34.979 50.6953 35.4926L49.6016 35.1731L49.4758 34.0411C50.0986 33.9006 50.6489 33.5381 51.0238 33.0212C51.3986 32.5043 51.5722 31.8686 51.5122 31.233C51.4522 30.5973 51.1626 30.0053 50.6977 29.5677C50.2328 29.1302 49.6243 28.877 48.9862 28.8556C48.3481 28.8342 47.7241 29.046 47.2308 29.4515C46.7376 29.8569 46.409 30.4282 46.3066 31.0584C46.2041 31.6886 46.3348 32.3345 46.6741 32.8753C47.0135 33.4161 47.5382 33.8148 48.1503 33.9966L48.3066 35.4038L48.0098 35.6531C47.49 35.2825 46.8529 35.1142 46.2179 35.1798C45.5829 35.2453 44.9936 35.5402 44.5605 36.0091C44.1273 36.478 43.8801 37.0888 43.865 37.727C43.8499 38.3652 44.0681 38.9869 44.4787 39.4758C44.8892 39.9646 45.4639 40.2869 46.0951 40.3824C46.7263 40.4778 47.3707 40.3397 47.9074 39.9941C48.4441 39.6485 48.8363 39.119 49.0105 38.5049C49.1848 37.8907 49.1291 37.2341 48.8539 36.6581L49.1509 36.4088L50.5098 36.8057C50.5795 37.4066 50.8545 37.965 51.2883 38.3865C51.722 38.8081 52.288 39.0671 52.8906 39.1197C52.9683 39.1264 53.0456 39.1297 53.1225 39.1297C53.7389 39.1303 54.3356 38.9123 54.8064 38.5145C55.204 38.1806 55.4935 37.7363 55.6386 37.2378C55.7836 36.7393 55.7775 36.2089 55.6211 35.7139C55.4647 35.2188 55.1651 34.7812 54.76 34.4565C54.3549 34.1318 53.8627 33.9344 53.3455 33.8894L53.3455 33.8893ZM47.8921 32.3237C47.6968 32.0912 47.5882 31.7981 47.5848 31.4945C47.5813 31.1909 47.6833 30.8954 47.8732 30.6585C48.0632 30.4216 48.3294 30.2579 48.6265 30.1953C48.9236 30.1327 49.2333 30.175 49.5027 30.3151C49.7721 30.4552 49.9846 30.6844 50.104 30.9636C50.2234 31.2428 50.2422 31.5547 50.1574 31.8463C50.0726 32.1378 49.8893 32.391 49.6388 32.5625C49.3882 32.7341 49.086 32.8135 48.7835 32.7872C48.6116 32.7727 48.4444 32.7243 48.2914 32.6447C48.1384 32.5651 48.0026 32.456 47.8921 32.3237ZM47.7927 37.9045C47.7706 38.1582 47.6752 38.3999 47.5181 38.6003C47.361 38.8007 47.149 38.9511 46.908 39.0331C46.6669 39.1151 46.4072 39.1253 46.1605 39.0623C45.9138 38.9993 45.6908 38.8659 45.5186 38.6784C45.3463 38.4908 45.2324 38.2572 45.1906 38.0061C45.1488 37.7549 45.181 37.497 45.2832 37.2638C45.3854 37.0306 45.5532 36.8322 45.7663 36.6927C45.9793 36.5532 46.2283 36.4787 46.4829 36.4783C46.5214 36.4783 46.56 36.4799 46.5989 36.4833C46.9457 36.5134 47.2662 36.6801 47.4901 36.9467C47.714 37.2132 47.8228 37.5578 47.7927 37.9045ZM54.4256 36.6183C54.4112 36.7901 54.3627 36.9573 54.2832 37.1103C54.2036 37.2633 54.0945 37.3989 53.9622 37.5095C53.8006 37.6451 53.6088 37.7399 53.4029 37.7856C53.197 37.8314 52.9831 37.8269 52.7793 37.7725C52.5756 37.718 52.3879 37.6153 52.2322 37.4729C52.0766 37.3306 51.9576 37.1528 51.8852 36.9547C51.8128 36.7565 51.7893 36.5439 51.8166 36.3347C51.8438 36.1256 51.9211 35.9261 52.0418 35.7531C52.1626 35.5802 52.3232 35.4389 52.5102 35.3412C52.6971 35.2435 52.9048 35.1923 53.1158 35.1919C53.1543 35.1919 53.1929 35.1936 53.2318 35.197C53.4035 35.2119 53.5706 35.2605 53.7235 35.34C53.8764 35.4196 54.0122 35.5284 54.1231 35.6604C54.2339 35.7924 54.3177 35.9449 54.3696 36.1092C54.4215 36.2736 54.4406 36.4466 54.4256 36.6183ZM56.4939 28.7658C56.7012 29.0126 56.9023 29.2645 57.0971 29.5213L58.143 28.7285C57.935 28.4542 57.7202 28.1852 57.4989 27.9216C55.4091 25.4337 52.8176 23.5443 50.2015 22.6014L49.7564 23.836C52.1581 24.7018 54.5507 26.4525 56.4939 28.7658ZM48.6692 22.16C48.2057 22.0599 47.7355 21.9935 47.2624 21.9612L47.1765 23.2709C47.5862 23.299 47.9933 23.3567 48.3947 23.4435L48.6692 22.16ZM48.6113 51.4424L48.5233 51.4437L48.5406 52.7561L48.6349 52.7546C49.0554 52.7473 49.4798 52.7268 49.8961 52.6939L49.7928 51.3855C49.4031 51.4164 49.0057 51.4355 48.6113 51.4424ZM51.0606 51.2418L51.2533 52.5401C53.5516 52.1991 55.6788 51.4627 57.4048 50.4104L56.7215 49.2896C55.1442 50.2514 53.1869 50.9264 51.0606 51.2418Z" fill="#77E195" stroke="#77E195" stroke-width="0.2"/>
</svg>
