<svg width="78" height="78" viewBox="0 0 78 78" fill="none" xmlns="http://www.w3.org/2000/svg">
<circle cx="39" cy="39" r="38.03" fill="white" stroke="#77E195" stroke-width="1.94"/>
<g clip-path="url(#clip0_2585_1831)">
<path d="M38.9996 54.413C38.8148 54.413 38.63 54.3702 38.4615 54.2847C33.1597 51.5938 29.7014 48.182 27.889 43.8543C26.389 40.2726 26.0436 36.0339 26.833 30.8959C26.8603 30.7135 26.9298 30.5399 27.0359 30.389C27.1421 30.2381 27.282 30.1141 27.4445 30.0267C27.775 29.8473 28.161 29.8332 28.5036 29.988C30.7255 30.9924 32.8032 30.8631 34.679 29.6033C36.3225 28.4996 37.4387 26.7714 37.9577 25.8395C38.0612 25.654 38.2123 25.4996 38.3955 25.392C38.5786 25.2845 38.7872 25.2278 38.9995 25.2278C39.2119 25.2278 39.4205 25.2845 39.6036 25.392C39.7867 25.4996 39.9379 25.654 40.0413 25.8395C40.5604 26.7714 41.6766 28.4996 43.3201 29.6033C45.1957 30.863 47.2734 30.9924 49.4954 29.988C49.838 29.8331 50.224 29.8472 50.5546 30.0266C50.886 30.2064 51.1088 30.5232 51.1661 30.8958C52.5479 39.8899 50.4482 46.3035 44.5583 51.0799C44.4956 51.1308 44.4234 51.1689 44.3459 51.1919C44.2685 51.2149 44.1873 51.2224 44.1069 51.214C44.0266 51.2056 43.9486 51.1815 43.8776 51.1429C43.8066 51.1044 43.7438 51.0523 43.693 50.9895C43.5902 50.8628 43.542 50.7005 43.5589 50.5382C43.5758 50.3759 43.6566 50.227 43.7833 50.1242C46.7864 47.6889 48.7084 44.8348 49.6589 41.3991C50.4674 38.4772 50.565 35.1174 49.9571 31.1295C47.338 32.2988 44.8741 32.1293 42.6341 30.6249C40.8979 29.4589 39.7039 27.7489 38.9996 26.4976C38.2954 27.7488 37.1013 29.4589 35.365 30.625C33.125 32.1296 30.6612 32.2991 28.042 31.1297C27.2971 36.0161 27.6184 40.0231 29.0239 43.3791C30.7166 47.421 33.9796 50.6264 38.9995 53.178C39.9368 52.7015 40.8258 52.1936 41.642 51.6684C41.7792 51.5831 41.9445 51.5552 42.1021 51.5906C42.2597 51.6261 42.3971 51.7221 42.4845 51.858C42.5719 51.9939 42.6024 52.1587 42.5693 52.3168C42.5362 52.475 42.4423 52.6138 42.3078 52.7033C41.451 53.2545 40.519 53.7866 39.5377 54.2847C39.3709 54.3692 39.1866 54.4132 38.9996 54.413Z" fill="#77E195" stroke="#77E195" stroke-width="0.5"/>
<path d="M37.9054 45.8236C37.3576 45.8236 36.8427 45.6104 36.4555 45.2232L32.6507 41.4194C32.2632 41.0321 32.0499 40.5172 32.0498 39.9693C32.0497 39.4215 32.263 38.9065 32.6503 38.5191C33.4498 37.7194 34.7509 37.7192 35.5505 38.5187L37.873 40.8406L38.87 39.7987C38.9828 39.6808 39.1378 39.6126 39.301 39.609C39.4641 39.6054 39.622 39.6668 39.7399 39.7796C39.8578 39.8924 39.926 40.0475 39.9296 40.2106C39.9331 40.3737 39.8718 40.5316 39.7589 40.6495L38.3272 42.1458C38.2705 42.2049 38.2026 42.2522 38.1275 42.2848C38.0523 42.3174 37.9714 42.3347 37.8894 42.3356C37.8075 42.3366 37.7262 42.3212 37.6503 42.2903C37.5744 42.2593 37.5055 42.2135 37.4476 42.1554L34.6805 39.389C34.3606 39.0693 33.8402 39.0693 33.5204 39.3892C33.444 39.4652 33.3834 39.5556 33.3422 39.6552C33.301 39.7547 33.2799 39.8615 33.2802 39.9692C33.2799 40.077 33.301 40.1837 33.3422 40.2833C33.3835 40.3828 33.4441 40.4732 33.5205 40.5492L37.3254 44.3531C37.4014 44.4295 37.4918 44.49 37.5913 44.5312C37.6909 44.5725 37.7976 44.5935 37.9054 44.5932L37.9145 44.5932C38.0236 44.5917 38.1314 44.5686 38.2316 44.5252C38.3318 44.4817 38.4223 44.4188 38.498 44.3401L44.4918 38.0763C44.5665 37.9986 44.6251 37.9069 44.6642 37.8065C44.7032 37.706 44.722 37.5988 44.7193 37.4911C44.7172 37.3833 44.6938 37.2771 44.6504 37.1785C44.6069 37.0798 44.5444 36.9908 44.4664 36.9165C44.3888 36.8417 44.2971 36.783 44.1966 36.7439C44.0962 36.7049 43.9889 36.6862 43.8812 36.689C43.7734 36.6911 43.6672 36.7145 43.5686 36.758C43.4699 36.8014 43.3809 36.864 43.3066 36.942L41.6132 38.7118C41.5573 38.7701 41.4905 38.8169 41.4165 38.8495C41.3426 38.8821 41.2629 38.8997 41.1822 38.9015C41.019 38.9051 40.8611 38.8437 40.7432 38.7309C40.6253 38.6181 40.5571 38.463 40.5535 38.2999C40.5499 38.1367 40.6113 37.9788 40.7241 37.8609L42.4175 36.0914C42.7961 35.6956 43.3063 35.4709 43.854 35.4589C44.4002 35.4452 44.9212 35.6487 45.317 36.0275C45.5122 36.2133 45.6686 36.4359 45.7772 36.6825C45.8857 36.9291 45.9443 37.1948 45.9495 37.4642C45.9615 38.0118 45.7596 38.5314 45.3809 38.9271L39.387 45.1908C39.0079 45.587 38.4761 45.8176 37.928 45.8237L37.9054 45.8236Z" fill="#77E195" stroke="#77E195" stroke-width="0.5"/>
<path d="M38.9997 60C38.7713 60.0002 38.5461 59.9465 38.3424 59.8433C34.4218 57.8535 31.1332 55.5318 28.5682 52.9429C26.1646 50.5169 24.3099 47.7686 23.056 44.7743C20.8891 39.6001 20.3915 33.4679 21.5346 26.0274C21.6045 25.5717 21.877 25.1845 22.2821 24.9648C22.686 24.7457 23.1577 24.7286 23.5762 24.9178C24.4008 25.2905 25.2228 25.5628 26.0192 25.727C26.179 25.76 26.3192 25.8551 26.4089 25.9914C26.4986 26.1277 26.5305 26.294 26.4975 26.4539C26.4645 26.6137 26.3694 26.7538 26.2331 26.8435C26.0968 26.9332 25.9305 26.9651 25.7707 26.9321C24.8854 26.7495 23.9766 26.4491 23.0692 26.0389C23.0375 26.0243 23.0029 26.0174 22.968 26.0187C22.9332 26.02 22.8991 26.0295 22.8686 26.0464C22.8372 26.0631 22.8101 26.087 22.7896 26.1162C22.7691 26.1453 22.7558 26.1789 22.7507 26.2142C21.6429 33.4242 22.114 39.3398 24.1909 44.2989C26.6896 50.2653 31.5007 54.991 38.8993 58.7461C38.9621 58.778 39.0371 58.778 39.0998 58.7461C46.4984 54.991 51.3095 50.2653 53.8082 44.2989C55.8851 39.3398 56.3561 33.4242 55.2484 26.2142C55.2433 26.1789 55.23 26.1453 55.2095 26.1162C55.189 26.087 55.1619 26.0631 55.1305 26.0464C55.1 26.0295 55.0659 26.02 55.0311 26.0187C54.9963 26.0174 54.9616 26.0243 54.93 26.0389C51.1803 27.734 47.6568 27.504 44.4575 25.3553C41.9315 23.6588 40.2028 21.1511 39.1975 19.3463C39.1413 19.2454 39.0494 19.2305 38.9995 19.2304C38.9496 19.2304 38.8576 19.2455 38.8014 19.3463C38.1026 20.6009 36.9185 22.4253 35.2458 23.9916C33.2233 25.8854 30.9953 26.9389 28.6237 27.1227C28.4615 27.1345 28.3011 27.0816 28.1778 26.9755C28.0544 26.8694 27.9781 26.7188 27.9656 26.5566C27.953 26.3944 28.0052 26.2339 28.1107 26.11C28.2162 25.9862 28.3665 25.9092 28.5286 25.8959C33.272 25.5283 36.3273 21.2595 37.7265 18.7476C37.9874 18.2795 38.4634 18 38.9997 18C39.5361 18.0001 40.0119 18.2795 40.2726 18.7476C41.0419 20.1288 42.6977 22.6912 45.1436 24.3338C47.9655 26.229 51.0876 26.4254 54.4231 24.9177C54.8416 24.7285 55.3131 24.7457 55.7171 24.9647C56.1222 25.1844 56.3947 25.5716 56.4647 26.0273C57.6078 33.4678 57.1101 39.6 54.9432 44.7741C53.6893 47.7684 51.8347 50.5168 49.431 52.9427C46.866 55.5317 43.5774 57.8533 39.6567 59.8432C39.4531 59.9465 39.228 60.0002 38.9997 60Z" fill="#77E195" stroke="#77E195" stroke-width="0.5"/>
</g>
<defs>
<clipPath id="clip0_2585_1831">
<rect width="42" height="42" fill="white" transform="translate(18 18)"/>
</clipPath>
</defs>
</svg>
