<svg width="19" height="16" viewBox="0 0 19 16" fill="none" xmlns="http://www.w3.org/2000/svg">
<path d="M16.9197 4.5437C16.9197 4.71948 16.9197 4.86011 16.9197 5.03589C16.9197 9.92261 13.2283 15.5125 6.44316 15.5125C4.33379 15.5125 2.4002 14.9148 0.783009 13.8601C1.06426 13.8953 1.34551 13.9304 1.66191 13.9304C3.38457 13.9304 4.9666 13.3328 6.23223 12.3484C4.61504 12.3132 3.24395 11.2585 2.78691 9.78198C3.03301 9.81714 3.24395 9.85229 3.49004 9.85229C3.80645 9.85229 4.15801 9.78198 4.43926 9.71167C2.75176 9.36011 1.48613 7.88354 1.48613 6.09058V6.05542C1.97832 6.33667 2.57598 6.47729 3.17363 6.51245C2.1541 5.84448 1.52129 4.71948 1.52129 3.45386C1.52129 2.75073 1.69707 2.11792 2.01348 1.59058C3.8416 3.80542 6.58379 5.28198 9.64238 5.45776C9.57207 5.17651 9.53691 4.89526 9.53691 4.61401C9.53691 2.57495 11.1893 0.922607 13.2283 0.922607C14.283 0.922607 15.2322 1.34448 15.9354 2.08276C16.7439 1.90698 17.5525 1.59058 18.2557 1.1687C17.9744 2.04761 17.4119 2.75073 16.6385 3.20776C17.3768 3.13745 18.115 2.92651 18.7479 2.64526C18.2557 3.38354 17.6229 4.01636 16.9197 4.5437Z" fill="white"/>
</svg>
