<svg width="19" height="16" viewBox="0 0 19 16" fill="none" xmlns="http://www.w3.org/2000/svg">
<path d="M16.2898 4.4137C16.2898 4.58948 16.2898 4.7301 16.2898 4.90588C16.2898 9.7926 12.5984 15.3824 5.81328 15.3824C3.70391 15.3824 1.77031 14.7848 0.153126 13.7301C0.434376 13.7653 0.715626 13.8004 1.03203 13.8004C2.75469 13.8004 4.33672 13.2028 5.60234 12.2184C3.98516 12.1832 2.61406 11.1285 2.15703 9.65198C2.40313 9.68713 2.61406 9.72229 2.86016 9.72229C3.17656 9.72229 3.52813 9.65198 3.80938 9.58167C2.12188 9.2301 0.856251 7.75354 0.856251 5.96057V5.92542C1.34844 6.20667 1.94609 6.34729 2.54375 6.38245C1.52422 5.71448 0.891407 4.58948 0.891407 3.32385C0.891407 2.62073 1.06719 1.98792 1.38359 1.46057C3.21172 3.67542 5.95391 5.15198 9.0125 5.32776C8.94219 5.04651 8.90703 4.76526 8.90703 4.48401C8.90703 2.44495 10.5594 0.792603 12.5984 0.792603C13.6531 0.792603 14.6023 1.21448 15.3055 1.95276C16.1141 1.77698 16.9227 1.46057 17.6258 1.0387C17.3445 1.9176 16.782 2.62073 16.0086 3.07776C16.7469 3.00745 17.4852 2.79651 18.118 2.51526C17.6258 3.25354 16.993 3.88635 16.2898 4.4137Z" fill="#00CC33"/>
</svg>
