<svg xmlns="http://www.w3.org/2000/svg" width="47" height="47" viewBox="0 0 47 47" fill="none">
  <circle cx="23.5" cy="23.5" r="23.5" fill="#F0FFF4"/>
  <path fill-rule="evenodd" clip-rule="evenodd" d="M27.7207 21.8836C27.7207 22.3577 26.2922 22.7611 24.3783 22.8609H22.4436C21.6338 22.8331 20.8278 22.7176 20.0356 22.5157C19.4405 22.3452 19.0891 22.1248 19.0891 21.8919C19.0891 21.4116 20.5227 20.9853 22.4436 20.9146V22.4658C22.5671 22.4658 22.9307 22.5053 23.4231 22.5053C24.0216 22.5053 24.3192 22.5053 24.3783 22.4658V20.9063C26.2922 21.0082 27.7207 21.4116 27.7207 21.8836Z" fill="#8FC9A0"/>
  <path fill-rule="evenodd" clip-rule="evenodd" d="M33.5858 18.5858L29.8816 14.2816C29.796 14.1831 29.6939 14.1073 29.5821 14.0593C29.4702 14.0112 29.3511 13.9921 29.2326 14.003H17.551C17.3368 14.0016 17.1304 14.0992 16.9751 14.2754L13.2413 18.5858C13.0868 18.7706 13 19.0211 13 19.2824C13 19.5436 13.0868 19.7941 13.2413 19.9789L22.795 32.6981C22.9619 32.8917 23.1853 33 23.4179 33C23.6505 33 23.8739 32.8917 24.0408 32.6981L33.5858 19.9789C33.7386 19.7931 33.8242 19.5429 33.8242 19.2824C33.8242 19.0218 33.7386 18.7717 33.5858 18.5858ZM24.3905 23.2476V27.7223H22.4436V23.2414C20.2704 23.125 18.6349 22.6051 18.6349 21.9938C18.6349 21.3825 20.2704 20.8606 22.4436 20.7462V19.3489H19.7693V17.2238H27.0508V19.3489H24.3783V20.7441C26.5445 20.8689 28.1869 21.3679 28.1869 21.9917C28.1869 22.6155 26.5584 23.125 24.3905 23.2414V23.2476Z" fill="#8FC9A0"/>
</svg>