<svg xmlns="http://www.w3.org/2000/svg" width="17" height="17" viewBox="0 0 17 17" fill="none">
  <g clip-path="url(#clip0_2683_49)">
    <path d="M14.6989 1.46621C14.9922 1.46621 15.2331 1.56055 15.4217 1.74922C15.6102 1.93789 15.7045 2.17897 15.7045 2.47246C15.7045 2.76595 15.6102 3.00703 15.4217 3.1957C15.2331 3.38437 14.9922 3.47871 14.6989 3.47871H3.13418C2.81992 3.49967 2.65232 3.66738 2.63137 3.98184C2.65232 4.29629 2.81992 4.464 3.13418 4.48496H14.6989C15.2645 4.50592 15.7359 4.70508 16.113 5.08242C16.4901 5.45977 16.6892 5.93145 16.7101 6.49746V13.5412C16.6892 14.1072 16.4901 14.5789 16.113 14.9563C15.7359 15.3336 15.2645 15.5327 14.6989 15.5537H2.63137C2.0657 15.5327 1.59432 15.3336 1.21721 14.9563C0.840098 14.5789 0.641068 14.1072 0.620117 13.5412V3.47871C0.641068 2.91269 0.840098 2.44102 1.21721 2.06367C1.59432 1.68633 2.0657 1.48717 2.63137 1.46621H14.6989ZM13.6932 11.0256C13.9865 11.0256 14.2275 10.9313 14.416 10.7426C14.6046 10.5539 14.6989 10.3128 14.6989 10.0193C14.6989 9.72585 14.6046 9.48477 14.416 9.29609C14.2275 9.10742 13.9865 9.01309 13.6932 9.01309C13.3999 9.01309 13.159 9.10742 12.9704 9.29609C12.7819 9.48477 12.6876 9.72585 12.6876 10.0193C12.6876 10.3128 12.7819 10.5539 12.9704 10.7426C13.159 10.9313 13.3999 11.0256 13.6932 11.0256Z" fill="white"/>
  </g>
  <defs>
    <clipPath id="clip0_2683_49">
      <rect width="16.51" height="16.1" fill="white" transform="matrix(1 0 0 -1 0.410156 16.5599)"/>
    </clipPath>
  </defs>
</svg>